{"glyphs":{"0":{"ha":638,"x_min":47,"x_max":589,"o":"m 317 -8 q 121 113 194 -8 q 47 486 47 233 q 121 860 47 739 q 317 981 194 981 q 515 860 440 981 q 589 486 589 739 q 515 113 589 233 q 317 -8 440 -8 m 318 92 q 426 184 385 92 q 468 486 468 276 q 426 788 468 696 q 318 881 385 881 q 210 788 250 881 q 169 486 169 696 q 210 184 169 276 q 318 92 250 92 z "},"1":{"ha":638,"x_min":42,"x_max":575,"o":"m 89 0 q 68 10 75 0 q 61 42 61 19 l 61 58 q 68 90 61 81 q 89 100 75 100 l 274 100 l 274 849 l 69 815 q 49 839 57 815 q 42 886 42 863 q 67 913 42 907 l 347 975 q 377 967 364 975 q 390 946 390 958 l 390 100 l 547 100 q 569 90 563 100 q 575 58 575 81 l 575 42 q 569 10 575 19 q 547 0 563 0 l 89 0 z "},"2":{"ha":638,"x_min":38,"x_max":576,"o":"m 65 0 q 46 19 54 0 q 38 61 38 39 q 43 85 38 79 l 369 549 q 436 658 419 621 q 453 739 453 696 q 411 843 453 806 q 297 881 369 881 q 208 865 244 881 q 138 824 172 849 q 124 814 135 821 q 108 807 114 807 q 80 834 97 807 q 63 878 63 861 q 101 928 63 904 q 195 966 139 951 q 301 981 251 981 q 497 918 422 981 q 572 749 572 856 q 557 652 572 696 q 502 549 542 608 q 378 378 463 489 l 190 99 l 549 99 q 570 89 564 99 q 576 57 576 79 l 576 42 q 570 10 576 19 q 549 0 564 0 l 65 0 z "},"3":{"ha":638,"x_min":33,"x_max":575,"o":"m 281 -8 q 160 3 217 -8 q 68 34 103 15 q 33 71 33 53 q 51 115 33 90 q 82 140 69 140 q 114 129 86 140 q 264 92 189 92 q 397 136 339 92 q 454 286 454 181 q 402 426 454 385 q 256 467 350 467 l 200 467 q 179 476 186 467 q 172 508 172 486 l 172 524 q 179 556 172 546 q 200 565 186 565 l 250 565 q 351 595 313 565 q 408 667 390 625 q 425 746 425 708 q 390 840 425 799 q 269 881 354 881 q 133 844 199 881 q 107 835 111 835 q 78 863 96 835 q 61 907 61 890 q 134 958 61 936 q 275 981 207 981 q 472 918 400 981 q 543 743 543 856 q 400 543 543 603 l 400 538 q 522 451 469 518 q 575 278 575 385 q 536 122 575 186 q 430 24 497 57 q 281 -8 363 -8 z "},"4":{"ha":638,"x_min":17,"x_max":614,"o":"m 435 -3 q 393 28 393 -3 l 393 232 l 50 232 q 28 257 39 232 q 17 303 17 282 q 19 318 17 310 l 392 957 q 439 975 404 975 l 467 975 q 508 944 508 975 l 508 332 l 586 332 q 608 322 601 332 q 614 290 614 313 l 614 274 q 608 242 614 251 q 586 232 601 232 l 508 232 l 508 28 q 467 -3 508 -3 l 435 -3 m 393 332 l 393 610 q 406 779 393 699 l 400 782 l 142 332 l 393 332 z "},"5":{"ha":638,"x_min":50,"x_max":578,"o":"m 281 -8 q 163 5 217 -8 q 80 38 110 18 q 50 75 50 57 q 68 119 50 94 q 99 144 86 144 q 129 132 104 144 q 199 102 167 113 q 276 92 231 92 q 406 145 353 92 q 458 294 458 199 q 401 438 458 389 q 236 486 344 486 l 132 486 q 101 496 110 486 q 93 528 93 506 l 117 931 q 128 963 118 953 q 161 972 139 972 l 506 972 q 527 963 521 972 q 533 931 533 953 l 533 914 q 527 882 533 892 q 506 872 521 872 l 229 872 l 211 586 l 272 586 q 487 518 396 586 q 578 292 578 450 q 491 61 578 131 q 281 -8 404 -8 z "},"6":{"ha":638,"x_min":51,"x_max":583,"o":"m 314 -7 q 119 85 186 -7 q 51 338 51 176 q 135 669 51 525 q 325 894 218 814 q 488 975 432 975 q 520 947 507 975 q 533 901 533 919 q 522 886 533 890 q 308 735 390 829 q 192 517 225 640 q 350 563 260 563 q 470 528 417 563 q 553 429 524 493 q 583 283 583 365 q 548 130 583 196 q 451 28 513 64 q 314 -7 390 -7 m 318 93 q 388 113 354 93 q 444 176 422 133 q 465 279 465 218 q 422 417 465 372 q 313 463 378 463 q 172 418 240 463 q 168 335 168 376 q 212 147 168 201 q 318 93 256 93 z "},"7":{"ha":638,"x_min":42,"x_max":590,"o":"m 165 -3 q 122 3 135 -3 q 108 21 108 8 q 114 42 108 25 l 456 872 l 69 872 q 49 882 56 872 q 42 914 42 892 l 42 931 q 49 963 42 953 q 69 972 56 972 l 563 972 q 581 947 571 972 q 590 901 590 922 q 588 886 590 894 l 238 19 q 182 -3 229 -3 l 165 -3 z "},"8":{"ha":638,"x_min":56,"x_max":583,"o":"m 317 -8 q 128 62 201 -8 q 56 267 56 132 q 197 519 56 446 q 116 606 146 554 q 86 738 86 658 q 153 917 86 854 q 322 981 219 981 q 490 922 421 981 q 560 747 560 863 q 524 609 560 665 q 431 522 489 553 q 543 427 503 482 q 583 272 583 372 q 510 66 583 140 q 317 -8 436 -8 m 340 568 q 415 641 389 600 q 442 742 442 682 q 408 846 442 811 q 321 881 374 881 q 236 846 269 881 q 203 744 203 811 q 238 639 203 676 q 340 568 272 601 m 318 92 q 422 141 381 92 q 464 272 464 190 q 440 367 464 331 q 383 424 415 404 q 283 475 351 443 q 203 394 231 442 q 175 274 175 347 q 216 138 175 183 q 318 92 257 92 z "},"9":{"ha":638,"x_min":56,"x_max":588,"o":"m 153 -6 q 120 22 133 -6 q 107 68 107 50 q 118 83 107 79 q 332 235 250 140 q 447 453 414 331 q 289 407 379 407 q 169 442 222 407 q 85 540 115 476 q 56 686 56 604 q 91 840 56 774 q 188 941 126 906 q 325 976 249 976 q 521 885 454 976 q 588 632 588 794 q 504 300 588 444 q 314 75 421 156 q 153 -6 207 -6 m 326 507 q 467 553 396 507 q 471 636 471 594 q 428 823 471 769 q 321 876 385 876 q 251 856 285 876 q 196 794 218 836 q 174 692 174 753 q 217 553 174 599 q 326 507 261 507 z "},"\u0000":{"ha":0,"x_min":0,"x_max":0,"o":""},"\r":{"ha":190,"x_min":0,"x_max":0,"o":""}," ":{"ha":190,"x_min":0,"x_max":0,"o":""},"A":{"ha":701,"x_min":18,"x_max":683,"o":"m 69 -3 q 18 21 18 -3 q 21 39 18 25 l 272 949 q 328 975 281 975 l 372 975 q 428 949 422 975 l 679 39 q 683 21 683 29 q 670 3 683 10 q 632 -3 657 -3 l 608 -3 q 558 19 564 -3 l 499 247 l 200 247 l 142 19 q 92 -3 136 -3 l 69 -3 m 468 353 l 369 733 q 354 818 365 751 l 347 818 q 342 786 344 808 l 331 733 l 232 353 l 468 353 z "},"Á":{"ha":701,"x_min":18,"x_max":683,"o":"m 69 -3 q 18 21 18 -3 q 21 39 18 25 l 272 949 q 328 975 281 975 l 372 975 q 428 949 422 975 l 679 39 q 683 21 683 29 q 670 3 683 10 q 632 -3 657 -3 l 608 -3 q 558 19 564 -3 l 499 247 l 200 247 l 142 19 q 92 -3 136 -3 l 69 -3 m 468 353 l 369 733 q 354 818 365 751 l 347 818 q 342 786 344 808 l 331 733 l 232 353 l 468 353 m 342 1058 q 313 1072 313 1058 q 330 1119 313 1082 q 381 1226 347 1157 q 458 1263 397 1263 q 503 1258 489 1263 q 517 1244 517 1254 q 504 1218 517 1236 q 467 1164 492 1200 l 408 1083 q 342 1058 392 1058 z "},"Ă":{"ha":701,"x_min":18,"x_max":683,"o":"m 69 -3 q 18 21 18 -3 q 21 39 18 25 l 272 949 q 328 975 281 975 l 372 975 q 428 949 422 975 l 679 39 q 683 21 683 29 q 670 3 683 10 q 632 -3 657 -3 l 608 -3 q 558 19 564 -3 l 499 247 l 200 247 l 142 19 q 92 -3 136 -3 l 69 -3 m 468 353 l 369 733 q 354 818 365 751 l 347 818 q 342 786 344 808 l 331 733 l 232 353 l 468 353 m 351 1058 q 235 1100 282 1058 q 189 1218 189 1142 q 214 1239 189 1239 q 228 1234 224 1239 q 237 1219 233 1229 q 243 1204 240 1210 q 351 1150 264 1150 q 460 1204 439 1150 q 465 1219 461 1208 q 474 1235 469 1231 q 488 1239 479 1239 q 513 1218 513 1239 q 466 1100 513 1142 q 351 1058 419 1058 z "},"Ắ":{"ha":682,"x_min":18,"x_max":683,"o":"m 328 1175 q 296 1189 296 1175 q 310 1233 296 1199 q 354 1329 325 1267 q 429 1365 371 1365 q 463 1361 453 1365 q 472 1347 472 1357 q 459 1318 472 1339 q 415 1253 446 1297 q 378 1200 401 1236 q 328 1175 360 1175 m 342 1058 q 225 1095 271 1058 q 179 1190 179 1132 q 184 1215 179 1208 q 201 1221 189 1221 q 217 1216 213 1221 q 226 1201 222 1211 q 233 1186 231 1192 q 272 1147 243 1164 q 342 1129 301 1129 q 411 1147 382 1129 q 449 1186 440 1165 q 454 1201 450 1190 q 464 1217 458 1213 q 481 1221 469 1221 q 498 1214 493 1221 q 503 1190 503 1207 q 458 1095 503 1132 q 342 1058 413 1058 m 69 -3 q 18 21 18 -3 q 21 39 18 25 l 272 949 q 328 975 281 975 l 372 975 q 428 949 422 975 l 679 39 q 683 21 683 29 q 670 3 683 10 q 632 -3 657 -3 l 608 -3 q 558 19 564 -3 l 499 247 l 200 247 l 142 19 q 92 -3 136 -3 l 69 -3 m 468 353 l 369 733 q 354 818 365 751 l 347 818 q 342 786 344 808 l 331 733 l 232 353 l 468 353 z "},"Ặ":{"ha":701,"x_min":18,"x_max":683,"o":"m 69 -3 q 18 21 18 -3 q 21 39 18 25 l 272 949 q 328 975 281 975 l 372 975 q 428 949 422 975 l 679 39 q 683 21 683 29 q 670 3 683 10 q 632 -3 657 -3 l 608 -3 q 558 19 564 -3 l 499 247 l 200 247 l 142 19 q 92 -3 136 -3 l 69 -3 m 468 353 l 369 733 q 354 818 365 751 l 347 818 q 342 786 344 808 l 331 733 l 232 353 l 468 353 m 356 -243 q 294 -212 294 -243 l 294 -142 q 358 -111 294 -111 q 419 -142 419 -111 l 419 -212 q 356 -243 419 -243 m 351 1058 q 235 1100 282 1058 q 189 1218 189 1142 q 214 1239 189 1239 q 228 1234 224 1239 q 237 1219 233 1229 q 243 1204 240 1210 q 351 1150 264 1150 q 460 1204 439 1150 q 465 1219 461 1208 q 474 1235 469 1231 q 488 1239 479 1239 q 513 1218 513 1239 q 466 1100 513 1142 q 351 1058 419 1058 z "},"Ằ":{"ha":682,"x_min":18,"x_max":683,"o":"m 374 1175 q 324 1200 340 1175 l 282 1264 q 246 1321 257 1303 q 235 1347 235 1339 q 244 1361 235 1357 q 279 1365 254 1365 q 353 1329 338 1365 q 392 1233 379 1267 q 406 1189 406 1199 q 374 1175 406 1175 m 342 1058 q 225 1095 271 1058 q 179 1190 179 1132 q 184 1215 179 1208 q 201 1221 189 1221 q 217 1216 213 1221 q 226 1201 222 1211 q 233 1186 231 1192 q 272 1147 243 1164 q 342 1129 301 1129 q 411 1147 382 1129 q 449 1186 440 1165 q 454 1201 450 1190 q 464 1217 458 1213 q 481 1221 469 1221 q 498 1214 493 1221 q 503 1190 503 1207 q 458 1095 503 1132 q 342 1058 413 1058 m 69 -3 q 18 21 18 -3 q 21 39 18 25 l 272 949 q 328 975 281 975 l 372 975 q 428 949 422 975 l 679 39 q 683 21 683 29 q 670 3 683 10 q 632 -3 657 -3 l 608 -3 q 558 19 564 -3 l 499 247 l 200 247 l 142 19 q 92 -3 136 -3 l 69 -3 m 468 353 l 369 733 q 354 818 365 751 l 347 818 q 342 786 344 808 l 331 733 l 232 353 l 468 353 z "},"Ẳ":{"ha":682,"x_min":18,"x_max":683,"o":"m 343 1185 q 307 1194 322 1185 q 292 1213 292 1203 q 299 1226 292 1219 q 326 1243 307 1232 q 369 1294 369 1267 q 355 1322 369 1313 q 318 1332 340 1332 q 273 1323 288 1332 q 254 1314 258 1314 q 233 1331 246 1314 q 221 1360 221 1349 q 257 1386 221 1374 q 329 1399 293 1399 q 411 1376 374 1399 q 449 1304 449 1353 q 435 1254 449 1275 q 400 1215 422 1233 q 368 1194 386 1204 q 343 1185 350 1185 m 342 1058 q 225 1095 271 1058 q 179 1190 179 1132 q 184 1215 179 1208 q 201 1221 189 1221 q 217 1216 213 1221 q 226 1201 222 1211 q 233 1186 231 1192 q 272 1147 243 1164 q 342 1129 301 1129 q 411 1147 382 1129 q 449 1186 440 1165 q 454 1201 450 1190 q 464 1217 458 1213 q 481 1221 469 1221 q 498 1214 493 1221 q 503 1190 503 1207 q 458 1095 503 1132 q 342 1058 413 1058 m 69 -3 q 18 21 18 -3 q 21 39 18 25 l 272 949 q 328 975 281 975 l 372 975 q 428 949 422 975 l 679 39 q 683 21 683 29 q 670 3 683 10 q 632 -3 657 -3 l 608 -3 q 558 19 564 -3 l 499 247 l 200 247 l 142 19 q 92 -3 136 -3 l 69 -3 m 468 353 l 369 733 q 354 818 365 751 l 347 818 q 342 786 344 808 l 331 733 l 232 353 l 468 353 z "},"Ẵ":{"ha":682,"x_min":18,"x_max":683,"o":"m 168 1274 q 156 1290 156 1281 q 160 1308 156 1299 q 203 1382 178 1360 q 264 1404 228 1404 q 302 1397 282 1404 q 353 1375 322 1389 q 425 1349 403 1349 q 451 1356 440 1349 q 472 1385 461 1364 q 497 1406 483 1406 q 511 1401 503 1406 l 519 1397 q 531 1390 526 1394 q 535 1381 535 1386 q 531 1361 535 1374 q 486 1289 511 1311 q 426 1267 461 1267 q 384 1274 406 1267 q 333 1297 363 1282 q 294 1315 314 1307 q 263 1322 275 1322 q 239 1314 249 1322 q 217 1285 229 1306 q 194 1265 206 1265 q 181 1268 192 1265 l 168 1274 m 342 1044 q 225 1081 271 1044 q 179 1176 179 1118 q 184 1201 179 1194 q 201 1207 189 1207 q 217 1202 213 1207 q 226 1188 222 1197 q 233 1172 231 1178 q 272 1133 243 1150 q 342 1115 301 1115 q 411 1133 382 1115 q 449 1172 440 1151 q 454 1188 450 1176 q 464 1203 458 1199 q 481 1207 469 1207 q 498 1200 493 1207 q 503 1176 503 1193 q 458 1081 503 1118 q 342 1044 413 1044 m 69 -3 q 18 21 18 -3 q 21 39 18 25 l 272 949 q 328 975 281 975 l 372 975 q 428 949 422 975 l 679 39 q 683 21 683 29 q 670 3 683 10 q 632 -3 657 -3 l 608 -3 q 558 19 564 -3 l 499 247 l 200 247 l 142 19 q 92 -3 136 -3 l 69 -3 m 468 353 l 369 733 q 354 818 365 751 l 347 818 q 342 786 344 808 l 331 733 l 232 353 l 468 353 z "},"Â":{"ha":701,"x_min":18,"x_max":683,"o":"m 69 -3 q 18 21 18 -3 q 21 39 18 25 l 272 949 q 328 975 281 975 l 372 975 q 428 949 422 975 l 679 39 q 683 21 683 29 q 670 3 683 10 q 632 -3 657 -3 l 608 -3 q 558 19 564 -3 l 499 247 l 200 247 l 142 19 q 92 -3 136 -3 l 69 -3 m 468 353 l 369 733 q 354 818 365 751 l 347 818 q 342 786 344 808 l 331 733 l 232 353 l 468 353 m 226 1046 q 207 1051 214 1046 q 200 1064 200 1057 q 210 1090 200 1071 l 282 1213 q 340 1243 301 1243 l 361 1243 q 418 1213 399 1243 l 493 1090 q 501 1067 501 1074 q 494 1051 501 1057 q 475 1046 488 1046 l 447 1046 q 413 1065 425 1046 l 350 1167 l 289 1065 q 253 1046 274 1046 l 226 1046 z "},"Ấ":{"ha":682,"x_min":18,"x_max":683,"o":"m 476 1179 q 444 1193 444 1179 q 459 1237 444 1203 q 503 1333 474 1271 q 578 1369 519 1369 q 611 1365 601 1369 q 621 1351 621 1361 q 608 1322 621 1343 q 564 1257 594 1301 q 526 1204 550 1240 q 476 1179 508 1179 m 225 1046 q 206 1051 213 1046 q 199 1064 199 1056 q 206 1090 199 1076 l 272 1213 q 329 1243 289 1243 l 351 1243 q 408 1213 392 1243 l 475 1090 q 481 1080 476 1088 q 485 1067 485 1072 q 477 1051 485 1057 q 457 1046 469 1046 l 431 1046 q 394 1064 407 1046 l 340 1167 l 286 1064 q 272 1049 281 1053 q 250 1046 264 1046 l 225 1046 m 69 -3 q 18 21 18 -3 q 21 39 18 25 l 272 949 q 328 975 281 975 l 372 975 q 428 949 422 975 l 679 39 q 683 21 683 29 q 670 3 683 10 q 632 -3 657 -3 l 608 -3 q 558 19 564 -3 l 499 247 l 200 247 l 142 19 q 92 -3 136 -3 l 69 -3 m 468 353 l 369 733 q 354 818 365 751 l 347 818 q 342 786 344 808 l 331 733 l 232 353 l 468 353 z "},"Ậ":{"ha":701,"x_min":18,"x_max":683,"o":"m 69 -3 q 18 21 18 -3 q 21 39 18 25 l 272 949 q 328 975 281 975 l 372 975 q 428 949 422 975 l 679 39 q 683 21 683 29 q 670 3 683 10 q 632 -3 657 -3 l 608 -3 q 558 19 564 -3 l 499 247 l 200 247 l 142 19 q 92 -3 136 -3 l 69 -3 m 468 353 l 369 733 q 354 818 365 751 l 347 818 q 342 786 344 808 l 331 733 l 232 353 l 468 353 m 356 -243 q 294 -212 294 -243 l 294 -142 q 358 -111 294 -111 q 419 -142 419 -111 l 419 -212 q 356 -243 419 -243 m 226 1046 q 207 1051 214 1046 q 200 1064 200 1057 q 210 1090 200 1071 l 282 1213 q 340 1243 301 1243 l 361 1243 q 418 1213 399 1243 l 493 1090 q 501 1067 501 1074 q 494 1051 501 1057 q 475 1046 488 1046 l 447 1046 q 413 1065 425 1046 l 350 1167 l 289 1065 q 253 1046 274 1046 l 226 1046 z "},"Ầ":{"ha":682,"x_min":18,"x_max":683,"o":"m 522 1179 q 472 1204 489 1179 l 431 1268 q 394 1325 406 1307 q 383 1351 383 1343 q 393 1365 383 1361 q 428 1369 403 1369 q 501 1333 486 1369 q 541 1237 528 1271 q 554 1193 554 1203 q 522 1179 554 1179 m 225 1046 q 206 1051 213 1046 q 199 1064 199 1056 q 206 1090 199 1076 l 272 1213 q 329 1243 289 1243 l 351 1243 q 408 1213 392 1243 l 475 1090 q 481 1080 476 1088 q 485 1067 485 1072 q 477 1051 485 1057 q 457 1046 469 1046 l 431 1046 q 394 1064 407 1046 l 340 1167 l 286 1064 q 272 1049 281 1053 q 250 1046 264 1046 l 225 1046 m 69 -3 q 18 21 18 -3 q 21 39 18 25 l 272 949 q 328 975 281 975 l 372 975 q 428 949 422 975 l 679 39 q 683 21 683 29 q 670 3 683 10 q 632 -3 657 -3 l 608 -3 q 558 19 564 -3 l 499 247 l 200 247 l 142 19 q 92 -3 136 -3 l 69 -3 m 468 353 l 369 733 q 354 818 365 751 l 347 818 q 342 786 344 808 l 331 733 l 232 353 l 468 353 z "},"Ẩ":{"ha":682,"x_min":18,"x_max":683,"o":"m 492 1189 q 456 1198 471 1189 q 440 1217 440 1207 q 448 1230 440 1224 q 475 1247 456 1236 q 518 1299 518 1271 q 503 1326 518 1317 q 467 1336 489 1336 q 422 1327 436 1336 q 403 1318 407 1318 q 382 1335 394 1318 q 369 1364 369 1353 q 406 1390 369 1378 q 478 1403 442 1403 q 560 1380 522 1403 q 597 1308 597 1357 q 584 1258 597 1279 q 549 1219 571 1238 q 517 1199 535 1208 q 492 1189 499 1189 m 225 1046 q 206 1051 213 1046 q 199 1064 199 1056 q 206 1090 199 1076 l 272 1213 q 329 1243 289 1243 l 351 1243 q 408 1213 392 1243 l 475 1090 q 481 1080 476 1088 q 485 1067 485 1072 q 477 1051 485 1057 q 457 1046 469 1046 l 431 1046 q 394 1064 407 1046 l 340 1167 l 286 1064 q 272 1049 281 1053 q 250 1046 264 1046 l 225 1046 m 69 -3 q 18 21 18 -3 q 21 39 18 25 l 272 949 q 328 975 281 975 l 372 975 q 428 949 422 975 l 679 39 q 683 21 683 29 q 670 3 683 10 q 632 -3 657 -3 l 608 -3 q 558 19 564 -3 l 499 247 l 200 247 l 142 19 q 92 -3 136 -3 l 69 -3 m 468 353 l 369 733 q 354 818 365 751 l 347 818 q 342 786 344 808 l 331 733 l 232 353 l 468 353 z "},"Ẫ":{"ha":682,"x_min":18,"x_max":683,"o":"m 168 1256 q 156 1272 156 1263 q 160 1290 156 1281 q 203 1364 178 1342 q 264 1386 228 1386 q 302 1378 282 1386 q 353 1357 322 1371 q 425 1331 403 1331 q 451 1338 440 1331 q 472 1367 461 1346 q 497 1388 483 1388 q 511 1383 503 1388 l 519 1379 q 531 1372 526 1376 q 535 1363 535 1368 q 531 1343 535 1356 q 486 1271 511 1293 q 426 1249 461 1249 q 384 1256 406 1249 q 333 1279 363 1264 q 294 1297 314 1289 q 263 1304 275 1304 q 239 1296 249 1304 q 217 1267 229 1288 q 194 1247 206 1247 q 181 1250 192 1247 l 168 1256 m 225 1046 q 199 1065 199 1046 q 208 1090 199 1071 l 272 1182 q 331 1213 296 1213 l 353 1213 q 411 1182 389 1213 l 475 1090 q 485 1065 485 1075 q 478 1051 485 1057 q 458 1046 471 1046 l 432 1046 q 394 1064 408 1046 l 340 1144 l 289 1064 q 251 1046 275 1046 l 225 1046 m 69 -3 q 18 21 18 -3 q 21 39 18 25 l 272 949 q 328 975 281 975 l 372 975 q 428 949 422 975 l 679 39 q 683 21 683 29 q 670 3 683 10 q 632 -3 657 -3 l 608 -3 q 558 19 564 -3 l 499 247 l 200 247 l 142 19 q 92 -3 136 -3 l 69 -3 m 468 353 l 369 733 q 354 818 365 751 l 347 818 q 342 786 344 808 l 331 733 l 232 353 l 468 353 z "},"Ä":{"ha":701,"x_min":18,"x_max":683,"o":"m 69 -3 q 18 21 18 -3 q 21 39 18 25 l 272 949 q 328 975 281 975 l 372 975 q 428 949 422 975 l 679 39 q 683 21 683 29 q 670 3 683 10 q 632 -3 657 -3 l 608 -3 q 558 19 564 -3 l 499 247 l 200 247 l 142 19 q 92 -3 136 -3 l 69 -3 m 468 353 l 369 733 q 354 818 365 751 l 347 818 q 342 786 344 808 l 331 733 l 232 353 l 468 353 m 264 1089 q 211 1119 211 1089 l 211 1190 q 267 1221 211 1221 q 319 1190 319 1221 l 319 1119 q 264 1089 319 1089 m 439 1089 q 386 1119 386 1089 l 386 1190 q 442 1221 386 1221 q 494 1190 494 1221 l 494 1119 q 439 1089 494 1089 z "},"Ạ":{"ha":701,"x_min":18,"x_max":683,"o":"m 69 -3 q 18 21 18 -3 q 21 39 18 25 l 272 949 q 328 975 281 975 l 372 975 q 428 949 422 975 l 679 39 q 683 21 683 29 q 670 3 683 10 q 632 -3 657 -3 l 608 -3 q 558 19 564 -3 l 499 247 l 200 247 l 142 19 q 92 -3 136 -3 l 69 -3 m 468 353 l 369 733 q 354 818 365 751 l 347 818 q 342 786 344 808 l 331 733 l 232 353 l 468 353 m 356 -243 q 294 -212 294 -243 l 294 -142 q 358 -111 294 -111 q 419 -142 419 -111 l 419 -212 q 356 -243 419 -243 z "},"À":{"ha":701,"x_min":18,"x_max":683,"o":"m 69 -3 q 18 21 18 -3 q 21 39 18 25 l 272 949 q 328 975 281 975 l 372 975 q 428 949 422 975 l 679 39 q 683 21 683 29 q 670 3 683 10 q 632 -3 657 -3 l 608 -3 q 558 19 564 -3 l 499 247 l 200 247 l 142 19 q 92 -3 136 -3 l 69 -3 m 468 353 l 369 733 q 354 818 365 751 l 347 818 q 342 786 344 808 l 331 733 l 232 353 l 468 353 m 385 1058 q 319 1083 336 1058 q 226 1210 242 1188 q 210 1244 210 1233 q 224 1258 210 1254 q 268 1263 238 1263 q 347 1226 328 1263 l 375 1168 q 403 1104 393 1128 q 414 1072 414 1081 q 408 1062 414 1065 q 385 1058 401 1058 z "},"Ả":{"ha":701,"x_min":18,"x_max":683,"o":"m 69 -3 q 18 21 18 -3 q 21 39 18 25 l 272 949 q 328 975 281 975 l 372 975 q 428 949 422 975 l 679 39 q 683 21 683 29 q 670 3 683 10 q 632 -3 657 -3 l 608 -3 q 558 19 564 -3 l 499 247 l 200 247 l 142 19 q 92 -3 136 -3 l 69 -3 m 468 353 l 369 733 q 354 818 365 751 l 347 818 q 342 786 344 808 l 331 733 l 232 353 l 468 353 m 361 1028 q 333 1035 350 1028 q 315 1051 315 1043 q 323 1072 315 1064 q 350 1097 331 1081 q 388 1135 374 1117 q 401 1179 401 1153 q 387 1207 401 1197 q 350 1217 372 1217 q 305 1208 319 1217 q 286 1199 290 1199 q 265 1216 278 1199 q 253 1244 253 1233 q 289 1273 253 1258 q 361 1288 325 1288 q 447 1264 407 1288 q 488 1189 488 1240 q 462 1111 488 1147 q 404 1051 436 1075 q 361 1028 372 1028 z "},"Ā":{"ha":701,"x_min":18,"x_max":683,"o":"m 69 -3 q 18 21 18 -3 q 21 39 18 25 l 272 949 q 328 975 281 975 l 372 975 q 428 949 422 975 l 679 39 q 683 21 683 29 q 670 3 683 10 q 632 -3 657 -3 l 608 -3 q 558 19 564 -3 l 499 247 l 200 247 l 142 19 q 92 -3 136 -3 l 69 -3 m 468 353 l 369 733 q 354 818 365 751 l 347 818 q 342 786 344 808 l 331 733 l 232 353 l 468 353 m 218 1096 q 192 1138 192 1096 l 192 1151 q 218 1193 192 1193 l 494 1193 q 515 1183 508 1193 q 521 1151 521 1174 l 521 1138 q 515 1106 521 1115 q 494 1096 508 1096 l 218 1096 z "},"Ą":{"ha":701,"x_min":18,"x_max":743,"o":"m 715 -143 q 743 -176 743 -143 q 725 -214 743 -201 q 633 -240 686 -240 q 532 -201 558 -240 q 506 -118 506 -161 q 517 -47 506 -86 q 556 28 529 -7 l 499 247 l 200 247 l 142 19 q 92 -3 136 -3 l 69 -3 q 18 21 18 -3 q 21 39 18 25 l 272 949 q 328 975 281 975 l 372 975 q 428 949 422 975 l 679 39 q 683 21 683 29 q 670 3 683 10 q 632 -3 657 -3 l 614 -3 q 590 -93 590 -51 q 660 -153 590 -153 q 690 -148 671 -153 q 715 -143 710 -143 m 468 353 l 369 733 q 354 818 365 751 l 347 818 q 342 786 344 808 l 331 733 l 232 353 l 468 353 z "},"Å":{"ha":701,"x_min":18,"x_max":683,"o":"m 69 -3 q 18 21 18 -3 q 21 39 18 25 l 272 949 q 328 975 281 975 l 372 975 q 428 949 422 975 l 679 39 q 683 21 683 29 q 670 3 683 10 q 632 -3 657 -3 l 608 -3 q 558 19 564 -3 l 499 247 l 200 247 l 142 19 q 92 -3 136 -3 l 69 -3 m 468 353 l 369 733 q 354 818 365 751 l 347 818 q 342 786 344 808 l 331 733 l 232 353 l 468 353 m 349 1029 q 265 1061 297 1029 q 233 1146 233 1093 q 265 1231 233 1199 q 349 1264 297 1264 q 433 1231 401 1264 q 465 1146 465 1199 q 433 1061 465 1093 q 349 1029 401 1029 m 349 1078 q 397 1096 379 1078 q 414 1146 414 1114 q 397 1197 414 1178 q 349 1215 379 1215 q 301 1197 318 1215 q 283 1146 285 1179 q 301 1095 285 1113 q 349 1078 318 1078 z "},"Ǻ":{"ha":701,"x_min":18,"x_max":683,"o":"m 347 1210 q 315 1224 315 1210 q 330 1267 315 1233 q 374 1364 344 1301 q 449 1400 390 1400 q 482 1396 472 1400 q 492 1382 492 1392 q 482 1358 492 1375 q 449 1310 472 1342 l 397 1235 q 347 1210 379 1210 m 679 39 q 683 21 683 29 q 670 3 683 10 q 632 -3 657 -3 l 608 -3 q 558 19 564 -3 l 499 247 l 200 247 l 142 19 q 92 -3 136 -3 l 69 -3 q 18 21 18 -3 q 21 39 18 25 l 272 949 q 279 961 274 953 q 247 1001 258 976 q 236 1056 236 1025 q 268 1141 236 1108 q 351 1174 300 1174 q 436 1141 404 1174 q 468 1056 468 1108 q 422 960 468 990 q 428 949 425 957 l 679 39 m 351 1125 q 304 1107 321 1125 q 286 1056 288 1089 q 304 1005 288 1022 q 351 988 321 988 q 399 1006 382 988 q 417 1056 417 1024 q 399 1106 417 1088 q 351 1125 382 1125 m 468 353 l 369 733 q 354 818 365 751 l 347 818 q 342 786 344 808 l 331 733 l 232 353 l 468 353 z "},"Ã":{"ha":701,"x_min":18,"x_max":683,"o":"m 69 -3 q 18 21 18 -3 q 21 39 18 25 l 272 949 q 328 975 281 975 l 372 975 q 428 949 422 975 l 679 39 q 683 21 683 29 q 670 3 683 10 q 632 -3 657 -3 l 608 -3 q 558 19 564 -3 l 499 247 l 200 247 l 142 19 q 92 -3 136 -3 l 69 -3 m 468 353 l 369 733 q 354 818 365 751 l 347 818 q 342 786 344 808 l 331 733 l 232 353 l 468 353 m 161 1074 q 147 1090 147 1079 q 151 1108 147 1099 q 199 1182 172 1160 q 267 1204 226 1204 q 308 1197 288 1204 q 363 1175 328 1190 q 443 1149 418 1149 q 470 1156 458 1149 q 496 1185 482 1164 q 522 1206 507 1206 q 538 1201 529 1206 l 547 1197 q 560 1190 557 1193 q 564 1181 564 1186 q 558 1161 564 1172 q 510 1088 538 1110 q 444 1067 483 1067 q 399 1074 422 1067 q 343 1097 375 1082 q 301 1115 322 1107 q 264 1122 279 1122 q 239 1114 250 1122 q 214 1085 228 1106 q 190 1065 203 1065 q 175 1068 186 1065 l 161 1074 z "},"Æ":{"ha":1036,"x_min":1,"x_max":942,"o":"m 54 -3 q 1 21 1 -3 q 7 43 1 32 l 363 935 q 382 963 371 954 q 411 972 393 972 l 914 972 q 940 931 940 972 l 940 908 q 914 867 940 867 l 531 867 l 579 550 l 882 550 q 908 508 908 550 l 908 486 q 882 444 908 444 l 596 444 l 649 106 l 915 106 q 942 64 942 106 l 942 42 q 915 0 942 0 l 578 0 q 538 40 543 0 l 507 247 l 207 247 l 119 19 q 74 -3 111 -3 l 54 -3 m 251 351 l 489 351 l 432 731 l 429 811 l 426 811 l 400 731 l 251 351 z "},"Ǽ":{"ha":1036,"x_min":1,"x_max":942,"o":"m 54 -3 q 1 21 1 -3 q 7 43 1 32 l 363 935 q 382 963 371 954 q 411 972 393 972 l 914 972 q 940 931 940 972 l 940 908 q 914 867 940 867 l 531 867 l 579 550 l 882 550 q 908 508 908 550 l 908 486 q 882 444 908 444 l 596 444 l 649 106 l 915 106 q 942 64 942 106 l 942 42 q 915 0 942 0 l 578 0 q 538 40 543 0 l 507 247 l 207 247 l 119 19 q 74 -3 111 -3 l 54 -3 m 251 351 l 489 351 l 432 731 l 429 811 l 426 811 l 400 731 l 251 351 m 528 1058 q 499 1072 499 1058 q 516 1119 499 1082 q 567 1226 533 1157 q 644 1263 583 1263 q 689 1258 675 1263 q 703 1244 703 1254 q 690 1218 703 1236 q 653 1164 678 1200 l 594 1083 q 528 1058 578 1058 z "},"B":{"ha":749,"x_min":108,"x_max":683,"o":"m 147 0 q 117 10 126 0 q 108 42 108 19 l 108 931 q 117 963 108 953 q 147 972 126 972 l 388 972 q 584 906 518 972 q 650 726 650 840 q 613 594 650 657 q 525 515 575 532 l 525 510 q 631 440 579 490 q 683 279 683 390 q 609 68 683 136 q 388 0 535 0 l 147 0 m 378 553 q 481 599 442 553 q 521 715 521 646 q 485 830 521 793 q 375 867 450 867 l 233 867 l 233 553 l 378 553 m 413 106 q 517 153 479 106 q 556 285 556 201 q 513 404 556 361 q 393 447 471 447 l 233 447 l 233 106 l 413 106 z "},"C":{"ha":638,"x_min":68,"x_max":611,"o":"m 429 -8 q 156 112 244 -8 q 68 486 68 232 q 158 859 68 738 q 431 981 247 981 q 507 974 469 981 q 571 954 544 967 q 590 940 585 949 q 594 917 594 932 q 583 863 594 893 q 551 843 572 832 q 431 872 493 872 q 254 779 311 872 q 197 488 197 686 q 253 194 197 289 q 429 100 310 100 q 560 135 501 100 q 572 138 568 138 q 601 113 590 138 q 611 67 611 89 q 604 42 611 53 q 578 21 597 31 q 514 1 554 10 q 429 -8 474 -8 z "},"Ć":{"ha":638,"x_min":68,"x_max":611,"o":"m 429 -8 q 156 112 244 -8 q 68 486 68 232 q 158 859 68 738 q 431 981 247 981 q 507 974 469 981 q 571 954 544 967 q 590 940 585 949 q 594 917 594 932 q 583 863 594 893 q 551 843 572 832 q 431 872 493 872 q 254 779 311 872 q 197 488 197 686 q 253 194 197 289 q 429 100 310 100 q 560 135 501 100 q 572 138 568 138 q 601 113 590 138 q 611 67 611 89 q 604 42 611 53 q 578 21 597 31 q 514 1 554 10 q 429 -8 474 -8 m 403 1058 q 374 1072 374 1058 q 391 1119 374 1082 q 442 1226 408 1157 q 519 1263 458 1263 q 564 1258 550 1263 q 578 1244 578 1254 q 565 1218 578 1236 q 528 1164 553 1200 l 469 1083 q 403 1058 453 1058 z "},"Č":{"ha":638,"x_min":68,"x_max":611,"o":"m 429 -8 q 156 112 244 -8 q 68 486 68 232 q 158 859 68 738 q 431 981 247 981 q 507 974 469 981 q 571 954 544 967 q 590 940 585 949 q 594 917 594 932 q 583 863 594 893 q 551 843 572 832 q 431 872 493 872 q 254 779 311 872 q 197 488 197 686 q 253 194 197 289 q 429 100 310 100 q 560 135 501 100 q 572 138 568 138 q 601 113 590 138 q 611 67 611 89 q 604 42 611 53 q 578 21 597 31 q 514 1 554 10 q 429 -8 474 -8 m 403 1056 q 344 1086 363 1056 l 272 1208 q 263 1233 263 1225 q 269 1247 263 1242 q 289 1253 276 1253 l 315 1253 q 351 1232 338 1253 l 413 1132 l 475 1232 q 510 1253 488 1253 l 538 1253 q 557 1247 550 1253 q 564 1232 564 1242 q 556 1208 564 1225 l 481 1086 q 424 1056 463 1056 l 403 1056 z "},"Ç":{"ha":638,"x_min":68,"x_max":611,"o":"m 560 135 q 572 138 568 138 q 601 113 590 138 q 611 67 611 89 q 604 42 611 53 q 578 21 597 31 q 523 1 557 10 q 450 -8 489 -7 l 429 -83 q 499 -103 467 -83 q 532 -176 532 -124 q 399 -292 532 -292 q 311 -275 354 -292 q 268 -232 268 -258 q 276 -208 268 -219 q 294 -196 285 -196 q 326 -206 304 -196 q 390 -224 363 -224 q 425 -213 410 -224 q 440 -183 440 -203 q 428 -153 440 -162 q 394 -136 417 -143 q 372 -125 379 -131 q 364 -110 364 -119 q 370 -78 364 -100 q 393 -7 376 -56 q 148 124 228 4 q 68 486 68 244 q 158 859 68 738 q 431 981 247 981 q 507 974 469 981 q 571 954 544 967 q 590 940 585 949 q 594 917 594 932 q 583 863 594 893 q 551 843 572 832 q 431 872 493 872 q 254 779 311 872 q 197 488 197 686 q 253 194 197 289 q 429 100 310 100 q 560 135 501 100 z "},"Ĉ":{"ha":638,"x_min":68,"x_max":611,"o":"m 429 -8 q 156 112 244 -8 q 68 486 68 232 q 158 859 68 738 q 431 981 247 981 q 507 974 469 981 q 571 954 544 967 q 590 940 585 949 q 594 917 594 932 q 583 863 594 893 q 551 843 572 832 q 431 872 493 872 q 254 779 311 872 q 197 488 197 686 q 253 194 197 289 q 429 100 310 100 q 560 135 501 100 q 572 138 568 138 q 601 113 590 138 q 611 67 611 89 q 604 42 611 53 q 578 21 597 31 q 514 1 554 10 q 429 -8 474 -8 m 288 1046 q 268 1051 275 1046 q 261 1064 261 1057 q 271 1090 261 1071 l 343 1213 q 401 1243 363 1243 l 422 1243 q 479 1213 460 1243 l 554 1090 q 563 1067 563 1074 q 556 1051 563 1057 q 536 1046 549 1046 l 508 1046 q 474 1065 486 1046 l 411 1167 l 350 1065 q 314 1046 335 1046 l 288 1046 z "},"Ċ":{"ha":638,"x_min":68,"x_max":611,"o":"m 429 -8 q 156 112 244 -8 q 68 486 68 232 q 158 859 68 738 q 431 981 247 981 q 507 974 469 981 q 571 954 544 967 q 590 940 585 949 q 594 917 594 932 q 583 863 594 893 q 551 843 572 832 q 431 872 493 872 q 254 779 311 872 q 197 488 197 686 q 253 194 197 289 q 429 100 310 100 q 560 135 501 100 q 572 138 568 138 q 601 113 590 138 q 611 67 611 89 q 604 42 611 53 q 578 21 597 31 q 514 1 554 10 q 429 -8 474 -8 m 413 1089 q 351 1119 351 1089 l 351 1190 q 415 1221 351 1221 q 476 1190 476 1221 l 476 1119 q 413 1089 476 1089 z "},"D":{"ha":801,"x_min":108,"x_max":728,"o":"m 146 0 q 117 10 126 0 q 108 42 108 19 l 108 931 q 117 963 108 953 q 146 972 126 972 l 379 972 q 728 486 728 972 q 379 0 728 0 l 146 0 m 376 106 q 540 197 481 106 q 600 486 600 288 q 540 775 600 683 q 376 867 481 867 l 235 867 l 235 106 l 376 106 z "},"Ǳ":{"ha":1506,"x_min":108,"x_max":1449,"o":"m 146 0 q 117 10 126 0 q 108 42 108 19 l 108 931 q 117 963 108 953 q 146 972 126 972 l 379 972 q 728 486 728 972 q 379 0 728 0 l 146 0 m 376 106 q 540 197 481 106 q 600 486 600 288 q 540 775 600 683 q 376 867 481 867 l 235 867 l 235 106 l 376 106 m 882 0 q 860 26 871 0 q 849 74 849 51 q 851 90 849 82 l 1297 867 l 910 867 q 890 878 896 867 q 885 914 885 889 l 885 925 q 890 961 885 950 q 910 972 896 972 l 1418 972 q 1438 947 1428 972 q 1449 899 1449 921 q 1447 882 1449 886 l 1004 106 l 1422 106 q 1449 58 1449 106 l 1449 47 q 1422 0 1449 0 l 882 0 z "},"Ǆ":{"ha":1506,"x_min":108,"x_max":1449,"o":"m 146 0 q 117 10 126 0 q 108 42 108 19 l 108 931 q 117 963 108 953 q 146 972 126 972 l 379 972 q 728 486 728 972 q 379 0 728 0 l 146 0 m 376 106 q 540 197 481 106 q 600 486 600 288 q 540 775 600 683 q 376 867 481 867 l 235 867 l 235 106 l 376 106 m 882 0 q 860 26 871 0 q 849 74 849 51 q 851 90 849 82 l 1297 867 l 910 867 q 890 878 896 867 q 885 914 885 889 l 885 925 q 890 961 885 950 q 910 972 896 972 l 1418 972 q 1438 947 1428 972 q 1449 899 1449 921 q 1447 882 1449 886 l 1004 106 l 1422 106 q 1449 58 1449 106 l 1449 47 q 1422 0 1449 0 l 882 0 m 1149 1056 q 1090 1086 1108 1056 l 1018 1208 q 1008 1233 1008 1225 q 1015 1247 1008 1242 q 1035 1253 1022 1253 l 1061 1253 q 1097 1232 1083 1253 l 1158 1132 l 1221 1232 q 1256 1253 1233 1253 l 1283 1253 q 1303 1247 1296 1253 q 1310 1232 1310 1242 q 1301 1208 1310 1225 l 1226 1086 q 1169 1056 1208 1056 l 1149 1056 z "},"Ð":{"ha":801,"x_min":14,"x_max":728,"o":"m 379 972 q 728 486 728 972 q 379 0 728 0 l 146 0 q 117 10 126 0 q 108 42 108 19 l 108 444 l 40 444 q 14 486 14 444 l 14 508 q 40 550 14 550 l 108 550 l 108 931 q 117 963 108 953 q 146 972 126 972 l 379 972 m 376 106 q 540 197 481 106 q 600 486 600 288 q 540 775 600 683 q 376 867 481 867 l 235 867 l 235 550 l 333 550 q 360 508 360 550 l 360 486 q 333 444 360 444 l 235 444 l 235 106 l 376 106 z "},"Ď":{"ha":801,"x_min":108,"x_max":728,"o":"m 146 0 q 117 10 126 0 q 108 42 108 19 l 108 931 q 117 963 108 953 q 146 972 126 972 l 379 972 q 728 486 728 972 q 379 0 728 0 l 146 0 m 376 106 q 540 197 481 106 q 600 486 600 288 q 540 775 600 683 q 376 867 481 867 l 235 867 l 235 106 l 376 106 m 368 1056 q 310 1086 328 1056 l 238 1208 q 228 1233 228 1225 q 235 1247 228 1242 q 254 1253 242 1253 l 281 1253 q 317 1232 303 1253 l 378 1132 l 440 1232 q 475 1253 453 1253 l 503 1253 q 522 1247 515 1253 q 529 1232 529 1242 q 521 1208 529 1225 l 446 1086 q 389 1056 428 1056 l 368 1056 z "},"Đ":{"ha":801,"x_min":14,"x_max":728,"o":"m 379 972 q 728 486 728 972 q 379 0 728 0 l 146 0 q 117 10 126 0 q 108 42 108 19 l 108 444 l 40 444 q 14 486 14 444 l 14 508 q 40 550 14 550 l 108 550 l 108 931 q 117 963 108 953 q 146 972 126 972 l 379 972 m 376 106 q 540 197 481 106 q 600 486 600 288 q 540 775 600 683 q 376 867 481 867 l 235 867 l 235 550 l 333 550 q 360 508 360 550 l 360 486 q 333 444 360 444 l 235 444 l 235 106 l 376 106 z "},"Ḍ":{"ha":801,"x_min":108,"x_max":728,"o":"m 146 0 q 117 10 126 0 q 108 42 108 19 l 108 931 q 117 963 108 953 q 146 972 126 972 l 379 972 q 728 486 728 972 q 379 0 728 0 l 146 0 m 376 106 q 540 197 481 106 q 600 486 600 288 q 540 775 600 683 q 376 867 481 867 l 235 867 l 235 106 l 376 106 m 382 -243 q 321 -212 321 -243 l 321 -142 q 385 -111 321 -111 q 446 -142 446 -111 l 446 -212 q 382 -243 446 -243 z "},"ǲ":{"ha":1364,"x_min":108,"x_max":1315,"o":"m 146 0 q 117 10 126 0 q 108 42 108 19 l 108 931 q 117 963 108 953 q 146 972 126 972 l 379 972 q 728 486 728 972 q 379 0 728 0 l 146 0 m 376 106 q 540 197 481 106 q 600 486 600 288 q 540 775 600 683 q 376 867 481 867 l 235 867 l 235 106 l 376 106 m 876 0 q 858 25 868 0 q 849 71 849 50 q 851 86 849 78 l 1165 626 l 896 626 q 869 668 869 626 l 869 685 q 896 726 869 726 l 1288 726 q 1304 700 1296 726 q 1313 654 1313 674 q 1310 640 1313 646 l 997 100 l 1289 100 q 1315 58 1315 100 l 1315 42 q 1289 0 1315 0 l 876 0 z "},"ǅ":{"ha":1364,"x_min":108,"x_max":1315,"o":"m 146 0 q 117 10 126 0 q 108 42 108 19 l 108 931 q 117 963 108 953 q 146 972 126 972 l 379 972 q 728 486 728 972 q 379 0 728 0 l 146 0 m 376 106 q 540 197 481 106 q 600 486 600 288 q 540 775 600 683 q 376 867 481 867 l 235 867 l 235 106 l 376 106 m 876 0 q 858 25 868 0 q 849 71 849 50 q 851 86 849 78 l 1165 626 l 896 626 q 869 668 869 626 l 869 685 q 896 726 869 726 l 1288 726 q 1304 700 1296 726 q 1313 654 1313 674 q 1310 640 1313 646 l 997 100 l 1289 100 q 1315 58 1315 100 l 1315 42 q 1289 0 1315 0 l 876 0 m 1038 810 q 979 840 997 810 l 907 963 q 897 988 897 979 q 904 1001 897 996 q 924 1007 911 1007 l 950 1007 q 986 986 972 1007 l 1047 886 l 1110 986 q 1144 1007 1122 1007 l 1172 1007 q 1192 1001 1185 1007 q 1199 986 1199 996 q 1190 963 1199 979 l 1115 840 q 1058 810 1097 810 l 1038 810 z "},"E":{"ha":635,"x_min":108,"x_max":572,"o":"m 146 0 q 117 10 126 0 q 108 42 108 19 l 108 931 q 117 963 108 953 q 146 972 126 972 l 546 972 q 572 931 572 972 l 572 908 q 546 867 572 867 l 233 867 l 233 550 l 514 550 q 540 508 540 550 l 540 486 q 514 444 540 444 l 233 444 l 233 106 l 546 106 q 566 96 560 106 q 572 64 572 86 l 572 42 q 566 10 572 19 q 546 0 560 0 l 146 0 z "},"É":{"ha":635,"x_min":108,"x_max":572,"o":"m 146 0 q 117 10 126 0 q 108 42 108 19 l 108 931 q 117 963 108 953 q 146 972 126 972 l 546 972 q 572 931 572 972 l 572 908 q 546 867 572 867 l 233 867 l 233 550 l 514 550 q 540 508 540 550 l 540 486 q 514 444 540 444 l 233 444 l 233 106 l 546 106 q 566 96 560 106 q 572 64 572 86 l 572 42 q 566 10 572 19 q 546 0 560 0 l 146 0 m 331 1058 q 301 1072 301 1058 q 319 1119 301 1082 q 369 1226 336 1157 q 447 1263 386 1263 q 492 1258 478 1263 q 506 1244 506 1254 q 493 1218 506 1236 q 456 1164 481 1200 l 397 1083 q 331 1058 381 1058 z "},"Ĕ":{"ha":635,"x_min":108,"x_max":572,"o":"m 146 0 q 117 10 126 0 q 108 42 108 19 l 108 931 q 117 963 108 953 q 146 972 126 972 l 546 972 q 572 931 572 972 l 572 908 q 546 867 572 867 l 233 867 l 233 550 l 514 550 q 540 508 540 550 l 540 486 q 514 444 540 444 l 233 444 l 233 106 l 546 106 q 566 96 560 106 q 572 64 572 86 l 572 42 q 566 10 572 19 q 546 0 560 0 l 146 0 m 340 1058 q 224 1100 271 1058 q 178 1218 178 1142 q 203 1239 178 1239 q 217 1234 213 1239 q 226 1219 222 1229 q 232 1204 229 1210 q 340 1150 253 1150 q 449 1204 428 1150 q 454 1219 450 1208 q 463 1235 458 1231 q 476 1239 468 1239 q 501 1218 501 1239 q 455 1100 501 1142 q 340 1058 408 1058 z "},"Ě":{"ha":635,"x_min":108,"x_max":572,"o":"m 146 0 q 117 10 126 0 q 108 42 108 19 l 108 931 q 117 963 108 953 q 146 972 126 972 l 546 972 q 572 931 572 972 l 572 908 q 546 867 572 867 l 233 867 l 233 550 l 514 550 q 540 508 540 550 l 540 486 q 514 444 540 444 l 233 444 l 233 106 l 546 106 q 566 96 560 106 q 572 64 572 86 l 572 42 q 566 10 572 19 q 546 0 560 0 l 146 0 m 331 1056 q 272 1086 290 1056 l 200 1208 q 190 1233 190 1225 q 197 1247 190 1242 q 217 1253 204 1253 l 243 1253 q 279 1232 265 1253 l 340 1132 l 403 1232 q 438 1253 415 1253 l 465 1253 q 485 1247 478 1253 q 492 1232 492 1242 q 483 1208 492 1225 l 408 1086 q 351 1056 390 1056 l 331 1056 z "},"Ê":{"ha":635,"x_min":108,"x_max":572,"o":"m 146 0 q 117 10 126 0 q 108 42 108 19 l 108 931 q 117 963 108 953 q 146 972 126 972 l 546 972 q 572 931 572 972 l 572 908 q 546 867 572 867 l 233 867 l 233 550 l 514 550 q 540 508 540 550 l 540 486 q 514 444 540 444 l 233 444 l 233 106 l 546 106 q 566 96 560 106 q 572 64 572 86 l 572 42 q 566 10 572 19 q 546 0 560 0 l 146 0 m 215 1046 q 196 1051 203 1046 q 189 1064 189 1057 q 199 1090 189 1071 l 271 1213 q 329 1243 290 1243 l 350 1243 q 407 1213 388 1243 l 482 1090 q 490 1067 490 1074 q 483 1051 490 1057 q 464 1046 476 1046 l 436 1046 q 401 1065 414 1046 l 339 1167 l 278 1065 q 242 1046 263 1046 l 215 1046 z "},"Ế":{"ha":615,"x_min":108,"x_max":611,"o":"m 465 1179 q 433 1193 433 1179 q 449 1236 433 1201 q 493 1333 464 1271 q 568 1369 510 1369 q 601 1365 592 1369 q 611 1351 611 1361 q 601 1328 611 1344 q 567 1278 590 1311 l 515 1204 q 465 1179 497 1179 m 214 1046 q 194 1051 201 1046 q 188 1064 188 1057 q 194 1090 188 1069 l 261 1213 q 319 1243 279 1243 l 342 1243 q 399 1213 381 1243 l 464 1090 q 474 1067 474 1076 q 467 1051 474 1057 q 447 1046 460 1046 l 419 1046 q 400 1051 410 1046 q 385 1064 390 1056 l 329 1167 l 276 1064 q 261 1049 269 1053 q 240 1046 253 1046 l 214 1046 m 146 0 q 117 10 126 0 q 108 42 108 19 l 108 931 q 117 963 108 953 q 146 972 126 972 l 546 972 q 572 931 572 972 l 572 908 q 546 867 572 867 l 233 867 l 233 550 l 514 550 q 540 508 540 550 l 540 486 q 514 444 540 444 l 233 444 l 233 106 l 546 106 q 566 96 560 106 q 572 64 572 86 l 572 42 q 566 10 572 19 q 546 0 560 0 l 146 0 z "},"Ệ":{"ha":635,"x_min":108,"x_max":572,"o":"m 146 0 q 117 10 126 0 q 108 42 108 19 l 108 931 q 117 963 108 953 q 146 972 126 972 l 546 972 q 572 931 572 972 l 572 908 q 546 867 572 867 l 233 867 l 233 550 l 514 550 q 540 508 540 550 l 540 486 q 514 444 540 444 l 233 444 l 233 106 l 546 106 q 566 96 560 106 q 572 64 572 86 l 572 42 q 566 10 572 19 q 546 0 560 0 l 146 0 m 346 -243 q 285 -212 285 -243 l 285 -142 q 349 -111 285 -111 q 410 -142 410 -111 l 410 -212 q 346 -243 410 -243 m 215 1046 q 196 1051 203 1046 q 189 1064 189 1057 q 199 1090 189 1071 l 271 1213 q 329 1243 290 1243 l 350 1243 q 407 1213 388 1243 l 482 1090 q 490 1067 490 1074 q 483 1051 490 1057 q 464 1046 476 1046 l 436 1046 q 401 1065 414 1046 l 339 1167 l 278 1065 q 242 1046 263 1046 l 215 1046 z "},"Ề":{"ha":615,"x_min":108,"x_max":572,"o":"m 511 1179 q 461 1204 479 1179 q 434 1247 447 1225 q 407 1288 421 1268 q 381 1330 389 1315 q 372 1351 372 1344 q 382 1365 372 1361 q 418 1369 392 1369 q 463 1360 443 1369 q 490 1333 482 1351 q 530 1237 517 1271 q 543 1193 543 1203 q 511 1179 543 1179 m 214 1046 q 194 1051 201 1046 q 188 1064 188 1057 q 194 1090 188 1069 l 261 1213 q 319 1243 279 1243 l 342 1243 q 399 1213 381 1243 l 464 1090 q 474 1067 474 1076 q 467 1051 474 1057 q 447 1046 460 1046 l 419 1046 q 400 1051 410 1046 q 385 1064 390 1056 l 329 1167 l 276 1064 q 261 1049 269 1053 q 240 1046 253 1046 l 214 1046 m 146 0 q 117 10 126 0 q 108 42 108 19 l 108 931 q 117 963 108 953 q 146 972 126 972 l 546 972 q 572 931 572 972 l 572 908 q 546 867 572 867 l 233 867 l 233 550 l 514 550 q 540 508 540 550 l 540 486 q 514 444 540 444 l 233 444 l 233 106 l 546 106 q 566 96 560 106 q 572 64 572 86 l 572 42 q 566 10 572 19 q 546 0 560 0 l 146 0 z "},"Ể":{"ha":615,"x_min":108,"x_max":586,"o":"m 481 1189 q 444 1198 460 1189 q 429 1217 429 1207 q 437 1230 429 1224 q 464 1247 444 1236 q 507 1299 507 1271 q 492 1326 507 1317 q 456 1336 478 1336 q 410 1327 425 1336 q 392 1318 396 1318 q 371 1335 383 1318 q 358 1364 358 1353 q 394 1390 358 1378 q 467 1403 431 1403 q 549 1380 511 1403 q 586 1308 586 1357 q 573 1258 586 1279 q 538 1219 560 1238 q 506 1199 524 1208 q 481 1189 488 1189 m 214 1046 q 194 1051 201 1046 q 188 1064 188 1057 q 194 1090 188 1069 l 261 1213 q 319 1243 279 1243 l 342 1243 q 399 1213 381 1243 l 464 1090 q 474 1067 474 1076 q 467 1051 474 1057 q 447 1046 460 1046 l 419 1046 q 400 1051 410 1046 q 385 1064 390 1056 l 329 1167 l 276 1064 q 261 1049 269 1053 q 240 1046 253 1046 l 214 1046 m 146 0 q 117 10 126 0 q 108 42 108 19 l 108 931 q 117 963 108 953 q 146 972 126 972 l 546 972 q 572 931 572 972 l 572 908 q 546 867 572 867 l 233 867 l 233 550 l 514 550 q 540 508 540 550 l 540 486 q 514 444 540 444 l 233 444 l 233 106 l 546 106 q 566 96 560 106 q 572 64 572 86 l 572 42 q 566 10 572 19 q 546 0 560 0 l 146 0 z "},"Ễ":{"ha":615,"x_min":108,"x_max":572,"o":"m 157 1260 q 144 1276 144 1267 q 149 1294 144 1285 q 192 1368 167 1346 q 253 1390 217 1390 q 291 1383 271 1390 q 342 1361 311 1375 q 414 1335 392 1335 q 439 1343 428 1335 q 461 1371 450 1351 q 486 1392 472 1392 q 500 1388 492 1392 l 508 1383 q 519 1376 515 1381 q 524 1367 524 1372 q 519 1347 524 1360 q 475 1275 500 1297 q 415 1253 450 1253 q 373 1260 394 1253 q 322 1283 351 1268 q 283 1301 303 1293 q 251 1308 264 1308 q 228 1300 238 1308 q 206 1271 218 1292 q 183 1251 194 1251 q 169 1254 181 1251 l 157 1260 m 215 1046 q 189 1065 189 1046 q 199 1090 189 1075 l 261 1182 q 319 1213 285 1213 l 342 1213 q 401 1182 379 1213 l 464 1090 q 475 1065 475 1072 q 467 1051 475 1057 q 447 1046 460 1046 l 421 1046 q 385 1064 399 1046 l 331 1144 l 278 1064 q 240 1046 267 1046 l 215 1046 m 146 0 q 117 10 126 0 q 108 42 108 19 l 108 931 q 117 963 108 953 q 146 972 126 972 l 546 972 q 572 931 572 972 l 572 908 q 546 867 572 867 l 233 867 l 233 550 l 514 550 q 540 508 540 550 l 540 486 q 514 444 540 444 l 233 444 l 233 106 l 546 106 q 566 96 560 106 q 572 64 572 86 l 572 42 q 566 10 572 19 q 546 0 560 0 l 146 0 z "},"Ë":{"ha":635,"x_min":108,"x_max":572,"o":"m 146 0 q 117 10 126 0 q 108 42 108 19 l 108 931 q 117 963 108 953 q 146 972 126 972 l 546 972 q 572 931 572 972 l 572 908 q 546 867 572 867 l 233 867 l 233 550 l 514 550 q 540 508 540 550 l 540 486 q 514 444 540 444 l 233 444 l 233 106 l 546 106 q 566 96 560 106 q 572 64 572 86 l 572 42 q 566 10 572 19 q 546 0 560 0 l 146 0 m 253 1089 q 200 1119 200 1089 l 200 1190 q 256 1221 200 1221 q 308 1190 308 1221 l 308 1119 q 253 1089 308 1089 m 428 1089 q 375 1119 375 1089 l 375 1190 q 431 1221 375 1221 q 483 1190 483 1221 l 483 1119 q 428 1089 483 1089 z "},"Ė":{"ha":635,"x_min":108,"x_max":572,"o":"m 146 0 q 117 10 126 0 q 108 42 108 19 l 108 931 q 117 963 108 953 q 146 972 126 972 l 546 972 q 572 931 572 972 l 572 908 q 546 867 572 867 l 233 867 l 233 550 l 514 550 q 540 508 540 550 l 540 486 q 514 444 540 444 l 233 444 l 233 106 l 546 106 q 566 96 560 106 q 572 64 572 86 l 572 42 q 566 10 572 19 q 546 0 560 0 l 146 0 m 340 1089 q 279 1119 279 1089 l 279 1190 q 343 1221 279 1221 q 404 1190 404 1221 l 404 1119 q 340 1089 404 1089 z "},"Ẹ":{"ha":635,"x_min":108,"x_max":572,"o":"m 146 0 q 117 10 126 0 q 108 42 108 19 l 108 931 q 117 963 108 953 q 146 972 126 972 l 546 972 q 572 931 572 972 l 572 908 q 546 867 572 867 l 233 867 l 233 550 l 514 550 q 540 508 540 550 l 540 486 q 514 444 540 444 l 233 444 l 233 106 l 546 106 q 566 96 560 106 q 572 64 572 86 l 572 42 q 566 10 572 19 q 546 0 560 0 l 146 0 m 346 -243 q 285 -212 285 -243 l 285 -142 q 349 -111 285 -111 q 410 -142 410 -111 l 410 -212 q 346 -243 410 -243 z "},"È":{"ha":635,"x_min":108,"x_max":572,"o":"m 146 0 q 117 10 126 0 q 108 42 108 19 l 108 931 q 117 963 108 953 q 146 972 126 972 l 546 972 q 572 931 572 972 l 572 908 q 546 867 572 867 l 233 867 l 233 550 l 514 550 q 540 508 540 550 l 540 486 q 514 444 540 444 l 233 444 l 233 106 l 546 106 q 566 96 560 106 q 572 64 572 86 l 572 42 q 566 10 572 19 q 546 0 560 0 l 146 0 m 374 1058 q 308 1083 325 1058 q 215 1210 231 1188 q 199 1244 199 1233 q 213 1258 199 1254 q 257 1263 226 1263 q 336 1226 317 1263 l 364 1168 q 392 1104 382 1128 q 403 1072 403 1081 q 397 1062 403 1065 q 374 1058 390 1058 z "},"Ẻ":{"ha":635,"x_min":108,"x_max":572,"o":"m 146 0 q 117 10 126 0 q 108 42 108 19 l 108 931 q 117 963 108 953 q 146 972 126 972 l 546 972 q 572 931 572 972 l 572 908 q 546 867 572 867 l 233 867 l 233 550 l 514 550 q 540 508 540 550 l 540 486 q 514 444 540 444 l 233 444 l 233 106 l 546 106 q 566 96 560 106 q 572 64 572 86 l 572 42 q 566 10 572 19 q 546 0 560 0 l 146 0 m 350 1028 q 322 1035 339 1028 q 304 1051 304 1043 q 312 1072 304 1064 q 339 1097 319 1081 q 376 1135 363 1117 q 390 1179 390 1153 q 376 1207 390 1197 q 339 1217 361 1217 q 294 1208 308 1217 q 275 1199 279 1199 q 254 1216 267 1199 q 242 1244 242 1233 q 278 1273 242 1258 q 350 1288 314 1288 q 436 1264 396 1288 q 476 1189 476 1240 q 451 1111 476 1147 q 393 1051 425 1075 q 350 1028 361 1028 z "},"Ē":{"ha":635,"x_min":108,"x_max":572,"o":"m 146 0 q 117 10 126 0 q 108 42 108 19 l 108 931 q 117 963 108 953 q 146 972 126 972 l 546 972 q 572 931 572 972 l 572 908 q 546 867 572 867 l 233 867 l 233 550 l 514 550 q 540 508 540 550 l 540 486 q 514 444 540 444 l 233 444 l 233 106 l 546 106 q 566 96 560 106 q 572 64 572 86 l 572 42 q 566 10 572 19 q 546 0 560 0 l 146 0 m 207 1096 q 181 1138 181 1096 l 181 1151 q 207 1193 181 1193 l 483 1193 q 503 1183 497 1193 q 510 1151 510 1174 l 510 1138 q 503 1106 510 1115 q 483 1096 497 1096 l 207 1096 z "},"Ę":{"ha":635,"x_min":108,"x_max":686,"o":"m 658 -149 q 686 -182 686 -149 q 668 -219 686 -207 q 576 -246 629 -246 q 475 -206 501 -246 q 449 -124 449 -167 q 457 -65 449 -99 q 483 0 465 -32 l 146 0 q 117 10 126 0 q 108 42 108 19 l 108 931 q 117 963 108 953 q 146 972 126 972 l 546 972 q 572 931 572 972 l 572 908 q 546 867 572 867 l 233 867 l 233 550 l 514 550 q 540 508 540 550 l 540 486 q 514 444 540 444 l 233 444 l 233 106 l 546 106 q 566 96 560 106 q 572 64 572 86 l 572 42 q 568 14 572 25 l 569 14 q 542 -46 551 -15 q 533 -99 533 -76 q 603 -158 533 -158 q 633 -153 614 -158 q 658 -149 653 -149 z "},"Ẽ":{"ha":635,"x_min":108,"x_max":572,"o":"m 146 0 q 117 10 126 0 q 108 42 108 19 l 108 931 q 117 963 108 953 q 146 972 126 972 l 546 972 q 572 931 572 972 l 572 908 q 546 867 572 867 l 233 867 l 233 550 l 514 550 q 540 508 540 550 l 540 486 q 514 444 540 444 l 233 444 l 233 106 l 546 106 q 566 96 560 106 q 572 64 572 86 l 572 42 q 566 10 572 19 q 546 0 560 0 l 146 0 m 150 1074 q 136 1090 136 1079 q 140 1108 136 1099 q 188 1182 161 1160 q 256 1204 215 1204 q 297 1197 276 1204 q 351 1175 317 1190 q 432 1149 407 1149 q 459 1156 447 1149 q 485 1185 471 1164 q 511 1206 496 1206 q 526 1201 518 1206 l 536 1197 q 549 1190 546 1193 q 553 1181 553 1186 q 547 1161 553 1172 q 499 1088 526 1110 q 433 1067 472 1067 q 388 1074 411 1067 q 332 1097 364 1082 q 290 1115 311 1107 q 253 1122 268 1122 q 228 1114 239 1122 q 203 1085 217 1106 q 179 1065 192 1065 q 164 1068 175 1065 l 150 1074 z "},"F":{"ha":588,"x_min":108,"x_max":533,"o":"m 161 -3 q 108 28 108 -3 l 108 931 q 117 963 108 953 q 146 972 126 972 l 507 972 q 533 931 533 972 l 533 908 q 507 867 533 867 l 233 867 l 233 550 l 483 550 q 510 508 510 550 l 510 486 q 483 444 510 444 l 233 444 l 233 28 q 181 -3 233 -3 l 161 -3 z "},"G":{"ha":767,"x_min":68,"x_max":672,"o":"m 635 531 q 672 489 672 531 l 672 92 q 596 15 672 39 q 419 -8 519 -8 q 68 478 68 -8 q 160 857 68 733 q 432 981 251 981 q 535 967 483 981 q 620 933 586 953 q 654 894 654 913 q 636 844 654 875 q 604 814 618 814 q 575 830 600 814 q 515 858 550 846 q 433 871 479 871 q 253 774 308 871 q 197 490 197 678 q 250 206 197 314 q 424 97 303 97 q 547 115 497 97 l 547 425 l 429 425 q 408 435 415 425 q 401 467 401 444 l 401 489 q 408 521 401 511 q 429 531 415 531 l 635 531 z "},"Ğ":{"ha":767,"x_min":68,"x_max":672,"o":"m 635 531 q 672 489 672 531 l 672 92 q 596 15 672 39 q 419 -8 519 -8 q 68 478 68 -8 q 160 857 68 733 q 432 981 251 981 q 535 967 483 981 q 620 933 586 953 q 654 894 654 913 q 636 844 654 875 q 604 814 618 814 q 575 830 600 814 q 515 858 550 846 q 433 871 479 871 q 253 774 308 871 q 197 490 197 678 q 250 206 197 314 q 424 97 303 97 q 547 115 497 97 l 547 425 l 429 425 q 408 435 415 425 q 401 467 401 444 l 401 489 q 408 521 401 511 q 429 531 415 531 l 635 531 m 406 1058 q 290 1100 336 1058 q 243 1218 243 1142 q 268 1239 243 1239 q 283 1234 278 1239 q 291 1219 288 1229 q 297 1204 294 1210 q 406 1150 318 1150 q 514 1204 493 1150 q 519 1219 515 1208 q 528 1235 524 1231 q 542 1239 533 1239 q 567 1218 567 1239 q 520 1100 567 1142 q 406 1058 474 1058 z "},"Ĝ":{"ha":767,"x_min":68,"x_max":672,"o":"m 635 531 q 672 489 672 531 l 672 92 q 596 15 672 39 q 419 -8 519 -8 q 68 478 68 -8 q 160 857 68 733 q 432 981 251 981 q 535 967 483 981 q 620 933 586 953 q 654 894 654 913 q 636 844 654 875 q 604 814 618 814 q 575 830 600 814 q 515 858 550 846 q 433 871 479 871 q 253 774 308 871 q 197 490 197 678 q 250 206 197 314 q 424 97 303 97 q 547 115 497 97 l 547 425 l 429 425 q 408 435 415 425 q 401 467 401 444 l 401 489 q 408 521 401 511 q 429 531 415 531 l 635 531 m 281 1046 q 261 1051 268 1046 q 254 1064 254 1057 q 264 1090 254 1071 l 336 1213 q 394 1243 356 1243 l 415 1243 q 472 1213 453 1243 l 547 1090 q 556 1067 556 1074 q 549 1051 556 1057 q 529 1046 542 1046 l 501 1046 q 467 1065 479 1046 l 404 1167 l 343 1065 q 307 1046 328 1046 l 281 1046 z "},"Ģ":{"ha":767,"x_min":68,"x_max":672,"o":"m 635 531 q 672 489 672 531 l 672 92 q 596 15 672 39 q 419 -8 519 -8 q 68 478 68 -8 q 160 857 68 733 q 432 981 251 981 q 535 967 483 981 q 620 933 586 953 q 654 894 654 913 q 636 844 654 875 q 604 814 618 814 q 575 830 600 814 q 515 858 550 846 q 433 871 479 871 q 253 774 308 871 q 197 490 197 678 q 250 206 197 314 q 424 97 303 97 q 547 115 497 97 l 547 425 l 429 425 q 408 435 415 425 q 401 467 401 444 l 401 489 q 408 521 401 511 q 429 531 415 531 l 635 531 m 371 -326 q 344 -322 356 -326 q 332 -306 332 -317 q 337 -283 332 -297 q 343 -262 342 -268 q 365 -193 357 -226 q 372 -115 372 -160 q 385 -83 372 -94 q 425 -71 399 -71 l 439 -71 q 475 -81 463 -71 q 488 -110 488 -92 q 467 -222 488 -172 q 419 -299 447 -271 q 371 -326 392 -326 z "},"Ġ":{"ha":767,"x_min":68,"x_max":672,"o":"m 635 531 q 672 489 672 531 l 672 92 q 596 15 672 39 q 419 -8 519 -8 q 68 478 68 -8 q 160 857 68 733 q 432 981 251 981 q 535 967 483 981 q 620 933 586 953 q 654 894 654 913 q 636 844 654 875 q 604 814 618 814 q 575 830 600 814 q 515 858 550 846 q 433 871 479 871 q 253 774 308 871 q 197 490 197 678 q 250 206 197 314 q 424 97 303 97 q 547 115 497 97 l 547 425 l 429 425 q 408 435 415 425 q 401 467 401 444 l 401 489 q 408 521 401 511 q 429 531 415 531 l 635 531 m 406 1089 q 344 1119 344 1089 l 344 1190 q 408 1221 344 1221 q 469 1190 469 1221 l 469 1119 q 406 1089 469 1089 z "},"H":{"ha":835,"x_min":108,"x_max":724,"o":"m 161 -3 q 108 28 108 -3 l 108 944 q 161 975 108 975 l 182 975 q 233 944 233 975 l 233 551 l 599 551 l 599 944 q 651 975 599 975 l 671 975 q 724 944 724 975 l 724 28 q 671 -3 724 -3 l 651 -3 q 599 28 599 -3 l 599 446 l 233 446 l 233 28 q 182 -3 233 -3 l 161 -3 z "},"Ħ":{"ha":814,"x_min":49,"x_max":763,"o":"m 736 779 q 763 738 763 779 l 763 724 q 736 682 763 682 l 724 682 l 724 28 q 671 -3 724 -3 l 651 -3 q 599 28 599 -3 l 599 446 l 233 446 l 233 28 q 182 -3 233 -3 l 161 -3 q 108 28 108 -3 l 108 682 l 75 682 q 55 692 61 682 q 49 724 49 701 l 49 738 q 55 769 49 760 q 75 779 61 779 l 108 779 l 108 944 q 161 975 108 975 l 182 975 q 233 944 233 975 l 233 779 l 599 779 l 599 944 q 651 975 599 975 l 671 975 q 724 944 724 975 l 724 779 l 736 779 m 599 551 l 599 682 l 233 682 l 233 551 l 599 551 z "},"Ĥ":{"ha":835,"x_min":108,"x_max":724,"o":"m 161 -3 q 108 28 108 -3 l 108 944 q 161 975 108 975 l 182 975 q 233 944 233 975 l 233 551 l 599 551 l 599 944 q 651 975 599 975 l 671 975 q 724 944 724 975 l 724 28 q 671 -3 724 -3 l 651 -3 q 599 28 599 -3 l 599 446 l 233 446 l 233 28 q 182 -3 233 -3 l 161 -3 m 292 1046 q 272 1051 279 1046 q 265 1064 265 1057 q 275 1090 265 1071 l 347 1213 q 406 1243 367 1243 l 426 1243 q 483 1213 464 1243 l 558 1090 q 567 1067 567 1074 q 560 1051 567 1057 q 540 1046 553 1046 l 513 1046 q 478 1065 490 1046 l 415 1167 l 354 1065 q 318 1046 339 1046 l 292 1046 z "},"Ḥ":{"ha":835,"x_min":108,"x_max":724,"o":"m 161 -3 q 108 28 108 -3 l 108 944 q 161 975 108 975 l 182 975 q 233 944 233 975 l 233 551 l 599 551 l 599 944 q 651 975 599 975 l 671 975 q 724 944 724 975 l 724 28 q 671 -3 724 -3 l 651 -3 q 599 28 599 -3 l 599 446 l 233 446 l 233 28 q 182 -3 233 -3 l 161 -3 m 419 -243 q 358 -212 358 -243 l 358 -142 q 422 -111 358 -111 q 483 -142 483 -111 l 483 -212 q 419 -243 483 -243 z "},"I":{"ha":364,"x_min":119,"x_max":244,"o":"m 172 -3 q 119 28 119 -3 l 119 944 q 172 975 119 975 l 193 975 q 244 944 244 975 l 244 28 q 193 -3 244 -3 l 172 -3 z "},"Ĳ":{"ha":857,"x_min":119,"x_max":746,"o":"m 172 -3 q 119 28 119 -3 l 119 944 q 172 975 119 975 l 193 975 q 244 944 244 975 l 244 28 q 193 -3 244 -3 l 172 -3 m 501 -8 q 417 3 457 -8 q 376 36 376 15 q 386 83 376 54 q 408 113 396 113 q 440 106 417 113 q 488 100 464 100 q 588 140 557 100 q 619 271 619 181 l 619 944 q 672 975 619 975 l 692 975 q 746 944 746 975 l 746 285 q 687 69 746 147 q 501 -8 628 -8 z "},"Í":{"ha":364,"x_min":119,"x_max":347,"o":"m 172 -3 q 119 28 119 -3 l 119 944 q 172 975 119 975 l 193 975 q 244 944 244 975 l 244 28 q 193 -3 244 -3 l 172 -3 m 172 1058 q 143 1072 143 1058 q 160 1119 143 1082 q 211 1226 178 1157 q 289 1263 228 1263 q 333 1258 319 1263 q 347 1244 347 1254 q 335 1218 347 1236 q 297 1164 322 1200 l 239 1083 q 172 1058 222 1058 z "},"Ĭ":{"ha":364,"x_min":19,"x_max":343,"o":"m 172 -3 q 119 28 119 -3 l 119 944 q 172 975 119 975 l 193 975 q 244 944 244 975 l 244 28 q 193 -3 244 -3 l 172 -3 m 182 1058 q 66 1100 113 1058 q 19 1218 19 1142 q 44 1239 19 1239 q 59 1234 54 1239 q 67 1219 64 1229 q 74 1204 71 1210 q 182 1150 94 1150 q 290 1204 269 1150 q 296 1219 292 1208 q 305 1235 300 1231 q 318 1239 310 1239 q 343 1218 343 1239 q 297 1100 343 1142 q 182 1058 250 1058 z "},"Î":{"ha":364,"x_min":31,"x_max":332,"o":"m 172 -3 q 119 28 119 -3 l 119 944 q 172 975 119 975 l 193 975 q 244 944 244 975 l 244 28 q 193 -3 244 -3 l 172 -3 m 57 1046 q 38 1051 44 1046 q 31 1064 31 1057 q 40 1090 31 1071 l 113 1213 q 171 1243 132 1243 l 192 1243 q 249 1213 229 1243 l 324 1090 q 332 1067 332 1074 q 325 1051 332 1057 q 306 1046 318 1046 l 278 1046 q 243 1065 256 1046 l 181 1167 l 119 1065 q 83 1046 104 1046 l 57 1046 z "},"Ï":{"ha":364,"x_min":42,"x_max":325,"o":"m 172 -3 q 119 28 119 -3 l 119 944 q 172 975 119 975 l 193 975 q 244 944 244 975 l 244 28 q 193 -3 244 -3 l 172 -3 m 94 1089 q 42 1119 42 1089 l 42 1190 q 97 1221 42 1221 q 150 1190 150 1221 l 150 1119 q 94 1089 150 1089 m 269 1089 q 217 1119 217 1089 l 217 1190 q 272 1221 217 1221 q 325 1190 325 1221 l 325 1119 q 269 1089 325 1089 z "},"İ":{"ha":364,"x_min":119,"x_max":246,"o":"m 172 -3 q 119 28 119 -3 l 119 944 q 172 975 119 975 l 193 975 q 244 944 244 975 l 244 28 q 193 -3 244 -3 l 172 -3 m 182 1089 q 121 1119 121 1089 l 121 1190 q 185 1221 121 1221 q 246 1190 246 1221 l 246 1119 q 182 1089 246 1089 z "},"Ị":{"ha":364,"x_min":119,"x_max":247,"o":"m 172 -3 q 119 28 119 -3 l 119 944 q 172 975 119 975 l 193 975 q 244 944 244 975 l 244 28 q 193 -3 244 -3 l 172 -3 m 183 -243 q 122 -212 122 -243 l 122 -142 q 186 -111 122 -111 q 247 -142 247 -111 l 247 -212 q 183 -243 247 -243 z "},"Ì":{"ha":364,"x_min":40,"x_max":244,"o":"m 172 -3 q 119 28 119 -3 l 119 944 q 172 975 119 975 l 193 975 q 244 944 244 975 l 244 28 q 193 -3 244 -3 l 172 -3 m 215 1058 q 150 1083 167 1058 q 56 1210 72 1188 q 40 1244 40 1233 q 54 1258 40 1254 q 99 1263 68 1263 q 178 1226 158 1263 l 206 1168 q 234 1104 224 1128 q 244 1072 244 1081 q 238 1062 244 1065 q 215 1058 232 1058 z "},"Ỉ":{"ha":364,"x_min":83,"x_max":318,"o":"m 172 -3 q 119 28 119 -3 l 119 944 q 172 975 119 975 l 193 975 q 244 944 244 975 l 244 28 q 193 -3 244 -3 l 172 -3 m 192 1028 q 163 1035 181 1028 q 146 1051 146 1043 q 153 1072 146 1064 q 181 1097 161 1081 q 218 1135 204 1117 q 232 1179 232 1153 q 217 1207 232 1197 q 181 1217 203 1217 q 135 1208 150 1217 q 117 1199 121 1199 q 96 1216 108 1199 q 83 1244 83 1233 q 119 1273 83 1258 q 192 1288 156 1288 q 278 1264 238 1288 q 318 1189 318 1240 q 292 1111 318 1147 q 235 1051 267 1075 q 192 1028 203 1028 z "},"Ī":{"ha":364,"x_min":22,"x_max":351,"o":"m 172 -3 q 119 28 119 -3 l 119 944 q 172 975 119 975 l 193 975 q 244 944 244 975 l 244 28 q 193 -3 244 -3 l 172 -3 m 49 1096 q 22 1138 22 1096 l 22 1151 q 49 1193 22 1193 l 325 1193 q 345 1183 339 1193 q 351 1151 351 1174 l 351 1138 q 345 1106 351 1115 q 325 1096 339 1096 l 49 1096 z "},"Į":{"ha":364,"x_min":119,"x_max":358,"o":"m 331 -147 q 358 -181 358 -147 q 340 -218 358 -206 q 249 -244 301 -244 q 147 -205 174 -244 q 121 -122 121 -165 q 129 -65 121 -97 q 154 -1 138 -32 q 119 28 119 3 l 119 944 q 172 975 119 975 l 193 975 q 244 944 244 975 l 244 28 q 240 13 244 19 q 215 -47 224 -17 q 206 -97 206 -76 q 275 -157 206 -157 q 306 -152 286 -157 q 331 -147 325 -147 z "},"Ĩ":{"ha":364,"x_min":-22,"x_max":394,"o":"m 172 -3 q 119 28 119 -3 l 119 944 q 172 975 119 975 l 193 975 q 244 944 244 975 l 244 28 q 193 -3 244 -3 l 172 -3 m -8 1074 q -22 1090 -22 1079 q -18 1108 -22 1099 q 30 1182 3 1160 q 97 1204 57 1204 q 138 1197 118 1204 q 193 1175 158 1190 q 274 1149 249 1149 q 301 1156 289 1149 q 326 1185 313 1164 q 353 1206 338 1206 q 368 1201 360 1206 l 378 1197 q 391 1190 388 1193 q 394 1181 394 1186 q 389 1161 394 1172 q 341 1088 368 1110 q 275 1067 314 1067 q 229 1074 253 1067 q 174 1097 206 1082 q 131 1115 153 1107 q 94 1122 110 1122 q 69 1114 81 1122 q 44 1085 58 1106 q 21 1065 33 1065 q 6 1068 17 1065 l -8 1074 z "},"J":{"ha":493,"x_min":13,"x_max":382,"o":"m 138 -8 q 53 3 93 -8 q 13 36 13 15 q 22 83 13 54 q 44 113 32 113 q 76 106 53 113 q 124 100 100 100 q 224 140 193 100 q 256 271 256 181 l 256 944 q 308 975 256 975 l 328 975 q 382 944 382 975 l 382 285 q 323 69 382 147 q 138 -8 264 -8 z "},"Ĵ":{"ha":493,"x_min":13,"x_max":467,"o":"m 138 -8 q 53 3 93 -8 q 13 36 13 15 q 22 83 13 54 q 44 113 32 113 q 76 106 53 113 q 124 100 100 100 q 224 140 193 100 q 256 271 256 181 l 256 944 q 308 975 256 975 l 328 975 q 382 944 382 975 l 382 285 q 323 69 382 147 q 138 -8 264 -8 m 192 1046 q 172 1051 179 1046 q 165 1064 165 1057 q 175 1090 165 1071 l 247 1213 q 306 1243 267 1243 l 326 1243 q 383 1213 364 1243 l 458 1090 q 467 1067 467 1074 q 460 1051 467 1057 q 440 1046 453 1046 l 413 1046 q 378 1065 390 1046 l 315 1167 l 254 1065 q 218 1046 239 1046 l 192 1046 z "},"K":{"ha":708,"x_min":114,"x_max":699,"o":"m 689 39 q 699 17 699 26 q 686 1 699 6 q 643 -3 674 -3 l 614 -3 q 571 0 586 -3 q 547 15 556 3 l 243 468 l 239 468 l 239 28 q 185 -3 239 -3 l 167 -3 q 114 28 114 -3 l 114 944 q 167 975 114 975 l 185 975 q 239 944 239 975 l 239 511 l 243 511 l 538 956 q 603 975 550 975 l 626 975 q 663 970 650 975 q 675 957 675 965 q 663 929 675 946 l 364 496 l 689 39 z "},"Ķ":{"ha":708,"x_min":114,"x_max":699,"o":"m 689 39 q 699 17 699 26 q 686 1 699 6 q 643 -3 674 -3 l 614 -3 q 571 0 586 -3 q 547 15 556 3 l 243 468 l 239 468 l 239 28 q 185 -3 239 -3 l 167 -3 q 114 28 114 -3 l 114 944 q 167 975 114 975 l 185 975 q 239 944 239 975 l 239 511 l 243 511 l 538 956 q 603 975 550 975 l 626 975 q 663 970 650 975 q 675 957 675 965 q 663 929 675 946 l 364 496 l 689 39 m 299 -326 q 272 -322 283 -326 q 260 -306 260 -317 q 265 -283 260 -297 q 271 -262 269 -268 q 292 -193 285 -226 q 300 -115 300 -160 q 313 -83 300 -94 q 353 -71 326 -71 l 367 -71 q 403 -81 390 -71 q 415 -110 415 -92 q 395 -222 415 -172 q 347 -299 375 -271 q 299 -326 319 -326 z "},"L":{"ha":567,"x_min":108,"x_max":550,"o":"m 146 0 q 117 10 126 0 q 108 42 108 19 l 108 944 q 161 975 108 975 l 181 975 q 233 944 233 975 l 233 106 l 522 106 q 544 96 538 106 q 550 64 550 86 l 550 42 q 544 10 550 19 q 522 0 538 0 l 146 0 z "},"Ǉ":{"ha":886,"x_min":99,"x_max":792,"o":"m 136 0 q 108 10 117 0 q 99 42 99 19 l 99 944 q 151 975 99 975 l 171 975 q 224 944 224 975 l 224 106 l 468 106 q 490 96 483 106 q 496 64 496 86 l 496 42 q 490 10 496 19 q 468 0 483 0 l 136 0 m 547 -218 q 463 -206 504 -218 q 422 -174 422 -193 q 432 -126 422 -156 q 454 -97 442 -97 q 486 -103 463 -97 q 533 -110 510 -110 q 634 -69 603 -110 q 665 61 665 -29 l 665 944 q 718 975 665 975 l 738 975 q 792 944 792 975 l 792 75 q 733 -140 792 -62 q 547 -218 674 -218 z "},"Ĺ":{"ha":567,"x_min":108,"x_max":550,"o":"m 146 0 q 117 10 126 0 q 108 42 108 19 l 108 944 q 161 975 108 975 l 181 975 q 233 944 233 975 l 233 106 l 522 106 q 544 96 538 106 q 550 64 550 86 l 550 42 q 544 10 550 19 q 522 0 538 0 l 146 0 m 164 1061 q 135 1075 135 1061 q 152 1122 135 1085 q 203 1229 169 1160 q 281 1265 219 1265 q 325 1261 311 1265 q 339 1247 339 1257 q 326 1221 339 1239 q 289 1167 314 1203 l 231 1086 q 164 1061 214 1061 z "},"Ľ":{"ha":567,"x_min":108,"x_max":550,"o":"m 146 0 q 117 10 126 0 q 108 42 108 19 l 108 944 q 161 975 108 975 l 181 975 q 233 944 233 975 l 233 106 l 522 106 q 544 96 538 106 q 550 64 550 86 l 550 42 q 544 10 550 19 q 522 0 538 0 l 146 0 m 382 731 q 354 735 367 731 q 342 751 342 740 q 347 790 342 760 q 360 928 360 860 q 374 960 360 949 q 415 972 388 972 l 428 972 q 469 962 454 972 q 483 933 483 951 q 466 828 483 875 q 424 756 449 782 q 382 731 400 731 z "},"Ļ":{"ha":567,"x_min":108,"x_max":550,"o":"m 146 0 q 117 10 126 0 q 108 42 108 19 l 108 944 q 161 975 108 975 l 181 975 q 233 944 233 975 l 233 106 l 522 106 q 544 96 538 106 q 550 64 550 86 l 550 42 q 544 10 550 19 q 522 0 538 0 l 146 0 m 267 -326 q 240 -322 251 -326 q 228 -306 228 -317 q 233 -283 228 -297 q 239 -262 238 -268 q 260 -193 253 -226 q 268 -115 268 -160 q 281 -83 268 -94 q 321 -71 294 -71 l 335 -71 q 371 -81 358 -71 q 383 -110 383 -92 q 363 -222 383 -172 q 315 -299 343 -271 q 267 -326 288 -326 z "},"Ŀ":{"ha":567,"x_min":108,"x_max":550,"o":"m 146 0 q 117 10 126 0 q 108 42 108 19 l 108 944 q 161 975 108 975 l 181 975 q 233 944 233 975 l 233 106 l 522 106 q 544 96 538 106 q 550 64 550 86 l 550 42 q 544 10 550 19 q 522 0 538 0 l 146 0 m 403 429 q 354 449 374 429 q 335 500 335 468 q 354 553 335 533 q 403 572 374 572 q 453 553 433 572 q 472 500 472 533 q 453 449 472 468 q 403 429 433 429 z "},"ǈ":{"ha":913,"x_min":108,"x_max":807,"o":"m 146 0 q 117 10 126 0 q 108 42 108 19 l 108 944 q 161 975 108 975 l 181 975 q 233 944 233 975 l 233 106 l 522 106 q 544 96 538 106 q 550 64 550 86 l 550 42 q 544 10 550 19 q 522 0 538 0 l 146 0 m 650 -294 q 553 -253 553 -294 q 561 -213 553 -239 q 582 -187 569 -187 q 599 -191 588 -187 q 632 -194 610 -194 q 685 -100 685 -194 l 685 699 q 740 729 685 729 l 746 729 q 801 699 801 729 l 801 -111 q 755 -254 801 -214 q 650 -294 708 -294 m 743 843 q 682 874 682 843 l 682 944 q 746 975 682 975 q 807 944 807 975 l 807 874 q 743 843 807 843 z "},"Ł":{"ha":567,"x_min":19,"x_max":550,"o":"m 522 106 q 544 96 538 106 q 550 64 550 86 l 550 42 q 544 10 550 19 q 522 0 538 0 l 146 0 q 117 10 126 0 q 108 42 108 19 l 108 465 l 46 428 q 32 422 35 422 q 23 427 26 422 q 19 442 19 432 l 19 450 q 46 492 19 476 l 108 529 l 108 944 q 161 975 108 975 l 181 975 q 233 944 233 975 l 233 603 l 361 679 q 375 685 372 685 q 384 680 381 685 q 388 665 388 675 l 388 657 q 361 615 388 631 l 233 539 l 233 106 l 522 106 z "},"M":{"ha":957,"x_min":101,"x_max":860,"o":"m 457 332 q 426 350 435 332 l 264 669 q 222 765 244 708 l 217 763 q 224 664 224 707 l 224 28 q 171 -3 224 -3 l 154 -3 q 101 28 101 -3 l 101 944 q 154 975 101 975 l 183 975 q 236 950 224 975 l 458 515 q 481 449 474 485 q 503 515 488 485 l 725 950 q 778 975 738 975 l 807 975 q 860 944 860 975 l 860 28 q 807 -3 860 -3 l 790 -3 q 738 28 738 -3 l 738 664 q 744 763 738 707 l 739 765 q 697 669 717 708 l 535 350 q 504 332 526 332 l 457 332 z "},"N":{"ha":819,"x_min":101,"x_max":718,"o":"m 154 -3 q 101 28 101 -3 l 101 944 q 154 975 101 975 l 188 975 q 221 969 208 975 q 242 947 233 963 l 564 326 q 600 239 583 290 l 607 242 q 596 333 596 290 l 596 944 q 649 975 596 975 l 665 975 q 718 944 718 975 l 718 28 q 665 -3 718 -3 l 636 -3 q 586 18 597 -3 l 256 660 q 219 747 236 696 l 213 744 q 224 653 224 696 l 224 28 q 171 -3 224 -3 l 154 -3 z "},"Ǌ":{"ha":1313,"x_min":101,"x_max":1201,"o":"m 154 -3 q 101 28 101 -3 l 101 944 q 154 975 101 975 l 188 975 q 221 969 208 975 q 242 947 233 963 l 564 326 q 600 239 583 290 l 607 242 q 596 333 596 290 l 596 944 q 649 975 596 975 l 665 975 q 718 944 718 975 l 718 28 q 665 -3 718 -3 l 636 -3 q 586 18 597 -3 l 256 660 q 219 747 236 696 l 213 744 q 224 653 224 696 l 224 28 q 171 -3 224 -3 l 154 -3 m 957 -8 q 872 3 913 -8 q 832 36 832 15 q 842 83 832 54 q 864 113 851 113 q 896 106 872 113 q 943 100 919 100 q 1044 140 1013 100 q 1075 271 1075 181 l 1075 944 q 1128 975 1075 975 l 1147 975 q 1201 944 1201 975 l 1201 285 q 1142 69 1201 147 q 957 -8 1083 -8 z "},"Ń":{"ha":819,"x_min":101,"x_max":718,"o":"m 154 -3 q 101 28 101 -3 l 101 944 q 154 975 101 975 l 188 975 q 221 969 208 975 q 242 947 233 963 l 564 326 q 600 239 583 290 l 607 242 q 596 333 596 290 l 596 944 q 649 975 596 975 l 665 975 q 718 944 718 975 l 718 28 q 665 -3 718 -3 l 636 -3 q 586 18 597 -3 l 256 660 q 219 747 236 696 l 213 744 q 224 653 224 696 l 224 28 q 171 -3 224 -3 l 154 -3 m 400 1058 q 371 1072 371 1058 q 388 1119 371 1082 q 439 1226 406 1157 q 517 1263 456 1263 q 561 1258 547 1263 q 575 1244 575 1254 q 563 1218 575 1236 q 525 1164 550 1200 l 467 1083 q 400 1058 450 1058 z "},"Ň":{"ha":819,"x_min":101,"x_max":718,"o":"m 154 -3 q 101 28 101 -3 l 101 944 q 154 975 101 975 l 188 975 q 221 969 208 975 q 242 947 233 963 l 564 326 q 600 239 583 290 l 607 242 q 596 333 596 290 l 596 944 q 649 975 596 975 l 665 975 q 718 944 718 975 l 718 28 q 665 -3 718 -3 l 636 -3 q 586 18 597 -3 l 256 660 q 219 747 236 696 l 213 744 q 224 653 224 696 l 224 28 q 171 -3 224 -3 l 154 -3 m 400 1056 q 342 1086 360 1056 l 269 1208 q 260 1233 260 1225 q 267 1247 260 1242 q 286 1253 274 1253 l 313 1253 q 349 1232 335 1253 l 410 1132 l 472 1232 q 507 1253 485 1253 l 535 1253 q 554 1247 547 1253 q 561 1232 561 1242 q 553 1208 561 1225 l 478 1086 q 421 1056 460 1056 l 400 1056 z "},"Ņ":{"ha":819,"x_min":101,"x_max":718,"o":"m 154 -3 q 101 28 101 -3 l 101 944 q 154 975 101 975 l 188 975 q 221 969 208 975 q 242 947 233 963 l 564 326 q 600 239 583 290 l 607 242 q 596 333 596 290 l 596 944 q 649 975 596 975 l 665 975 q 718 944 718 975 l 718 28 q 665 -3 718 -3 l 636 -3 q 586 18 597 -3 l 256 660 q 219 747 236 696 l 213 744 q 224 653 224 696 l 224 28 q 171 -3 224 -3 l 154 -3 m 349 -326 q 322 -322 333 -326 q 310 -306 310 -317 q 315 -283 310 -297 q 321 -262 319 -268 q 342 -193 335 -226 q 350 -115 350 -160 q 363 -83 350 -94 q 403 -71 376 -71 l 417 -71 q 453 -81 440 -71 q 465 -110 465 -92 q 445 -222 465 -172 q 397 -299 425 -271 q 349 -326 369 -326 z "},"Ṅ":{"ha":819,"x_min":101,"x_max":718,"o":"m 154 -3 q 101 28 101 -3 l 101 944 q 154 975 101 975 l 188 975 q 221 969 208 975 q 242 947 233 963 l 564 326 q 600 239 583 290 l 607 242 q 596 333 596 290 l 596 944 q 649 975 596 975 l 665 975 q 718 944 718 975 l 718 28 q 665 -3 718 -3 l 636 -3 q 586 18 597 -3 l 256 660 q 219 747 236 696 l 213 744 q 224 653 224 696 l 224 28 q 171 -3 224 -3 l 154 -3 m 410 1089 q 349 1119 349 1089 l 349 1190 q 413 1221 349 1221 q 474 1190 474 1221 l 474 1119 q 410 1089 474 1089 z "},"Ŋ":{"ha":819,"x_min":101,"x_max":718,"o":"m 665 975 q 718 944 718 975 l 718 -111 q 672 -254 718 -214 q 567 -294 625 -294 q 469 -253 469 -294 q 478 -213 469 -239 q 499 -187 486 -187 q 515 -191 504 -187 q 549 -194 526 -194 q 601 -100 601 -194 l 601 -12 l 256 660 q 219 747 236 696 l 213 744 q 224 653 224 696 l 224 28 q 171 -3 224 -3 l 154 -3 q 101 28 101 -3 l 101 944 q 154 975 101 975 l 188 975 q 221 969 208 975 q 242 947 233 963 l 564 326 q 600 239 583 290 l 607 242 q 596 333 596 290 l 596 944 q 649 975 596 975 l 665 975 z "},"ǋ":{"ha":1165,"x_min":101,"x_max":1060,"o":"m 154 -3 q 101 28 101 -3 l 101 944 q 154 975 101 975 l 188 975 q 221 969 208 975 q 242 947 233 963 l 564 326 q 600 239 583 290 l 607 242 q 596 333 596 290 l 596 944 q 649 975 596 975 l 665 975 q 718 944 718 975 l 718 28 q 665 -3 718 -3 l 636 -3 q 586 18 597 -3 l 256 660 q 219 747 236 696 l 213 744 q 224 653 224 696 l 224 28 q 171 -3 224 -3 l 154 -3 m 903 -294 q 806 -253 806 -294 q 814 -213 806 -239 q 835 -187 822 -187 q 851 -191 840 -187 q 885 -194 863 -194 q 938 -100 938 -194 l 938 699 q 993 729 938 729 l 999 729 q 1054 699 1054 729 l 1054 -111 q 1008 -254 1054 -214 q 903 -294 961 -294 m 996 843 q 935 874 935 843 l 935 944 q 999 975 935 975 q 1060 944 1060 975 l 1060 874 q 996 843 1060 843 z "},"Ñ":{"ha":819,"x_min":101,"x_max":718,"o":"m 154 -3 q 101 28 101 -3 l 101 944 q 154 975 101 975 l 188 975 q 221 969 208 975 q 242 947 233 963 l 564 326 q 600 239 583 290 l 607 242 q 596 333 596 290 l 596 944 q 649 975 596 975 l 665 975 q 718 944 718 975 l 718 28 q 665 -3 718 -3 l 636 -3 q 586 18 597 -3 l 256 660 q 219 747 236 696 l 213 744 q 224 653 224 696 l 224 28 q 171 -3 224 -3 l 154 -3 m 219 1074 q 206 1090 206 1079 q 210 1108 206 1099 q 258 1182 231 1160 q 325 1204 285 1204 q 366 1197 346 1204 q 421 1175 386 1190 q 501 1149 476 1149 q 528 1156 517 1149 q 554 1185 540 1164 q 581 1206 565 1206 q 596 1201 588 1206 l 606 1197 q 619 1190 615 1193 q 622 1181 622 1186 q 617 1161 622 1172 q 569 1088 596 1110 q 503 1067 542 1067 q 457 1074 481 1067 q 401 1097 433 1082 q 359 1115 381 1107 q 322 1122 338 1122 q 297 1114 308 1122 q 272 1085 286 1106 q 249 1065 261 1065 q 233 1068 244 1065 l 219 1074 z "},"O":{"ha":832,"x_min":68,"x_max":764,"o":"m 415 -8 q 157 115 246 -8 q 68 489 68 239 q 415 981 68 981 q 764 489 764 981 q 675 115 764 239 q 415 -8 586 -8 m 417 97 q 636 489 636 97 q 417 875 636 875 q 252 781 307 875 q 197 489 197 688 q 417 97 197 97 z "},"Ó":{"ha":832,"x_min":68,"x_max":764,"o":"m 415 -8 q 157 115 246 -8 q 68 489 68 239 q 415 981 68 981 q 764 489 764 981 q 675 115 764 239 q 415 -8 586 -8 m 417 97 q 636 489 636 97 q 417 875 636 875 q 252 781 307 875 q 197 489 197 688 q 417 97 197 97 m 407 1058 q 378 1072 378 1058 q 395 1119 378 1082 q 446 1226 413 1157 q 524 1263 463 1263 q 568 1258 554 1263 q 582 1244 582 1254 q 569 1218 582 1236 q 532 1164 557 1200 l 474 1083 q 407 1058 457 1058 z "},"Ŏ":{"ha":832,"x_min":68,"x_max":764,"o":"m 415 -8 q 157 115 246 -8 q 68 489 68 239 q 415 981 68 981 q 764 489 764 981 q 675 115 764 239 q 415 -8 586 -8 m 417 97 q 636 489 636 97 q 417 875 636 875 q 252 781 307 875 q 197 489 197 688 q 417 97 197 97 m 417 1058 q 301 1100 347 1058 q 254 1218 254 1142 q 279 1239 254 1239 q 294 1234 289 1239 q 302 1219 299 1229 q 308 1204 306 1210 q 417 1150 329 1150 q 525 1204 504 1150 q 531 1219 526 1208 q 540 1235 535 1231 q 553 1239 544 1239 q 578 1218 578 1239 q 531 1100 578 1142 q 417 1058 485 1058 z "},"Ô":{"ha":832,"x_min":68,"x_max":764,"o":"m 415 -8 q 157 115 246 -8 q 68 489 68 239 q 415 981 68 981 q 764 489 764 981 q 675 115 764 239 q 415 -8 586 -8 m 417 97 q 636 489 636 97 q 417 875 636 875 q 252 781 307 875 q 197 489 197 688 q 417 97 197 97 m 292 1046 q 272 1051 279 1046 q 265 1064 265 1057 q 275 1090 265 1071 l 347 1213 q 406 1243 367 1243 l 426 1243 q 483 1213 464 1243 l 558 1090 q 567 1067 567 1074 q 560 1051 567 1057 q 540 1046 553 1046 l 513 1046 q 478 1065 490 1046 l 415 1167 l 354 1065 q 318 1046 339 1046 l 292 1046 z "},"Ố":{"ha":813,"x_min":68,"x_max":764,"o":"m 542 1179 q 510 1193 510 1179 q 524 1237 510 1203 q 568 1333 539 1271 q 643 1369 585 1369 q 676 1365 667 1369 q 686 1351 686 1361 q 673 1322 686 1343 q 629 1257 660 1301 q 592 1204 615 1240 q 542 1179 574 1179 m 290 1046 q 271 1051 278 1046 q 264 1064 264 1056 q 271 1090 264 1076 l 338 1213 q 394 1243 354 1243 l 417 1243 q 474 1213 457 1243 l 540 1090 q 546 1080 542 1088 q 550 1067 550 1072 q 542 1051 550 1057 q 522 1046 535 1046 l 496 1046 q 460 1064 472 1046 l 406 1167 l 351 1064 q 338 1049 346 1053 q 315 1046 329 1046 l 290 1046 m 415 -8 q 157 115 246 -8 q 68 489 68 239 q 415 981 68 981 q 764 489 764 981 q 675 115 764 239 q 415 -8 586 -8 m 417 97 q 636 489 636 97 q 417 875 636 875 q 252 781 307 875 q 197 489 197 688 q 417 97 197 97 z "},"Ộ":{"ha":832,"x_min":68,"x_max":764,"o":"m 415 -8 q 157 115 246 -8 q 68 489 68 239 q 415 981 68 981 q 764 489 764 981 q 675 115 764 239 q 415 -8 586 -8 m 417 97 q 636 489 636 97 q 417 875 636 875 q 252 781 307 875 q 197 489 197 688 q 417 97 197 97 m 419 -243 q 358 -212 358 -243 l 358 -142 q 422 -111 358 -111 q 483 -142 483 -111 l 483 -212 q 419 -243 483 -243 m 292 1046 q 272 1051 279 1046 q 265 1064 265 1057 q 275 1090 265 1071 l 347 1213 q 406 1243 367 1243 l 426 1243 q 483 1213 464 1243 l 558 1090 q 567 1067 567 1074 q 560 1051 567 1057 q 540 1046 553 1046 l 513 1046 q 478 1065 490 1046 l 415 1167 l 354 1065 q 318 1046 339 1046 l 292 1046 z "},"Ồ":{"ha":813,"x_min":68,"x_max":764,"o":"m 588 1179 q 538 1204 554 1179 l 496 1268 q 460 1325 471 1307 q 449 1351 449 1343 q 458 1365 449 1361 q 493 1369 468 1369 q 567 1333 551 1369 q 606 1237 593 1271 q 619 1193 619 1203 q 588 1179 619 1179 m 290 1046 q 271 1051 278 1046 q 264 1064 264 1056 q 271 1090 264 1076 l 338 1213 q 394 1243 354 1243 l 417 1243 q 474 1213 457 1243 l 540 1090 q 546 1080 542 1088 q 550 1067 550 1072 q 542 1051 550 1057 q 522 1046 535 1046 l 496 1046 q 460 1064 472 1046 l 406 1167 l 351 1064 q 338 1049 346 1053 q 315 1046 329 1046 l 290 1046 m 415 -8 q 157 115 246 -8 q 68 489 68 239 q 415 981 68 981 q 764 489 764 981 q 675 115 764 239 q 415 -8 586 -8 m 417 97 q 636 489 636 97 q 417 875 636 875 q 252 781 307 875 q 197 489 197 688 q 417 97 197 97 z "},"Ổ":{"ha":813,"x_min":68,"x_max":764,"o":"m 557 1189 q 521 1198 536 1189 q 506 1217 506 1207 q 513 1230 506 1224 q 540 1247 521 1236 q 583 1299 583 1271 q 569 1326 583 1317 q 532 1336 554 1336 q 487 1327 501 1336 q 468 1318 472 1318 q 447 1335 460 1318 q 435 1364 435 1353 q 471 1390 435 1378 q 543 1403 507 1403 q 625 1380 588 1403 q 663 1308 663 1357 q 649 1258 663 1279 q 614 1219 636 1238 q 582 1199 600 1208 q 557 1189 564 1189 m 290 1046 q 271 1051 278 1046 q 264 1064 264 1056 q 271 1090 264 1076 l 338 1213 q 394 1243 354 1243 l 417 1243 q 474 1213 457 1243 l 540 1090 q 546 1080 542 1088 q 550 1067 550 1072 q 542 1051 550 1057 q 522 1046 535 1046 l 496 1046 q 460 1064 472 1046 l 406 1167 l 351 1064 q 338 1049 346 1053 q 315 1046 329 1046 l 290 1046 m 415 -8 q 157 115 246 -8 q 68 489 68 239 q 415 981 68 981 q 764 489 764 981 q 675 115 764 239 q 415 -8 586 -8 m 417 97 q 636 489 636 97 q 417 875 636 875 q 252 781 307 875 q 197 489 197 688 q 417 97 197 97 z "},"Ỗ":{"ha":813,"x_min":68,"x_max":764,"o":"m 221 1263 q 208 1279 208 1269 q 213 1297 208 1288 q 256 1371 231 1349 q 317 1393 281 1393 q 355 1385 335 1393 q 406 1364 375 1378 q 478 1338 456 1338 q 525 1374 504 1338 q 550 1394 536 1394 q 564 1390 556 1394 l 572 1386 q 583 1379 579 1383 q 588 1369 588 1375 q 583 1350 588 1363 q 539 1278 564 1300 q 479 1256 514 1256 q 443 1262 461 1256 q 408 1276 425 1268 q 386 1286 392 1283 q 314 1313 336 1313 q 291 1303 301 1313 q 269 1274 281 1294 q 247 1254 258 1254 q 233 1257 244 1254 l 221 1263 m 290 1046 q 264 1065 264 1046 q 274 1090 264 1071 l 338 1182 q 396 1213 361 1213 l 418 1213 q 476 1182 454 1213 l 540 1090 q 550 1065 550 1075 q 543 1051 550 1057 q 524 1046 536 1046 l 497 1046 q 460 1064 474 1046 l 406 1144 l 354 1064 q 317 1046 340 1046 l 290 1046 m 415 -8 q 157 115 246 -8 q 68 489 68 239 q 415 981 68 981 q 764 489 764 981 q 675 115 764 239 q 415 -8 586 -8 m 417 97 q 636 489 636 97 q 417 875 636 875 q 252 781 307 875 q 197 489 197 688 q 417 97 197 97 z "},"Ö":{"ha":832,"x_min":68,"x_max":764,"o":"m 415 -8 q 157 115 246 -8 q 68 489 68 239 q 415 981 68 981 q 764 489 764 981 q 675 115 764 239 q 415 -8 586 -8 m 417 97 q 636 489 636 97 q 417 875 636 875 q 252 781 307 875 q 197 489 197 688 q 417 97 197 97 m 329 1089 q 276 1119 276 1089 l 276 1190 q 332 1221 276 1221 q 385 1190 385 1221 l 385 1119 q 329 1089 385 1089 m 504 1089 q 451 1119 451 1089 l 451 1190 q 507 1221 451 1221 q 560 1190 560 1221 l 560 1119 q 504 1089 560 1089 z "},"Ọ":{"ha":832,"x_min":68,"x_max":764,"o":"m 415 -8 q 157 115 246 -8 q 68 489 68 239 q 415 981 68 981 q 764 489 764 981 q 675 115 764 239 q 415 -8 586 -8 m 417 97 q 636 489 636 97 q 417 875 636 875 q 252 781 307 875 q 197 489 197 688 q 417 97 197 97 m 419 -243 q 358 -212 358 -243 l 358 -142 q 422 -111 358 -111 q 483 -142 483 -111 l 483 -212 q 419 -243 483 -243 z "},"Ò":{"ha":832,"x_min":68,"x_max":764,"o":"m 415 -8 q 157 115 246 -8 q 68 489 68 239 q 415 981 68 981 q 764 489 764 981 q 675 115 764 239 q 415 -8 586 -8 m 417 97 q 636 489 636 97 q 417 875 636 875 q 252 781 307 875 q 197 489 197 688 q 417 97 197 97 m 450 1058 q 385 1083 401 1058 q 291 1210 307 1188 q 275 1244 275 1233 q 289 1258 275 1254 q 333 1263 303 1263 q 413 1226 393 1263 l 440 1168 q 469 1104 458 1128 q 479 1072 479 1081 q 473 1062 479 1065 q 450 1058 467 1058 z "},"Ỏ":{"ha":832,"x_min":68,"x_max":764,"o":"m 415 -8 q 157 115 246 -8 q 68 489 68 239 q 415 981 68 981 q 764 489 764 981 q 675 115 764 239 q 415 -8 586 -8 m 417 97 q 636 489 636 97 q 417 875 636 875 q 252 781 307 875 q 197 489 197 688 q 417 97 197 97 m 426 1028 q 398 1035 415 1028 q 381 1051 381 1043 q 388 1072 381 1064 q 415 1097 396 1081 q 453 1135 439 1117 q 467 1179 467 1153 q 452 1207 467 1197 q 415 1217 438 1217 q 370 1208 385 1217 q 351 1199 356 1199 q 331 1216 343 1199 q 318 1244 318 1233 q 354 1273 318 1258 q 426 1288 390 1288 q 513 1264 472 1288 q 553 1189 553 1240 q 527 1111 553 1147 q 469 1051 501 1075 q 426 1028 438 1028 z "},"Ơ":{"ha":832,"x_min":68,"x_max":789,"o":"m 415 -8 q 157 115 246 -8 q 68 489 68 239 q 415 981 68 981 q 604 928 522 981 q 627 916 618 919 q 649 913 636 913 q 691 926 678 913 q 704 958 704 940 q 697 991 704 976 q 679 1022 690 1006 q 667 1044 668 1039 q 679 1067 667 1058 l 713 1089 q 729 1094 719 1094 q 770 1060 751 1094 q 789 992 789 1025 q 758 906 789 939 q 667 868 728 874 q 764 489 764 746 q 675 115 764 239 q 415 -8 586 -8 m 417 97 q 636 489 636 97 q 417 875 636 875 q 252 781 307 875 q 197 489 197 688 q 417 97 197 97 z "},"Ớ":{"ha":832,"x_min":68,"x_max":789,"o":"m 415 -8 q 157 115 246 -8 q 68 489 68 239 q 415 981 68 981 q 604 928 522 981 q 627 916 618 919 q 649 913 636 913 q 691 926 678 913 q 704 958 704 940 q 697 991 704 976 q 679 1022 690 1006 q 667 1044 668 1039 q 679 1067 667 1058 l 713 1089 q 729 1094 719 1094 q 770 1060 751 1094 q 789 992 789 1025 q 758 906 789 939 q 667 868 728 874 q 764 489 764 746 q 675 115 764 239 q 415 -8 586 -8 m 417 97 q 636 489 636 97 q 417 875 636 875 q 252 781 307 875 q 197 489 197 688 q 417 97 197 97 m 407 1058 q 378 1072 378 1058 q 395 1119 378 1082 q 446 1226 413 1157 q 524 1263 463 1263 q 568 1258 554 1263 q 582 1244 582 1254 q 569 1218 582 1236 q 532 1164 557 1200 l 474 1083 q 407 1058 457 1058 z "},"Ợ":{"ha":832,"x_min":68,"x_max":789,"o":"m 415 -8 q 157 115 246 -8 q 68 489 68 239 q 415 981 68 981 q 604 928 522 981 q 627 916 618 919 q 649 913 636 913 q 691 926 678 913 q 704 958 704 940 q 697 991 704 976 q 679 1022 690 1006 q 667 1044 668 1039 q 679 1067 667 1058 l 713 1089 q 729 1094 719 1094 q 770 1060 751 1094 q 789 992 789 1025 q 758 906 789 939 q 667 868 728 874 q 764 489 764 746 q 675 115 764 239 q 415 -8 586 -8 m 417 97 q 636 489 636 97 q 417 875 636 875 q 252 781 307 875 q 197 489 197 688 q 417 97 197 97 m 419 -243 q 358 -212 358 -243 l 358 -142 q 422 -111 358 -111 q 483 -142 483 -111 l 483 -212 q 419 -243 483 -243 z "},"Ờ":{"ha":832,"x_min":68,"x_max":789,"o":"m 415 -8 q 157 115 246 -8 q 68 489 68 239 q 415 981 68 981 q 604 928 522 981 q 627 916 618 919 q 649 913 636 913 q 691 926 678 913 q 704 958 704 940 q 697 991 704 976 q 679 1022 690 1006 q 667 1044 668 1039 q 679 1067 667 1058 l 713 1089 q 729 1094 719 1094 q 770 1060 751 1094 q 789 992 789 1025 q 758 906 789 939 q 667 868 728 874 q 764 489 764 746 q 675 115 764 239 q 415 -8 586 -8 m 417 97 q 636 489 636 97 q 417 875 636 875 q 252 781 307 875 q 197 489 197 688 q 417 97 197 97 m 450 1058 q 385 1083 401 1058 q 291 1210 307 1188 q 275 1244 275 1233 q 289 1258 275 1254 q 333 1263 303 1263 q 413 1226 393 1263 l 440 1168 q 469 1104 458 1128 q 479 1072 479 1081 q 473 1062 479 1065 q 450 1058 467 1058 z "},"Ở":{"ha":832,"x_min":68,"x_max":789,"o":"m 415 -8 q 157 115 246 -8 q 68 489 68 239 q 415 981 68 981 q 604 928 522 981 q 627 916 618 919 q 649 913 636 913 q 691 926 678 913 q 704 958 704 940 q 697 991 704 976 q 679 1022 690 1006 q 667 1044 668 1039 q 679 1067 667 1058 l 713 1089 q 729 1094 719 1094 q 770 1060 751 1094 q 789 992 789 1025 q 758 906 789 939 q 667 868 728 874 q 764 489 764 746 q 675 115 764 239 q 415 -8 586 -8 m 417 97 q 636 489 636 97 q 417 875 636 875 q 252 781 307 875 q 197 489 197 688 q 417 97 197 97 m 426 1028 q 398 1035 415 1028 q 381 1051 381 1043 q 388 1072 381 1064 q 415 1097 396 1081 q 453 1135 439 1117 q 467 1179 467 1153 q 452 1207 467 1197 q 415 1217 438 1217 q 370 1208 385 1217 q 351 1199 356 1199 q 331 1216 343 1199 q 318 1244 318 1233 q 354 1273 318 1258 q 426 1288 390 1288 q 513 1264 472 1288 q 553 1189 553 1240 q 527 1111 553 1147 q 469 1051 501 1075 q 426 1028 438 1028 z "},"Ỡ":{"ha":832,"x_min":68,"x_max":789,"o":"m 415 -8 q 157 115 246 -8 q 68 489 68 239 q 415 981 68 981 q 604 928 522 981 q 627 916 618 919 q 649 913 636 913 q 691 926 678 913 q 704 958 704 940 q 697 991 704 976 q 679 1022 690 1006 q 667 1044 668 1039 q 679 1067 667 1058 l 713 1089 q 729 1094 719 1094 q 770 1060 751 1094 q 789 992 789 1025 q 758 906 789 939 q 667 868 728 874 q 764 489 764 746 q 675 115 764 239 q 415 -8 586 -8 m 417 97 q 636 489 636 97 q 417 875 636 875 q 252 781 307 875 q 197 489 197 688 q 417 97 197 97 m 226 1074 q 213 1090 213 1079 q 217 1108 213 1099 q 265 1182 238 1160 q 332 1204 292 1204 q 373 1197 353 1204 q 428 1175 393 1190 q 508 1149 483 1149 q 535 1156 524 1149 q 561 1185 547 1164 q 588 1206 572 1206 q 603 1201 594 1206 l 613 1197 q 626 1190 622 1193 q 629 1181 629 1186 q 624 1161 629 1172 q 576 1088 603 1110 q 510 1067 549 1067 q 464 1074 488 1067 q 408 1097 440 1082 q 366 1115 388 1107 q 329 1122 344 1122 q 304 1114 315 1122 q 279 1085 293 1106 q 256 1065 268 1065 q 240 1068 251 1065 l 226 1074 z "},"Ő":{"ha":832,"x_min":68,"x_max":764,"o":"m 415 -8 q 157 115 246 -8 q 68 489 68 239 q 415 981 68 981 q 764 489 764 981 q 675 115 764 239 q 415 -8 586 -8 m 417 97 q 636 489 636 97 q 417 875 636 875 q 252 781 307 875 q 197 489 197 688 q 417 97 197 97 m 296 1058 q 267 1072 267 1058 q 275 1097 267 1079 q 297 1146 283 1115 l 335 1226 q 413 1263 351 1263 q 457 1258 443 1263 q 471 1244 471 1254 q 458 1216 471 1236 q 414 1154 444 1196 l 363 1083 q 296 1058 343 1058 m 474 1058 q 444 1072 444 1058 q 453 1097 444 1079 q 475 1146 461 1115 l 513 1226 q 590 1263 529 1263 q 635 1258 621 1263 q 649 1244 649 1254 q 631 1205 649 1232 q 540 1083 613 1178 q 474 1058 521 1058 z "},"Ō":{"ha":832,"x_min":68,"x_max":764,"o":"m 415 -8 q 157 115 246 -8 q 68 489 68 239 q 415 981 68 981 q 764 489 764 981 q 675 115 764 239 q 415 -8 586 -8 m 417 97 q 636 489 636 97 q 417 875 636 875 q 252 781 307 875 q 197 489 197 688 q 417 97 197 97 m 283 1096 q 257 1138 257 1096 l 257 1151 q 283 1193 257 1193 l 560 1193 q 580 1183 574 1193 q 586 1151 586 1174 l 586 1138 q 580 1106 586 1115 q 560 1096 574 1096 l 283 1096 z "},"Ǫ":{"ha":832,"x_min":68,"x_max":764,"o":"m 618 -150 q 646 -183 646 -150 q 628 -221 646 -208 q 536 -247 589 -247 q 435 -208 461 -247 q 408 -125 408 -168 q 416 -69 408 -101 q 440 -8 424 -37 l 415 -8 q 157 115 246 -8 q 68 489 68 239 q 415 981 68 981 q 764 489 764 981 q 526 7 764 79 q 501 -49 510 -21 q 493 -100 493 -78 q 563 -160 493 -160 q 593 -155 574 -160 q 618 -150 613 -150 m 197 489 q 417 97 197 97 q 636 489 636 97 q 417 875 636 875 q 252 781 307 875 q 197 489 197 688 z "},"Ø":{"ha":832,"x_min":68,"x_max":764,"o":"m 674 861 q 764 489 764 739 q 675 115 764 239 q 415 -8 586 -8 q 189 76 274 -8 l 138 -8 q 117 -25 128 -25 q 96 -17 107 -25 q 85 1 85 -8 q 92 21 85 13 l 153 121 q 68 489 68 246 q 415 981 68 981 q 636 904 551 981 l 682 979 q 703 994 690 994 q 724 987 714 994 q 735 968 735 979 q 729 951 735 961 l 674 861 m 197 489 q 229 244 197 338 l 569 797 q 417 875 517 875 q 252 781 307 875 q 197 489 197 688 m 417 97 q 636 489 636 97 q 600 742 636 646 l 257 186 q 417 97 313 97 z "},"Ǿ":{"ha":832,"x_min":68,"x_max":764,"o":"m 674 861 q 764 489 764 739 q 675 115 764 239 q 415 -8 586 -8 q 189 76 274 -8 l 138 -8 q 117 -25 128 -25 q 96 -17 107 -25 q 85 1 85 -8 q 92 21 85 13 l 153 121 q 68 489 68 246 q 415 981 68 981 q 636 904 551 981 l 682 979 q 703 994 690 994 q 724 987 714 994 q 735 968 735 979 q 729 951 735 961 l 674 861 m 197 489 q 229 244 197 338 l 569 797 q 417 875 517 875 q 252 781 307 875 q 197 489 197 688 m 417 97 q 636 489 636 97 q 600 742 636 646 l 257 186 q 417 97 313 97 m 407 1058 q 378 1072 378 1058 q 395 1119 378 1082 q 446 1226 413 1157 q 524 1263 463 1263 q 568 1258 554 1263 q 582 1244 582 1254 q 569 1218 582 1236 q 532 1164 557 1200 l 474 1083 q 407 1058 457 1058 z "},"Õ":{"ha":832,"x_min":68,"x_max":764,"o":"m 415 -8 q 157 115 246 -8 q 68 489 68 239 q 415 981 68 981 q 764 489 764 981 q 675 115 764 239 q 415 -8 586 -8 m 417 97 q 636 489 636 97 q 417 875 636 875 q 252 781 307 875 q 197 489 197 688 q 417 97 197 97 m 226 1074 q 213 1090 213 1079 q 217 1108 213 1099 q 265 1182 238 1160 q 332 1204 292 1204 q 373 1197 353 1204 q 428 1175 393 1190 q 508 1149 483 1149 q 535 1156 524 1149 q 561 1185 547 1164 q 588 1206 572 1206 q 603 1201 594 1206 l 613 1197 q 626 1190 622 1193 q 629 1181 629 1186 q 624 1161 629 1172 q 576 1088 603 1110 q 510 1067 549 1067 q 464 1074 488 1067 q 408 1097 440 1082 q 366 1115 388 1107 q 329 1122 344 1122 q 304 1114 315 1122 q 279 1085 293 1106 q 256 1065 268 1065 q 240 1068 251 1065 l 226 1074 z "},"Œ":{"ha":1143,"x_min":68,"x_max":1092,"o":"m 1065 106 q 1092 64 1092 106 l 1092 42 q 1065 0 1092 0 l 667 0 q 638 10 647 0 q 629 42 629 19 l 629 97 q 530 17 586 43 q 400 -8 474 -8 q 155 114 242 -8 q 68 490 68 236 q 404 981 68 981 q 532 956 476 981 q 629 878 588 932 l 629 931 q 638 963 629 953 q 667 972 647 972 l 1064 972 q 1090 931 1090 972 l 1090 908 q 1064 867 1090 867 l 754 867 l 754 550 l 1032 550 q 1058 508 1058 550 l 1058 486 q 1032 444 1058 444 l 754 444 l 754 106 l 1065 106 m 408 97 q 572 193 517 97 q 628 489 628 289 q 573 784 628 693 q 408 875 518 875 q 250 784 303 875 q 197 489 197 693 q 251 193 197 289 q 408 97 304 97 z "},"P":{"ha":669,"x_min":101,"x_max":621,"o":"m 154 -3 q 101 28 101 -3 l 101 931 q 110 963 101 953 q 139 972 119 972 l 368 972 q 544 914 467 972 q 621 700 621 856 q 577 521 621 585 q 478 435 533 457 q 379 414 424 414 l 226 414 l 226 28 q 174 -3 226 -3 l 154 -3 m 372 519 q 456 560 418 519 q 493 700 493 600 q 455 830 493 793 q 363 867 417 867 l 226 867 l 226 519 l 372 519 z "},"Þ":{"ha":669,"x_min":101,"x_max":621,"o":"m 154 -3 q 101 28 101 -3 l 101 944 q 154 975 101 975 l 174 975 q 226 944 226 975 l 226 804 l 368 804 q 544 746 467 804 q 621 532 621 688 q 577 353 621 417 q 478 267 533 289 q 379 246 424 246 l 226 246 l 226 28 q 174 -3 226 -3 l 154 -3 m 372 351 q 454 392 417 351 q 492 532 492 432 q 453 662 492 625 q 361 699 415 699 l 226 699 l 226 351 l 372 351 z "},"Q":{"ha":832,"x_min":68,"x_max":821,"o":"m 753 -235 q 541 -131 739 -235 q 268 18 343 -26 q 68 486 68 119 q 156 858 68 736 q 415 981 244 981 q 675 858 586 981 q 764 486 764 735 q 706 164 764 283 q 535 8 647 44 l 535 4 l 804 -119 q 821 -142 821 -128 q 796 -198 818 -161 q 753 -235 774 -235 m 417 96 q 580 193 524 96 q 636 486 636 290 q 580 779 636 683 q 417 875 524 875 q 197 486 197 875 q 417 96 197 96 z "},"R":{"ha":713,"x_min":107,"x_max":681,"o":"m 160 -3 q 107 28 107 -3 l 107 931 q 116 963 107 953 q 144 972 125 972 l 350 972 q 554 914 488 972 q 621 726 621 856 q 587 581 621 640 q 493 492 553 522 l 493 486 q 542 432 521 472 q 589 313 563 392 l 676 39 q 681 19 681 26 q 626 -3 681 -3 l 603 -3 q 569 3 583 -3 q 551 19 554 10 l 468 292 q 412 399 443 371 q 319 428 381 428 l 232 428 l 232 28 q 179 -3 232 -3 l 160 -3 m 371 533 q 456 584 421 533 q 492 704 492 635 q 458 826 492 786 q 363 867 424 867 l 231 867 l 231 533 l 371 533 z "},"Ŕ":{"ha":713,"x_min":107,"x_max":681,"o":"m 160 -3 q 107 28 107 -3 l 107 931 q 116 963 107 953 q 144 972 125 972 l 350 972 q 554 914 488 972 q 621 726 621 856 q 587 581 621 640 q 493 492 553 522 l 493 486 q 542 432 521 472 q 589 313 563 392 l 676 39 q 681 19 681 26 q 626 -3 681 -3 l 603 -3 q 569 3 583 -3 q 551 19 554 10 l 468 292 q 412 399 443 371 q 319 428 381 428 l 232 428 l 232 28 q 179 -3 232 -3 l 160 -3 m 371 533 q 456 584 421 533 q 492 704 492 635 q 458 826 492 786 q 363 867 424 867 l 231 867 l 231 533 l 371 533 m 343 1058 q 314 1072 314 1058 q 331 1119 314 1082 q 382 1226 349 1157 q 460 1263 399 1263 q 504 1258 490 1263 q 518 1244 518 1254 q 506 1218 518 1236 q 468 1164 493 1200 l 410 1083 q 343 1058 393 1058 z "},"Ř":{"ha":713,"x_min":107,"x_max":681,"o":"m 160 -3 q 107 28 107 -3 l 107 931 q 116 963 107 953 q 144 972 125 972 l 350 972 q 554 914 488 972 q 621 726 621 856 q 587 581 621 640 q 493 492 553 522 l 493 486 q 542 432 521 472 q 589 313 563 392 l 676 39 q 681 19 681 26 q 626 -3 681 -3 l 603 -3 q 569 3 583 -3 q 551 19 554 10 l 468 292 q 412 399 443 371 q 319 428 381 428 l 232 428 l 232 28 q 179 -3 232 -3 l 160 -3 m 371 533 q 456 584 421 533 q 492 704 492 635 q 458 826 492 786 q 363 867 424 867 l 231 867 l 231 533 l 371 533 m 343 1056 q 285 1086 303 1056 l 213 1208 q 203 1233 203 1225 q 210 1247 203 1242 q 229 1253 217 1253 l 256 1253 q 292 1232 278 1253 l 353 1132 l 415 1232 q 450 1253 428 1253 l 478 1253 q 497 1247 490 1253 q 504 1232 504 1242 q 496 1208 504 1225 l 421 1086 q 364 1056 403 1056 l 343 1056 z "},"Ŗ":{"ha":713,"x_min":107,"x_max":681,"o":"m 160 -3 q 107 28 107 -3 l 107 931 q 116 963 107 953 q 144 972 125 972 l 350 972 q 554 914 488 972 q 621 726 621 856 q 587 581 621 640 q 493 492 553 522 l 493 486 q 542 432 521 472 q 589 313 563 392 l 676 39 q 681 19 681 26 q 626 -3 681 -3 l 603 -3 q 569 3 583 -3 q 551 19 554 10 l 468 292 q 412 399 443 371 q 319 428 381 428 l 232 428 l 232 28 q 179 -3 232 -3 l 160 -3 m 371 533 q 456 584 421 533 q 492 704 492 635 q 458 826 492 786 q 363 867 424 867 l 231 867 l 231 533 l 371 533 m 292 -326 q 265 -322 276 -326 q 253 -306 253 -317 q 258 -283 253 -297 q 264 -262 263 -268 q 285 -193 278 -226 q 293 -115 293 -160 q 306 -83 293 -94 q 346 -71 319 -71 l 360 -71 q 396 -81 383 -71 q 408 -110 408 -92 q 388 -222 408 -172 q 340 -299 368 -271 q 292 -326 313 -326 z "},"Ṛ":{"ha":713,"x_min":107,"x_max":681,"o":"m 160 -3 q 107 28 107 -3 l 107 931 q 116 963 107 953 q 144 972 125 972 l 350 972 q 554 914 488 972 q 621 726 621 856 q 587 581 621 640 q 493 492 553 522 l 493 486 q 542 432 521 472 q 589 313 563 392 l 676 39 q 681 19 681 26 q 626 -3 681 -3 l 603 -3 q 569 3 583 -3 q 551 19 554 10 l 468 292 q 412 399 443 371 q 319 428 381 428 l 232 428 l 232 28 q 179 -3 232 -3 l 160 -3 m 371 533 q 456 584 421 533 q 492 704 492 635 q 458 826 492 786 q 363 867 424 867 l 231 867 l 231 533 l 371 533 m 356 -243 q 294 -212 294 -243 l 294 -142 q 358 -111 294 -111 q 419 -142 419 -111 l 419 -212 q 356 -243 419 -243 z "},"S":{"ha":607,"x_min":44,"x_max":567,"o":"m 278 -7 q 60 57 149 -7 q 48 69 51 63 q 44 89 44 75 q 53 141 44 114 q 76 168 63 168 q 85 165 82 168 q 89 163 88 163 q 282 103 165 103 q 398 145 353 103 q 443 260 443 188 q 407 362 443 325 q 300 435 371 399 q 174 506 221 474 q 97 588 128 538 q 65 715 65 639 q 145 915 65 842 q 353 988 225 988 q 522 946 451 988 q 532 929 532 940 q 519 878 532 911 q 493 844 506 844 q 475 851 489 844 q 346 878 422 878 q 233 840 279 878 q 188 729 188 801 q 226 628 188 667 q 350 546 264 590 q 465 478 421 510 q 538 397 508 447 q 567 269 567 346 q 486 66 567 139 q 278 -7 406 -7 z "},"Ś":{"ha":607,"x_min":44,"x_max":567,"o":"m 278 -7 q 60 57 149 -7 q 48 69 51 63 q 44 89 44 75 q 53 141 44 114 q 76 168 63 168 q 85 165 82 168 q 89 163 88 163 q 282 103 165 103 q 398 145 353 103 q 443 260 443 188 q 407 362 443 325 q 300 435 371 399 q 174 506 221 474 q 97 588 128 538 q 65 715 65 639 q 145 915 65 842 q 353 988 225 988 q 522 946 451 988 q 532 929 532 940 q 519 878 532 911 q 493 844 506 844 q 475 851 489 844 q 346 878 422 878 q 233 840 279 878 q 188 729 188 801 q 226 628 188 667 q 350 546 264 590 q 465 478 421 510 q 538 397 508 447 q 567 269 567 346 q 486 66 567 139 q 278 -7 406 -7 m 325 1058 q 296 1072 296 1058 q 313 1119 296 1082 q 364 1226 331 1157 q 442 1263 381 1263 q 486 1258 472 1263 q 500 1244 500 1254 q 488 1218 500 1236 q 450 1164 475 1200 l 392 1083 q 325 1058 375 1058 z "},"Š":{"ha":607,"x_min":44,"x_max":567,"o":"m 278 -7 q 60 57 149 -7 q 48 69 51 63 q 44 89 44 75 q 53 141 44 114 q 76 168 63 168 q 85 165 82 168 q 89 163 88 163 q 282 103 165 103 q 398 145 353 103 q 443 260 443 188 q 407 362 443 325 q 300 435 371 399 q 174 506 221 474 q 97 588 128 538 q 65 715 65 639 q 145 915 65 842 q 353 988 225 988 q 522 946 451 988 q 532 929 532 940 q 519 878 532 911 q 493 844 506 844 q 475 851 489 844 q 346 878 422 878 q 233 840 279 878 q 188 729 188 801 q 226 628 188 667 q 350 546 264 590 q 465 478 421 510 q 538 397 508 447 q 567 269 567 346 q 486 66 567 139 q 278 -7 406 -7 m 325 1056 q 267 1086 285 1056 l 194 1208 q 185 1233 185 1225 q 192 1247 185 1242 q 211 1253 199 1253 l 238 1253 q 274 1232 260 1253 l 335 1132 l 397 1232 q 432 1253 410 1253 l 460 1253 q 479 1247 472 1253 q 486 1232 486 1242 q 478 1208 486 1225 l 403 1086 q 346 1056 385 1056 l 325 1056 z "},"Ş":{"ha":607,"x_min":44,"x_max":567,"o":"m 567 269 q 504 85 567 156 q 336 -3 442 14 l 314 -83 q 384 -103 351 -83 q 417 -176 417 -124 q 283 -292 417 -292 q 196 -275 239 -292 q 153 -232 153 -258 q 161 -208 153 -219 q 179 -196 169 -196 q 211 -206 189 -196 q 275 -224 247 -224 q 310 -213 294 -224 q 325 -183 325 -203 q 313 -153 325 -162 q 279 -136 301 -143 q 256 -125 264 -131 q 249 -110 249 -119 q 255 -78 249 -100 q 278 -7 261 -56 q 60 57 149 -7 q 48 69 51 63 q 44 89 44 75 q 53 141 44 114 q 76 168 63 168 q 85 165 82 168 q 89 163 88 163 q 282 103 165 103 q 398 145 353 103 q 443 260 443 188 q 407 362 443 325 q 300 435 371 399 q 174 506 221 474 q 97 588 128 538 q 65 715 65 639 q 145 915 65 842 q 353 988 225 988 q 522 946 451 988 q 532 929 532 940 q 519 878 532 911 q 493 844 506 844 q 475 851 489 844 q 346 878 422 878 q 233 840 279 878 q 188 729 188 801 q 226 628 188 667 q 350 546 264 590 q 465 478 421 510 q 538 397 508 447 q 567 269 567 346 z "},"Ŝ":{"ha":607,"x_min":44,"x_max":567,"o":"m 278 -7 q 60 57 149 -7 q 48 69 51 63 q 44 89 44 75 q 53 141 44 114 q 76 168 63 168 q 85 165 82 168 q 89 163 88 163 q 282 103 165 103 q 398 145 353 103 q 443 260 443 188 q 407 362 443 325 q 300 435 371 399 q 174 506 221 474 q 97 588 128 538 q 65 715 65 639 q 145 915 65 842 q 353 988 225 988 q 522 946 451 988 q 532 929 532 940 q 519 878 532 911 q 493 844 506 844 q 475 851 489 844 q 346 878 422 878 q 233 840 279 878 q 188 729 188 801 q 226 628 188 667 q 350 546 264 590 q 465 478 421 510 q 538 397 508 447 q 567 269 567 346 q 486 66 567 139 q 278 -7 406 -7 m 210 1046 q 190 1051 197 1046 q 183 1064 183 1057 q 193 1090 183 1071 l 265 1213 q 324 1243 285 1243 l 344 1243 q 401 1213 382 1243 l 476 1090 q 485 1067 485 1074 q 478 1051 485 1057 q 458 1046 471 1046 l 431 1046 q 396 1065 408 1046 l 333 1167 l 272 1065 q 236 1046 257 1046 l 210 1046 z "},"Ș":{"ha":607,"x_min":44,"x_max":567,"o":"m 278 -7 q 60 57 149 -7 q 48 69 51 63 q 44 89 44 75 q 53 141 44 114 q 76 168 63 168 q 85 165 82 168 q 89 163 88 163 q 282 103 165 103 q 398 145 353 103 q 443 260 443 188 q 407 362 443 325 q 300 435 371 399 q 174 506 221 474 q 97 588 128 538 q 65 715 65 639 q 145 915 65 842 q 353 988 225 988 q 522 946 451 988 q 532 929 532 940 q 519 878 532 911 q 493 844 506 844 q 475 851 489 844 q 346 878 422 878 q 233 840 279 878 q 188 729 188 801 q 226 628 188 667 q 350 546 264 590 q 465 478 421 510 q 538 397 508 447 q 567 269 567 346 q 486 66 567 139 q 278 -7 406 -7 m 244 -326 q 217 -322 229 -326 q 206 -306 206 -317 q 210 -283 206 -297 q 217 -262 215 -268 q 238 -193 231 -226 q 246 -115 246 -160 q 259 -83 246 -94 q 299 -71 272 -71 l 313 -71 q 349 -81 336 -71 q 361 -110 361 -92 q 341 -222 361 -172 q 293 -299 321 -271 q 244 -326 265 -326 z "},"Ṣ":{"ha":607,"x_min":44,"x_max":567,"o":"m 278 -7 q 60 57 149 -7 q 48 69 51 63 q 44 89 44 75 q 53 141 44 114 q 76 168 63 168 q 85 165 82 168 q 89 163 88 163 q 282 103 165 103 q 398 145 353 103 q 443 260 443 188 q 407 362 443 325 q 300 435 371 399 q 174 506 221 474 q 97 588 128 538 q 65 715 65 639 q 145 915 65 842 q 353 988 225 988 q 522 946 451 988 q 532 929 532 940 q 519 878 532 911 q 493 844 506 844 q 475 851 489 844 q 346 878 422 878 q 233 840 279 878 q 188 729 188 801 q 226 628 188 667 q 350 546 264 590 q 465 478 421 510 q 538 397 508 447 q 567 269 567 346 q 486 66 567 139 q 278 -7 406 -7 m 308 -243 q 247 -212 247 -243 l 247 -142 q 311 -111 247 -111 q 372 -142 372 -111 l 372 -212 q 308 -243 372 -243 z "},"ẞ":{"ha":824,"x_min":107,"x_max":769,"o":"m 499 -8 q 403 5 447 -8 q 331 37 358 18 q 304 72 304 56 q 323 115 304 90 q 353 140 342 140 q 378 133 365 140 q 394 124 392 125 q 438 100 417 108 q 490 92 460 92 q 601 136 553 92 q 649 288 649 181 q 607 426 649 385 q 489 467 565 467 l 440 467 q 419 493 431 467 q 407 540 407 519 q 411 557 407 551 l 585 850 q 432 875 517 875 q 278 815 326 875 q 229 619 229 756 l 229 28 q 174 -3 229 -3 l 163 -3 q 107 28 107 -3 l 107 621 q 185 890 107 800 q 418 979 264 979 q 697 932 553 979 q 717 903 706 929 q 728 858 728 878 q 724 842 728 849 l 560 571 q 713 480 656 551 q 769 286 769 408 q 729 116 769 182 q 627 21 689 50 q 499 -8 565 -8 z "},"Ə":{"ha":778,"x_min":67,"x_max":674,"o":"m 353 -12 q 135 96 204 -12 q 67 447 67 204 q 84 482 67 460 q 111 504 101 504 l 549 504 q 494 796 543 711 q 346 881 444 881 q 244 865 288 881 q 153 824 200 849 q 121 810 128 810 q 93 838 110 810 q 76 879 76 867 q 117 923 76 899 q 224 964 158 947 q 358 981 289 981 q 595 861 517 981 q 674 472 674 742 q 594 102 674 217 q 353 -12 514 -12 m 356 88 q 492 160 444 88 q 549 404 539 232 l 189 404 q 228 161 189 235 q 356 88 268 88 z "},"T":{"ha":631,"x_min":28,"x_max":604,"o":"m 307 -3 q 254 28 254 -3 l 254 867 l 54 867 q 28 908 28 867 l 28 931 q 54 972 28 972 l 576 972 q 598 963 592 972 q 604 931 604 953 l 604 908 q 598 876 604 886 q 576 867 592 867 l 379 867 l 379 28 q 326 -3 379 -3 l 307 -3 z "},"Ŧ":{"ha":610,"x_min":28,"x_max":604,"o":"m 576 972 q 598 963 592 972 q 604 931 604 953 l 604 908 q 598 876 604 886 q 576 867 592 867 l 379 867 l 379 539 l 507 539 q 527 529 521 539 q 533 497 533 519 l 533 483 q 527 451 533 461 q 507 442 521 442 l 379 442 l 379 28 q 326 -3 379 -3 l 307 -3 q 254 28 254 -3 l 254 442 l 107 442 q 81 483 81 442 l 81 497 q 107 539 81 539 l 254 539 l 254 867 l 54 867 q 28 908 28 867 l 28 931 q 54 972 28 972 l 576 972 z "},"Ť":{"ha":631,"x_min":28,"x_max":604,"o":"m 307 -3 q 254 28 254 -3 l 254 867 l 54 867 q 28 908 28 867 l 28 931 q 54 972 28 972 l 576 972 q 598 963 592 972 q 604 931 604 953 l 604 908 q 598 876 604 886 q 576 867 592 867 l 379 867 l 379 28 q 326 -3 379 -3 l 307 -3 m 306 1056 q 247 1086 265 1056 l 175 1208 q 165 1233 165 1225 q 172 1247 165 1242 q 192 1253 179 1253 l 218 1253 q 254 1232 240 1253 l 315 1132 l 378 1232 q 413 1253 390 1253 l 440 1253 q 460 1247 453 1253 q 467 1232 467 1242 q 458 1208 467 1225 l 383 1086 q 326 1056 365 1056 l 306 1056 z "},"Ţ":{"ha":631,"x_min":28,"x_max":604,"o":"m 576 972 q 598 963 592 972 q 604 931 604 953 l 604 908 q 598 876 604 886 q 576 867 592 867 l 379 867 l 379 28 q 347 -1 379 4 l 324 -83 q 394 -103 361 -83 q 426 -176 426 -124 q 293 -292 426 -292 q 206 -275 249 -292 q 163 -232 163 -258 q 171 -208 163 -219 q 189 -196 179 -196 q 221 -206 199 -196 q 285 -224 257 -224 q 319 -213 304 -224 q 335 -183 335 -203 q 323 -153 335 -162 q 289 -136 311 -143 q 266 -125 274 -131 q 258 -110 258 -119 q 265 -77 258 -100 q 290 -1 272 -54 q 254 28 254 3 l 254 867 l 54 867 q 28 908 28 867 l 28 931 q 54 972 28 972 l 576 972 z "},"Ț":{"ha":631,"x_min":28,"x_max":604,"o":"m 307 -3 q 254 28 254 -3 l 254 867 l 54 867 q 28 908 28 867 l 28 931 q 54 972 28 972 l 576 972 q 598 963 592 972 q 604 931 604 953 l 604 908 q 598 876 604 886 q 576 867 592 867 l 379 867 l 379 28 q 326 -3 379 -3 l 307 -3 m 254 -326 q 227 -322 239 -326 q 215 -306 215 -317 q 220 -283 215 -297 q 226 -262 225 -268 q 248 -193 240 -226 q 256 -115 256 -160 q 269 -83 256 -94 q 308 -71 282 -71 l 322 -71 q 358 -81 346 -71 q 371 -110 371 -92 q 351 -222 371 -172 q 303 -299 331 -271 q 254 -326 275 -326 z "},"Ṭ":{"ha":631,"x_min":28,"x_max":604,"o":"m 307 -3 q 254 28 254 -3 l 254 867 l 54 867 q 28 908 28 867 l 28 931 q 54 972 28 972 l 576 972 q 598 963 592 972 q 604 931 604 953 l 604 908 q 598 876 604 886 q 576 867 592 867 l 379 867 l 379 28 q 326 -3 379 -3 l 307 -3 m 318 -243 q 257 -212 257 -243 l 257 -142 q 321 -111 257 -111 q 382 -142 382 -111 l 382 -212 q 318 -243 382 -243 z "},"U":{"ha":810,"x_min":94,"x_max":715,"o":"m 406 -8 q 176 65 257 -8 q 94 271 94 139 l 94 944 q 147 975 94 975 l 167 975 q 219 944 219 975 l 219 267 q 272 144 219 192 q 406 97 324 97 q 538 145 486 97 q 590 267 590 193 l 590 944 q 643 975 590 975 l 663 975 q 715 944 715 975 l 715 271 q 635 65 715 139 q 406 -8 554 -8 z "},"Ú":{"ha":810,"x_min":94,"x_max":715,"o":"m 406 -8 q 176 65 257 -8 q 94 271 94 139 l 94 944 q 147 975 94 975 l 167 975 q 219 944 219 975 l 219 267 q 272 144 219 192 q 406 97 324 97 q 538 145 486 97 q 590 267 590 193 l 590 944 q 643 975 590 975 l 663 975 q 715 944 715 975 l 715 271 q 635 65 715 139 q 406 -8 554 -8 m 396 1058 q 367 1072 367 1058 q 384 1119 367 1082 q 435 1226 401 1157 q 513 1263 451 1263 q 557 1258 543 1263 q 571 1244 571 1254 q 558 1218 571 1236 q 521 1164 546 1200 l 463 1083 q 396 1058 446 1058 z "},"Ŭ":{"ha":810,"x_min":94,"x_max":715,"o":"m 406 -8 q 176 65 257 -8 q 94 271 94 139 l 94 944 q 147 975 94 975 l 167 975 q 219 944 219 975 l 219 267 q 272 144 219 192 q 406 97 324 97 q 538 145 486 97 q 590 267 590 193 l 590 944 q 643 975 590 975 l 663 975 q 715 944 715 975 l 715 271 q 635 65 715 139 q 406 -8 554 -8 m 406 1058 q 290 1100 336 1058 q 243 1218 243 1142 q 268 1239 243 1239 q 283 1234 278 1239 q 291 1219 288 1229 q 297 1204 294 1210 q 406 1150 318 1150 q 514 1204 493 1150 q 519 1219 515 1208 q 528 1235 524 1231 q 542 1239 533 1239 q 567 1218 567 1239 q 520 1100 567 1142 q 406 1058 474 1058 z "},"Û":{"ha":810,"x_min":94,"x_max":715,"o":"m 406 -8 q 176 65 257 -8 q 94 271 94 139 l 94 944 q 147 975 94 975 l 167 975 q 219 944 219 975 l 219 267 q 272 144 219 192 q 406 97 324 97 q 538 145 486 97 q 590 267 590 193 l 590 944 q 643 975 590 975 l 663 975 q 715 944 715 975 l 715 271 q 635 65 715 139 q 406 -8 554 -8 m 281 1046 q 261 1051 268 1046 q 254 1064 254 1057 q 264 1090 254 1071 l 336 1213 q 394 1243 356 1243 l 415 1243 q 472 1213 453 1243 l 547 1090 q 556 1067 556 1074 q 549 1051 556 1057 q 529 1046 542 1046 l 501 1046 q 467 1065 479 1046 l 404 1167 l 343 1065 q 307 1046 328 1046 l 281 1046 z "},"Ü":{"ha":810,"x_min":94,"x_max":715,"o":"m 406 -8 q 176 65 257 -8 q 94 271 94 139 l 94 944 q 147 975 94 975 l 167 975 q 219 944 219 975 l 219 267 q 272 144 219 192 q 406 97 324 97 q 538 145 486 97 q 590 267 590 193 l 590 944 q 643 975 590 975 l 663 975 q 715 944 715 975 l 715 271 q 635 65 715 139 q 406 -8 554 -8 m 318 1089 q 265 1119 265 1089 l 265 1190 q 321 1221 265 1221 q 374 1190 374 1221 l 374 1119 q 318 1089 374 1089 m 493 1089 q 440 1119 440 1089 l 440 1190 q 496 1221 440 1221 q 549 1190 549 1221 l 549 1119 q 493 1089 549 1089 z "},"Ụ":{"ha":810,"x_min":94,"x_max":715,"o":"m 406 -8 q 176 65 257 -8 q 94 271 94 139 l 94 944 q 147 975 94 975 l 167 975 q 219 944 219 975 l 219 267 q 272 144 219 192 q 406 97 324 97 q 538 145 486 97 q 590 267 590 193 l 590 944 q 643 975 590 975 l 663 975 q 715 944 715 975 l 715 271 q 635 65 715 139 q 406 -8 554 -8 m 410 -243 q 349 -212 349 -243 l 349 -142 q 413 -111 349 -111 q 474 -142 474 -111 l 474 -212 q 410 -243 474 -243 z "},"Ù":{"ha":810,"x_min":94,"x_max":715,"o":"m 406 -8 q 176 65 257 -8 q 94 271 94 139 l 94 944 q 147 975 94 975 l 167 975 q 219 944 219 975 l 219 267 q 272 144 219 192 q 406 97 324 97 q 538 145 486 97 q 590 267 590 193 l 590 944 q 643 975 590 975 l 663 975 q 715 944 715 975 l 715 271 q 635 65 715 139 q 406 -8 554 -8 m 439 1058 q 374 1083 390 1058 q 280 1210 296 1188 q 264 1244 264 1233 q 278 1258 264 1254 q 322 1263 292 1263 q 401 1226 382 1263 l 429 1168 q 458 1104 447 1128 q 468 1072 468 1081 q 462 1062 468 1065 q 439 1058 456 1058 z "},"Ủ":{"ha":810,"x_min":94,"x_max":715,"o":"m 406 -8 q 176 65 257 -8 q 94 271 94 139 l 94 944 q 147 975 94 975 l 167 975 q 219 944 219 975 l 219 267 q 272 144 219 192 q 406 97 324 97 q 538 145 486 97 q 590 267 590 193 l 590 944 q 643 975 590 975 l 663 975 q 715 944 715 975 l 715 271 q 635 65 715 139 q 406 -8 554 -8 m 415 1028 q 387 1035 404 1028 q 369 1051 369 1043 q 377 1072 369 1064 q 404 1097 385 1081 q 442 1135 428 1117 q 456 1179 456 1153 q 441 1207 456 1197 q 404 1217 426 1217 q 359 1208 374 1217 q 340 1199 344 1199 q 319 1216 332 1199 q 307 1244 307 1233 q 343 1273 307 1258 q 415 1288 379 1288 q 501 1264 461 1288 q 542 1189 542 1240 q 516 1111 542 1147 q 458 1051 490 1075 q 415 1028 426 1028 z "},"Ư":{"ha":792,"x_min":85,"x_max":818,"o":"m 818 1054 q 790 970 818 1003 q 706 932 763 938 l 706 271 q 625 65 706 139 q 396 -8 544 -8 q 166 65 247 -8 q 85 271 85 139 l 85 944 q 138 975 85 975 l 157 975 q 210 944 210 975 l 210 267 q 262 144 210 192 q 396 97 314 97 q 528 145 476 97 q 581 267 581 193 l 581 944 q 633 975 581 975 l 674 975 q 719 988 706 975 q 733 1021 733 1001 q 726 1053 733 1039 q 708 1085 719 1068 q 696 1107 697 1101 q 708 1129 696 1121 l 742 1151 q 758 1157 749 1157 q 799 1122 781 1157 q 818 1054 818 1088 z "},"Ứ":{"ha":792,"x_min":85,"x_max":818,"o":"m 818 1054 q 790 970 818 1003 q 706 932 763 938 l 706 271 q 625 65 706 139 q 396 -8 544 -8 q 166 65 247 -8 q 85 271 85 139 l 85 944 q 138 975 85 975 l 157 975 q 210 944 210 975 l 210 267 q 262 144 210 192 q 396 97 314 97 q 528 145 476 97 q 581 267 581 193 l 581 944 q 633 975 581 975 l 674 975 q 719 988 706 975 q 733 1021 733 1001 q 726 1053 733 1039 q 708 1085 719 1068 q 696 1107 697 1101 q 708 1129 696 1121 l 742 1151 q 758 1157 749 1157 q 799 1122 781 1157 q 818 1054 818 1088 m 386 1058 q 357 1072 357 1058 q 374 1119 357 1082 q 425 1226 392 1157 q 503 1263 442 1263 q 547 1258 533 1263 q 561 1244 561 1254 q 549 1218 561 1236 q 511 1164 536 1200 l 453 1083 q 386 1058 436 1058 z "},"Ự":{"ha":792,"x_min":85,"x_max":818,"o":"m 818 1054 q 790 970 818 1003 q 706 932 763 938 l 706 271 q 625 65 706 139 q 396 -8 544 -8 q 166 65 247 -8 q 85 271 85 139 l 85 944 q 138 975 85 975 l 157 975 q 210 944 210 975 l 210 267 q 262 144 210 192 q 396 97 314 97 q 528 145 476 97 q 581 267 581 193 l 581 944 q 633 975 581 975 l 674 975 q 719 988 706 975 q 733 1021 733 1001 q 726 1053 733 1039 q 708 1085 719 1068 q 696 1107 697 1101 q 708 1129 696 1121 l 742 1151 q 758 1157 749 1157 q 799 1122 781 1157 q 818 1054 818 1088 m 400 -243 q 339 -212 339 -243 l 339 -142 q 403 -111 339 -111 q 464 -142 464 -111 l 464 -212 q 400 -243 464 -243 z "},"Ừ":{"ha":792,"x_min":85,"x_max":818,"o":"m 818 1054 q 790 970 818 1003 q 706 932 763 938 l 706 271 q 625 65 706 139 q 396 -8 544 -8 q 166 65 247 -8 q 85 271 85 139 l 85 944 q 138 975 85 975 l 157 975 q 210 944 210 975 l 210 267 q 262 144 210 192 q 396 97 314 97 q 528 145 476 97 q 581 267 581 193 l 581 944 q 633 975 581 975 l 674 975 q 719 988 706 975 q 733 1021 733 1001 q 726 1053 733 1039 q 708 1085 719 1068 q 696 1107 697 1101 q 708 1129 696 1121 l 742 1151 q 758 1157 749 1157 q 799 1122 781 1157 q 818 1054 818 1088 m 429 1058 q 364 1083 381 1058 q 270 1210 286 1188 q 254 1244 254 1233 q 268 1258 254 1254 q 313 1263 282 1263 q 392 1226 372 1263 l 419 1168 q 448 1104 438 1128 q 458 1072 458 1081 q 452 1062 458 1065 q 429 1058 446 1058 z "},"Ử":{"ha":792,"x_min":85,"x_max":818,"o":"m 818 1054 q 790 970 818 1003 q 706 932 763 938 l 706 271 q 625 65 706 139 q 396 -8 544 -8 q 166 65 247 -8 q 85 271 85 139 l 85 944 q 138 975 85 975 l 157 975 q 210 944 210 975 l 210 267 q 262 144 210 192 q 396 97 314 97 q 528 145 476 97 q 581 267 581 193 l 581 944 q 633 975 581 975 l 674 975 q 719 988 706 975 q 733 1021 733 1001 q 726 1053 733 1039 q 708 1085 719 1068 q 696 1107 697 1101 q 708 1129 696 1121 l 742 1151 q 758 1157 749 1157 q 799 1122 781 1157 q 818 1054 818 1088 m 406 1028 q 377 1035 394 1028 q 360 1051 360 1043 q 367 1072 360 1064 q 394 1097 375 1081 q 432 1135 418 1117 q 446 1179 446 1153 q 431 1207 446 1197 q 394 1217 417 1217 q 349 1208 364 1217 q 331 1199 335 1199 q 310 1216 322 1199 q 297 1244 297 1233 q 333 1273 297 1258 q 406 1288 369 1288 q 492 1264 451 1288 q 532 1189 532 1240 q 506 1111 532 1147 q 449 1051 481 1075 q 406 1028 417 1028 z "},"Ữ":{"ha":792,"x_min":85,"x_max":818,"o":"m 818 1054 q 790 970 818 1003 q 706 932 763 938 l 706 271 q 625 65 706 139 q 396 -8 544 -8 q 166 65 247 -8 q 85 271 85 139 l 85 944 q 138 975 85 975 l 157 975 q 210 944 210 975 l 210 267 q 262 144 210 192 q 396 97 314 97 q 528 145 476 97 q 581 267 581 193 l 581 944 q 633 975 581 975 l 674 975 q 719 988 706 975 q 733 1021 733 1001 q 726 1053 733 1039 q 708 1085 719 1068 q 696 1107 697 1101 q 708 1129 696 1121 l 742 1151 q 758 1157 749 1157 q 799 1122 781 1157 q 818 1054 818 1088 m 206 1074 q 192 1090 192 1079 q 196 1108 192 1099 q 244 1182 217 1160 q 311 1204 271 1204 q 352 1197 332 1204 q 407 1175 372 1190 q 488 1149 463 1149 q 515 1156 503 1149 q 540 1185 526 1164 q 567 1206 551 1206 q 582 1201 574 1206 l 592 1197 q 605 1190 601 1193 q 608 1181 608 1186 q 603 1161 608 1172 q 555 1088 582 1110 q 489 1067 528 1067 q 443 1074 467 1067 q 388 1097 419 1082 q 345 1115 367 1107 q 308 1122 324 1122 q 283 1114 294 1122 q 258 1085 272 1106 q 235 1065 247 1065 q 219 1068 231 1065 l 206 1074 z "},"Ű":{"ha":810,"x_min":94,"x_max":715,"o":"m 406 -8 q 176 65 257 -8 q 94 271 94 139 l 94 944 q 147 975 94 975 l 167 975 q 219 944 219 975 l 219 267 q 272 144 219 192 q 406 97 324 97 q 538 145 486 97 q 590 267 590 193 l 590 944 q 643 975 590 975 l 663 975 q 715 944 715 975 l 715 271 q 635 65 715 139 q 406 -8 554 -8 m 285 1058 q 256 1072 256 1058 q 264 1097 256 1079 q 286 1146 272 1115 l 324 1226 q 401 1263 340 1263 q 446 1258 432 1263 q 460 1244 460 1254 q 447 1216 460 1236 q 403 1154 433 1196 l 351 1083 q 285 1058 332 1058 m 463 1058 q 433 1072 433 1058 q 442 1097 433 1079 q 464 1146 450 1115 l 501 1226 q 579 1263 518 1263 q 624 1258 610 1263 q 638 1244 638 1254 q 619 1205 638 1232 q 529 1083 601 1178 q 463 1058 510 1058 z "},"Ū":{"ha":810,"x_min":94,"x_max":715,"o":"m 406 -8 q 176 65 257 -8 q 94 271 94 139 l 94 944 q 147 975 94 975 l 167 975 q 219 944 219 975 l 219 267 q 272 144 219 192 q 406 97 324 97 q 538 145 486 97 q 590 267 590 193 l 590 944 q 643 975 590 975 l 663 975 q 715 944 715 975 l 715 271 q 635 65 715 139 q 406 -8 554 -8 m 272 1096 q 246 1138 246 1096 l 246 1151 q 272 1193 246 1193 l 549 1193 q 569 1183 563 1193 q 575 1151 575 1174 l 575 1138 q 569 1106 575 1115 q 549 1096 563 1096 l 272 1096 z "},"Ų":{"ha":810,"x_min":94,"x_max":715,"o":"m 715 271 q 681 123 715 185 q 579 28 646 61 q 553 -31 563 -1 q 544 -82 544 -61 q 614 -142 544 -142 q 644 -137 625 -142 q 669 -132 664 -132 q 697 -165 697 -132 q 679 -203 697 -190 q 588 -229 640 -229 q 486 -190 513 -229 q 460 -107 460 -150 q 485 -1 460 -57 q 406 -8 443 -8 q 176 65 257 -8 q 94 271 94 139 l 94 944 q 147 975 94 975 l 167 975 q 219 944 219 975 l 219 267 q 272 144 219 192 q 406 97 324 97 q 538 145 486 97 q 590 267 590 193 l 590 944 q 643 975 590 975 l 663 975 q 715 944 715 975 l 715 271 z "},"Ů":{"ha":810,"x_min":94,"x_max":715,"o":"m 406 -8 q 176 65 257 -8 q 94 271 94 139 l 94 944 q 147 975 94 975 l 167 975 q 219 944 219 975 l 219 267 q 272 144 219 192 q 406 97 324 97 q 538 145 486 97 q 590 267 590 193 l 590 944 q 643 975 590 975 l 663 975 q 715 944 715 975 l 715 271 q 635 65 715 139 q 406 -8 554 -8 m 403 1029 q 319 1061 351 1029 q 288 1146 288 1093 q 319 1231 288 1199 q 403 1264 351 1264 q 488 1231 456 1264 q 519 1146 519 1199 q 488 1061 519 1093 q 403 1029 456 1029 m 403 1078 q 451 1096 433 1078 q 468 1146 468 1114 q 451 1197 468 1178 q 403 1215 433 1215 q 356 1197 372 1215 q 338 1146 339 1179 q 356 1095 339 1113 q 403 1078 372 1078 z "},"Ũ":{"ha":810,"x_min":94,"x_max":715,"o":"m 406 -8 q 176 65 257 -8 q 94 271 94 139 l 94 944 q 147 975 94 975 l 167 975 q 219 944 219 975 l 219 267 q 272 144 219 192 q 406 97 324 97 q 538 145 486 97 q 590 267 590 193 l 590 944 q 643 975 590 975 l 663 975 q 715 944 715 975 l 715 271 q 635 65 715 139 q 406 -8 554 -8 m 215 1074 q 201 1090 201 1079 q 206 1108 201 1099 q 253 1182 226 1160 q 321 1204 281 1204 q 362 1197 342 1204 q 417 1175 382 1190 q 497 1149 472 1149 q 524 1156 513 1149 q 550 1185 536 1164 q 576 1206 561 1206 q 592 1201 583 1206 l 601 1197 q 615 1190 611 1193 q 618 1181 618 1186 q 613 1161 618 1172 q 565 1088 592 1110 q 499 1067 538 1067 q 453 1074 476 1067 q 397 1097 429 1082 q 355 1115 376 1107 q 318 1122 333 1122 q 293 1114 304 1122 q 268 1085 282 1106 q 244 1065 257 1065 q 229 1068 240 1065 l 215 1074 z "},"V":{"ha":706,"x_min":26,"x_max":678,"o":"m 322 -3 q 272 19 278 -3 l 31 933 q 28 942 29 938 q 26 951 26 946 q 82 975 26 975 l 101 975 q 153 953 146 975 l 339 214 l 350 142 l 354 142 l 367 215 l 554 953 q 606 975 560 975 l 622 975 q 678 951 678 975 q 674 932 678 944 l 432 19 q 381 -3 426 -3 l 322 -3 z "},"W":{"ha":1044,"x_min":26,"x_max":1019,"o":"m 272 -3 q 222 19 226 -3 l 29 932 l 26 949 q 82 975 26 975 l 100 975 q 154 953 150 975 l 282 282 q 300 163 290 240 l 304 128 l 332 286 l 461 951 q 511 975 467 975 l 539 975 q 589 951 583 975 l 719 283 q 743 128 731 232 l 769 282 l 893 953 q 949 975 897 975 l 964 975 q 1019 949 1019 975 l 1017 932 l 822 19 q 772 -3 818 -3 l 717 -3 q 667 19 671 -3 l 544 604 l 522 778 l 500 604 l 378 19 q 328 -3 374 -3 l 272 -3 z "},"Ẃ":{"ha":1044,"x_min":26,"x_max":1019,"o":"m 272 -3 q 222 19 226 -3 l 29 932 l 26 949 q 82 975 26 975 l 100 975 q 154 953 150 975 l 282 282 q 300 163 290 240 l 304 128 l 332 286 l 461 951 q 511 975 467 975 l 539 975 q 589 951 583 975 l 719 283 q 743 128 731 232 l 769 282 l 893 953 q 949 975 897 975 l 964 975 q 1019 949 1019 975 l 1017 932 l 822 19 q 772 -3 818 -3 l 717 -3 q 667 19 671 -3 l 544 604 l 522 778 l 500 604 l 378 19 q 328 -3 374 -3 l 272 -3 m 513 1058 q 483 1072 483 1058 q 501 1119 483 1082 q 551 1226 518 1157 q 629 1263 568 1263 q 674 1258 660 1263 q 688 1244 688 1254 q 675 1218 688 1236 q 638 1164 663 1200 l 579 1083 q 513 1058 563 1058 z "},"Ŵ":{"ha":1044,"x_min":26,"x_max":1019,"o":"m 272 -3 q 222 19 226 -3 l 29 932 l 26 949 q 82 975 26 975 l 100 975 q 154 953 150 975 l 282 282 q 300 163 290 240 l 304 128 l 332 286 l 461 951 q 511 975 467 975 l 539 975 q 589 951 583 975 l 719 283 q 743 128 731 232 l 769 282 l 893 953 q 949 975 897 975 l 964 975 q 1019 949 1019 975 l 1017 932 l 822 19 q 772 -3 818 -3 l 717 -3 q 667 19 671 -3 l 544 604 l 522 778 l 500 604 l 378 19 q 328 -3 374 -3 l 272 -3 m 397 1046 q 378 1051 385 1046 q 371 1064 371 1057 q 381 1090 371 1071 l 453 1213 q 511 1243 472 1243 l 532 1243 q 589 1213 569 1243 l 664 1090 q 672 1067 672 1074 q 665 1051 672 1057 q 646 1046 658 1046 l 618 1046 q 583 1065 596 1046 l 521 1167 l 460 1065 q 424 1046 444 1046 l 397 1046 z "},"Ẅ":{"ha":1044,"x_min":26,"x_max":1019,"o":"m 272 -3 q 222 19 226 -3 l 29 932 l 26 949 q 82 975 26 975 l 100 975 q 154 953 150 975 l 282 282 q 300 163 290 240 l 304 128 l 332 286 l 461 951 q 511 975 467 975 l 539 975 q 589 951 583 975 l 719 283 q 743 128 731 232 l 769 282 l 893 953 q 949 975 897 975 l 964 975 q 1019 949 1019 975 l 1017 932 l 822 19 q 772 -3 818 -3 l 717 -3 q 667 19 671 -3 l 544 604 l 522 778 l 500 604 l 378 19 q 328 -3 374 -3 l 272 -3 m 435 1089 q 382 1119 382 1089 l 382 1190 q 438 1221 382 1221 q 490 1190 490 1221 l 490 1119 q 435 1089 490 1089 m 610 1089 q 557 1119 557 1089 l 557 1190 q 613 1221 557 1221 q 665 1190 665 1221 l 665 1119 q 610 1089 665 1089 z "},"Ẁ":{"ha":1044,"x_min":26,"x_max":1019,"o":"m 272 -3 q 222 19 226 -3 l 29 932 l 26 949 q 82 975 26 975 l 100 975 q 154 953 150 975 l 282 282 q 300 163 290 240 l 304 128 l 332 286 l 461 951 q 511 975 467 975 l 539 975 q 589 951 583 975 l 719 283 q 743 128 731 232 l 769 282 l 893 953 q 949 975 897 975 l 964 975 q 1019 949 1019 975 l 1017 932 l 822 19 q 772 -3 818 -3 l 717 -3 q 667 19 671 -3 l 544 604 l 522 778 l 500 604 l 378 19 q 328 -3 374 -3 l 272 -3 m 556 1058 q 490 1083 507 1058 q 397 1210 413 1188 q 381 1244 381 1233 q 394 1258 381 1254 q 439 1263 408 1263 q 518 1226 499 1263 l 546 1168 q 574 1104 564 1128 q 585 1072 585 1081 q 578 1062 585 1065 q 556 1058 572 1058 z "},"X":{"ha":703,"x_min":29,"x_max":675,"o":"m 88 -3 q 43 3 57 -3 q 29 21 29 8 q 39 46 29 26 l 272 507 l 65 926 q 56 951 56 943 q 114 975 56 975 l 142 975 q 176 971 163 975 q 194 954 189 967 l 354 606 l 521 956 q 540 971 526 967 q 575 975 553 975 l 594 975 q 639 969 625 975 q 653 951 653 964 q 643 926 653 946 l 432 514 l 665 46 q 675 21 675 26 q 617 -3 675 -3 l 589 -3 q 535 18 546 -3 l 351 414 l 163 17 q 144 1 157 6 q 108 -3 131 -3 l 88 -3 z "},"Y":{"ha":672,"x_min":28,"x_max":644,"o":"m 326 -3 q 274 28 274 -3 l 274 440 l 38 926 q 28 951 28 943 q 86 975 28 975 l 111 975 q 147 971 135 975 q 165 954 160 967 l 340 563 l 517 956 q 535 971 521 967 q 572 975 550 975 l 592 975 q 632 968 619 974 q 644 951 644 963 q 636 926 644 942 l 399 436 l 399 28 q 346 -3 399 -3 l 326 -3 z "},"Ý":{"ha":672,"x_min":28,"x_max":644,"o":"m 326 -3 q 274 28 274 -3 l 274 440 l 38 926 q 28 951 28 943 q 86 975 28 975 l 111 975 q 147 971 135 975 q 165 954 160 967 l 340 563 l 517 956 q 535 971 521 967 q 572 975 550 975 l 592 975 q 632 968 619 974 q 644 951 644 963 q 636 926 644 942 l 399 436 l 399 28 q 346 -3 399 -3 l 326 -3 m 326 1058 q 297 1072 297 1058 q 315 1119 297 1082 q 365 1226 332 1157 q 443 1263 382 1263 q 488 1258 474 1263 q 501 1244 501 1254 q 489 1218 501 1236 q 451 1164 476 1200 l 393 1083 q 326 1058 376 1058 z "},"Ŷ":{"ha":672,"x_min":28,"x_max":644,"o":"m 326 -3 q 274 28 274 -3 l 274 440 l 38 926 q 28 951 28 943 q 86 975 28 975 l 111 975 q 147 971 135 975 q 165 954 160 967 l 340 563 l 517 956 q 535 971 521 967 q 572 975 550 975 l 592 975 q 632 968 619 974 q 644 951 644 963 q 636 926 644 942 l 399 436 l 399 28 q 346 -3 399 -3 l 326 -3 m 211 1046 q 192 1051 199 1046 q 185 1064 185 1057 q 194 1090 185 1071 l 267 1213 q 325 1243 286 1243 l 346 1243 q 403 1213 383 1243 l 478 1090 q 486 1067 486 1074 q 479 1051 486 1057 q 460 1046 472 1046 l 432 1046 q 397 1065 410 1046 l 335 1167 l 274 1065 q 238 1046 258 1046 l 211 1046 z "},"Ÿ":{"ha":672,"x_min":28,"x_max":644,"o":"m 326 -3 q 274 28 274 -3 l 274 440 l 38 926 q 28 951 28 943 q 86 975 28 975 l 111 975 q 147 971 135 975 q 165 954 160 967 l 340 563 l 517 956 q 535 971 521 967 q 572 975 550 975 l 592 975 q 632 968 619 974 q 644 951 644 963 q 636 926 644 942 l 399 436 l 399 28 q 346 -3 399 -3 l 326 -3 m 249 1089 q 196 1119 196 1089 l 196 1190 q 251 1221 196 1221 q 304 1190 304 1221 l 304 1119 q 249 1089 304 1089 m 424 1089 q 371 1119 371 1089 l 371 1190 q 426 1221 371 1221 q 479 1190 479 1221 l 479 1119 q 424 1089 479 1089 z "},"Ỵ":{"ha":672,"x_min":28,"x_max":644,"o":"m 326 -3 q 274 28 274 -3 l 274 440 l 38 926 q 28 951 28 943 q 86 975 28 975 l 111 975 q 147 971 135 975 q 165 954 160 967 l 340 563 l 517 956 q 535 971 521 967 q 572 975 550 975 l 592 975 q 632 968 619 974 q 644 951 644 963 q 636 926 644 942 l 399 436 l 399 28 q 346 -3 399 -3 l 326 -3 m 339 -243 q 278 -212 278 -243 l 278 -142 q 342 -111 278 -111 q 403 -142 403 -111 l 403 -212 q 339 -243 403 -243 z "},"Ỳ":{"ha":672,"x_min":28,"x_max":644,"o":"m 326 -3 q 274 28 274 -3 l 274 440 l 38 926 q 28 951 28 943 q 86 975 28 975 l 111 975 q 147 971 135 975 q 165 954 160 967 l 340 563 l 517 956 q 535 971 521 967 q 572 975 550 975 l 592 975 q 632 968 619 974 q 644 951 644 963 q 636 926 644 942 l 399 436 l 399 28 q 346 -3 399 -3 l 326 -3 m 369 1058 q 304 1083 321 1058 q 210 1210 226 1188 q 194 1244 194 1233 q 208 1258 194 1254 q 253 1263 222 1263 q 332 1226 313 1263 l 360 1168 q 388 1104 378 1128 q 399 1072 399 1081 q 392 1062 399 1065 q 369 1058 386 1058 z "},"Ỷ":{"ha":672,"x_min":28,"x_max":644,"o":"m 326 -3 q 274 28 274 -3 l 274 440 l 38 926 q 28 951 28 943 q 86 975 28 975 l 111 975 q 147 971 135 975 q 165 954 160 967 l 340 563 l 517 956 q 535 971 521 967 q 572 975 550 975 l 592 975 q 632 968 619 974 q 644 951 644 963 q 636 926 644 942 l 399 436 l 399 28 q 346 -3 399 -3 l 326 -3 m 346 1028 q 317 1035 335 1028 q 300 1051 300 1043 q 308 1072 300 1064 q 335 1097 315 1081 q 372 1135 358 1117 q 386 1179 386 1153 q 372 1207 386 1197 q 335 1217 357 1217 q 290 1208 304 1217 q 271 1199 275 1199 q 250 1216 263 1199 q 238 1244 238 1233 q 274 1273 238 1258 q 346 1288 310 1288 q 432 1264 392 1288 q 472 1189 472 1240 q 447 1111 472 1147 q 389 1051 421 1075 q 346 1028 357 1028 z "},"Ỹ":{"ha":672,"x_min":28,"x_max":644,"o":"m 326 -3 q 274 28 274 -3 l 274 440 l 38 926 q 28 951 28 943 q 86 975 28 975 l 111 975 q 147 971 135 975 q 165 954 160 967 l 340 563 l 517 956 q 535 971 521 967 q 572 975 550 975 l 592 975 q 632 968 619 974 q 644 951 644 963 q 636 926 644 942 l 399 436 l 399 28 q 346 -3 399 -3 l 326 -3 m 146 1074 q 132 1090 132 1079 q 136 1108 132 1099 q 184 1182 157 1160 q 251 1204 211 1204 q 292 1197 272 1204 q 347 1175 313 1190 q 428 1149 403 1149 q 455 1156 443 1149 q 481 1185 467 1164 q 507 1206 492 1206 q 522 1201 514 1206 l 532 1197 q 545 1190 542 1193 q 549 1181 549 1186 q 543 1161 549 1172 q 495 1088 522 1110 q 429 1067 468 1067 q 383 1074 407 1067 q 328 1097 360 1082 q 285 1115 307 1107 q 249 1122 264 1122 q 224 1114 235 1122 q 199 1085 213 1106 q 175 1065 188 1065 q 160 1068 171 1065 l 146 1074 z "},"Z":{"ha":704,"x_min":47,"x_max":647,"o":"m 81 0 q 58 26 69 0 q 47 74 47 51 q 50 90 47 82 l 496 867 l 108 867 q 89 878 94 867 q 83 914 83 889 l 83 925 q 89 961 83 950 q 108 972 94 972 l 617 972 q 637 947 626 972 q 647 899 647 921 q 646 882 647 886 l 203 106 l 621 106 q 647 58 647 106 l 647 47 q 621 0 647 0 l 81 0 z "},"Ź":{"ha":704,"x_min":47,"x_max":647,"o":"m 81 0 q 58 26 69 0 q 47 74 47 51 q 50 90 47 82 l 496 867 l 108 867 q 89 878 94 867 q 83 914 83 889 l 83 925 q 89 961 83 950 q 108 972 94 972 l 617 972 q 637 947 626 972 q 647 899 647 921 q 646 882 647 886 l 203 106 l 621 106 q 647 58 647 106 l 647 47 q 621 0 647 0 l 81 0 m 347 1058 q 318 1072 318 1058 q 335 1119 318 1082 q 386 1226 353 1157 q 464 1263 403 1263 q 508 1258 494 1263 q 522 1244 522 1254 q 510 1218 522 1236 q 472 1164 497 1200 l 414 1083 q 347 1058 397 1058 z "},"Ž":{"ha":704,"x_min":47,"x_max":647,"o":"m 81 0 q 58 26 69 0 q 47 74 47 51 q 50 90 47 82 l 496 867 l 108 867 q 89 878 94 867 q 83 914 83 889 l 83 925 q 89 961 83 950 q 108 972 94 972 l 617 972 q 637 947 626 972 q 647 899 647 921 q 646 882 647 886 l 203 106 l 621 106 q 647 58 647 106 l 647 47 q 621 0 647 0 l 81 0 m 347 1056 q 289 1086 307 1056 l 217 1208 q 207 1233 207 1225 q 214 1247 207 1242 q 233 1253 221 1253 l 260 1253 q 296 1232 282 1253 l 357 1132 l 419 1232 q 454 1253 432 1253 l 482 1253 q 501 1247 494 1253 q 508 1232 508 1242 q 500 1208 508 1225 l 425 1086 q 368 1056 407 1056 l 347 1056 z "},"Ż":{"ha":704,"x_min":47,"x_max":647,"o":"m 81 0 q 58 26 69 0 q 47 74 47 51 q 50 90 47 82 l 496 867 l 108 867 q 89 878 94 867 q 83 914 83 889 l 83 925 q 89 961 83 950 q 108 972 94 972 l 617 972 q 637 947 626 972 q 647 899 647 921 q 646 882 647 886 l 203 106 l 621 106 q 647 58 647 106 l 647 47 q 621 0 647 0 l 81 0 m 357 1089 q 296 1119 296 1089 l 296 1190 q 360 1221 296 1221 q 421 1190 421 1221 l 421 1119 q 357 1089 421 1089 z "},"Ẓ":{"ha":704,"x_min":47,"x_max":647,"o":"m 81 0 q 58 26 69 0 q 47 74 47 51 q 50 90 47 82 l 496 867 l 108 867 q 89 878 94 867 q 83 914 83 889 l 83 925 q 89 961 83 950 q 108 972 94 972 l 617 972 q 637 947 626 972 q 647 899 647 921 q 646 882 647 886 l 203 106 l 621 106 q 647 58 647 106 l 647 47 q 621 0 647 0 l 81 0 m 367 -243 q 306 -212 306 -243 l 306 -142 q 369 -111 306 -111 q 431 -142 431 -111 l 431 -212 q 367 -243 431 -243 z "},"a":{"ha":668,"x_min":71,"x_max":578,"o":"m 274 -8 q 126 48 181 -8 q 71 207 71 104 q 125 367 71 311 q 260 441 179 422 q 444 461 340 460 l 444 526 q 415 604 444 574 q 324 635 386 635 q 238 623 275 635 q 175 598 201 611 q 144 585 149 585 q 113 612 131 585 q 96 653 96 639 q 128 690 96 671 q 215 722 161 710 q 325 735 268 735 q 499 679 436 735 q 561 525 561 624 l 561 206 q 569 74 561 114 q 578 31 578 35 q 551 6 578 14 q 503 -1 525 -1 q 472 20 482 -1 q 454 81 463 42 q 274 -8 381 -8 m 297 101 q 444 181 388 101 l 444 360 q 316 349 367 358 q 229 306 265 339 q 193 208 193 274 q 297 101 193 101 z "},"á":{"ha":668,"x_min":71,"x_max":578,"o":"m 274 -8 q 126 48 181 -8 q 71 207 71 104 q 125 367 71 311 q 260 441 179 422 q 444 461 340 460 l 444 526 q 415 604 444 574 q 324 635 386 635 q 238 623 275 635 q 175 598 201 611 q 144 585 149 585 q 113 612 131 585 q 96 653 96 639 q 128 690 96 671 q 215 722 161 710 q 325 735 268 735 q 499 679 436 735 q 561 525 561 624 l 561 206 q 569 74 561 114 q 578 31 578 35 q 551 6 578 14 q 503 -1 525 -1 q 472 20 482 -1 q 454 81 463 42 q 274 -8 381 -8 m 297 101 q 444 181 388 101 l 444 360 q 316 349 367 358 q 229 306 265 339 q 193 208 193 274 q 297 101 193 101 m 329 813 q 300 826 300 813 q 317 874 300 836 q 368 981 335 911 q 446 1017 385 1017 q 490 1013 476 1017 q 504 999 504 1008 q 492 972 504 990 q 454 918 479 954 l 396 838 q 329 813 379 813 z "},"ă":{"ha":668,"x_min":71,"x_max":578,"o":"m 274 -8 q 126 48 181 -8 q 71 207 71 104 q 125 367 71 311 q 260 441 179 422 q 444 461 340 460 l 444 526 q 415 604 444 574 q 324 635 386 635 q 238 623 275 635 q 175 598 201 611 q 144 585 149 585 q 113 612 131 585 q 96 653 96 639 q 128 690 96 671 q 215 722 161 710 q 325 735 268 735 q 499 679 436 735 q 561 525 561 624 l 561 206 q 569 74 561 114 q 578 31 578 35 q 551 6 578 14 q 503 -1 525 -1 q 472 20 482 -1 q 454 81 463 42 q 274 -8 381 -8 m 297 101 q 444 181 388 101 l 444 360 q 316 349 367 358 q 229 306 265 339 q 193 208 193 274 q 297 101 193 101 m 339 813 q 223 854 269 813 q 176 972 176 896 q 201 993 176 993 q 216 988 211 993 q 224 974 221 983 q 231 958 228 964 q 339 904 251 904 q 447 958 426 904 q 453 974 449 963 q 462 989 457 985 q 475 993 467 993 q 500 972 500 993 q 453 854 500 896 q 339 813 407 813 z "},"ắ":{"ha":668,"x_min":71,"x_max":578,"o":"m 274 -8 q 126 48 181 -8 q 71 207 71 104 q 125 367 71 311 q 260 441 179 422 q 444 461 340 460 l 444 526 q 415 604 444 574 q 324 635 386 635 q 238 623 275 635 q 175 598 201 611 q 144 585 149 585 q 113 612 131 585 q 96 653 96 639 q 128 690 96 671 q 215 722 161 710 q 325 735 268 735 q 499 679 436 735 q 561 525 561 624 l 561 206 q 569 74 561 114 q 578 31 578 35 q 551 6 578 14 q 503 -1 525 -1 q 472 20 482 -1 q 454 81 463 42 q 274 -8 381 -8 m 297 101 q 444 181 388 101 l 444 360 q 316 349 367 358 q 229 306 265 339 q 193 208 193 274 q 297 101 193 101 m 339 813 q 223 854 269 813 q 176 972 176 896 q 201 993 176 993 q 216 988 211 993 q 224 974 221 983 q 231 958 228 964 q 339 904 251 904 q 447 958 426 904 q 453 974 449 963 q 462 989 457 985 q 475 993 467 993 q 500 972 500 993 q 453 854 500 896 q 339 813 407 813 m 328 1058 q 299 1072 299 1058 q 316 1119 299 1082 q 367 1226 333 1157 q 444 1263 383 1263 q 489 1258 475 1263 q 503 1244 503 1254 q 490 1218 503 1236 q 453 1164 478 1200 l 394 1083 q 328 1058 378 1058 z "},"ặ":{"ha":668,"x_min":71,"x_max":578,"o":"m 274 -8 q 126 48 181 -8 q 71 207 71 104 q 125 367 71 311 q 260 441 179 422 q 444 461 340 460 l 444 526 q 415 604 444 574 q 324 635 386 635 q 238 623 275 635 q 175 598 201 611 q 144 585 149 585 q 113 612 131 585 q 96 653 96 639 q 128 690 96 671 q 215 722 161 710 q 325 735 268 735 q 499 679 436 735 q 561 525 561 624 l 561 206 q 569 74 561 114 q 578 31 578 35 q 551 6 578 14 q 503 -1 525 -1 q 472 20 482 -1 q 454 81 463 42 q 274 -8 381 -8 m 297 101 q 444 181 388 101 l 444 360 q 316 349 367 358 q 229 306 265 339 q 193 208 193 274 q 297 101 193 101 m 328 -243 q 267 -212 267 -243 l 267 -142 q 331 -111 267 -111 q 392 -142 392 -111 l 392 -212 q 328 -243 392 -243 m 339 813 q 223 854 269 813 q 176 972 176 896 q 201 993 176 993 q 216 988 211 993 q 224 974 221 983 q 231 958 228 964 q 339 904 251 904 q 447 958 426 904 q 453 974 449 963 q 462 989 457 985 q 475 993 467 993 q 500 972 500 993 q 453 854 500 896 q 339 813 407 813 z "},"ằ":{"ha":668,"x_min":71,"x_max":578,"o":"m 274 -8 q 126 48 181 -8 q 71 207 71 104 q 125 367 71 311 q 260 441 179 422 q 444 461 340 460 l 444 526 q 415 604 444 574 q 324 635 386 635 q 238 623 275 635 q 175 598 201 611 q 144 585 149 585 q 113 612 131 585 q 96 653 96 639 q 128 690 96 671 q 215 722 161 710 q 325 735 268 735 q 499 679 436 735 q 561 525 561 624 l 561 206 q 569 74 561 114 q 578 31 578 35 q 551 6 578 14 q 503 -1 525 -1 q 472 20 482 -1 q 454 81 463 42 q 274 -8 381 -8 m 297 101 q 444 181 388 101 l 444 360 q 316 349 367 358 q 229 306 265 339 q 193 208 193 274 q 297 101 193 101 m 339 813 q 223 854 269 813 q 176 972 176 896 q 201 993 176 993 q 216 988 211 993 q 224 974 221 983 q 231 958 228 964 q 339 904 251 904 q 447 958 426 904 q 453 974 449 963 q 462 989 457 985 q 475 993 467 993 q 500 972 500 993 q 453 854 500 896 q 339 813 407 813 m 371 1058 q 306 1083 322 1058 q 212 1210 228 1188 q 196 1244 196 1233 q 210 1258 196 1254 q 254 1263 224 1263 q 333 1226 314 1263 l 361 1168 q 390 1104 379 1128 q 400 1072 400 1081 q 394 1062 400 1065 q 371 1058 388 1058 z "},"ẳ":{"ha":668,"x_min":71,"x_max":578,"o":"m 274 -8 q 126 48 181 -8 q 71 207 71 104 q 125 367 71 311 q 260 441 179 422 q 444 461 340 460 l 444 526 q 415 604 444 574 q 324 635 386 635 q 238 623 275 635 q 175 598 201 611 q 144 585 149 585 q 113 612 131 585 q 96 653 96 639 q 128 690 96 671 q 215 722 161 710 q 325 735 268 735 q 499 679 436 735 q 561 525 561 624 l 561 206 q 569 74 561 114 q 578 31 578 35 q 551 6 578 14 q 503 -1 525 -1 q 472 20 482 -1 q 454 81 463 42 q 274 -8 381 -8 m 297 101 q 444 181 388 101 l 444 360 q 316 349 367 358 q 229 306 265 339 q 193 208 193 274 q 297 101 193 101 m 339 813 q 223 854 269 813 q 176 972 176 896 q 201 993 176 993 q 216 988 211 993 q 224 974 221 983 q 231 958 228 964 q 339 904 251 904 q 447 958 426 904 q 453 974 449 963 q 462 989 457 985 q 475 993 467 993 q 500 972 500 993 q 453 854 500 896 q 339 813 407 813 m 347 1028 q 319 1035 336 1028 q 301 1051 301 1043 q 309 1072 301 1064 q 336 1097 317 1081 q 374 1135 360 1117 q 388 1179 388 1153 q 373 1207 388 1197 q 336 1217 358 1217 q 291 1208 306 1217 q 272 1199 276 1199 q 251 1216 264 1199 q 239 1244 239 1233 q 275 1273 239 1258 q 347 1288 311 1288 q 433 1264 393 1288 q 474 1189 474 1240 q 448 1111 474 1147 q 390 1051 422 1075 q 347 1028 358 1028 z "},"ẵ":{"ha":668,"x_min":71,"x_max":578,"o":"m 274 -8 q 126 48 181 -8 q 71 207 71 104 q 125 367 71 311 q 260 441 179 422 q 444 461 340 460 l 444 526 q 415 604 444 574 q 324 635 386 635 q 238 623 275 635 q 175 598 201 611 q 144 585 149 585 q 113 612 131 585 q 96 653 96 639 q 128 690 96 671 q 215 722 161 710 q 325 735 268 735 q 499 679 436 735 q 561 525 561 624 l 561 206 q 569 74 561 114 q 578 31 578 35 q 551 6 578 14 q 503 -1 525 -1 q 472 20 482 -1 q 454 81 463 42 q 274 -8 381 -8 m 297 101 q 444 181 388 101 l 444 360 q 316 349 367 358 q 229 306 265 339 q 193 208 193 274 q 297 101 193 101 m 339 813 q 223 854 269 813 q 176 972 176 896 q 201 993 176 993 q 216 988 211 993 q 224 974 221 983 q 231 958 228 964 q 339 904 251 904 q 447 958 426 904 q 453 974 449 963 q 462 989 457 985 q 475 993 467 993 q 500 972 500 993 q 453 854 500 896 q 339 813 407 813 m 147 1074 q 133 1090 133 1079 q 138 1108 133 1099 q 185 1182 158 1160 q 253 1204 213 1204 q 294 1197 274 1204 q 349 1175 314 1190 q 429 1149 404 1149 q 456 1156 444 1149 q 482 1185 468 1164 q 508 1206 493 1206 q 524 1201 515 1206 l 533 1197 q 547 1190 543 1193 q 550 1181 550 1186 q 544 1161 550 1172 q 497 1088 524 1110 q 431 1067 469 1067 q 385 1074 408 1067 q 329 1097 361 1082 q 287 1115 308 1107 q 250 1122 265 1122 q 225 1114 236 1122 q 200 1085 214 1106 q 176 1065 189 1065 q 161 1068 172 1065 l 147 1074 z "},"â":{"ha":668,"x_min":71,"x_max":578,"o":"m 274 -8 q 126 48 181 -8 q 71 207 71 104 q 125 367 71 311 q 260 441 179 422 q 444 461 340 460 l 444 526 q 415 604 444 574 q 324 635 386 635 q 238 623 275 635 q 175 598 201 611 q 144 585 149 585 q 113 612 131 585 q 96 653 96 639 q 128 690 96 671 q 215 722 161 710 q 325 735 268 735 q 499 679 436 735 q 561 525 561 624 l 561 206 q 569 74 561 114 q 578 31 578 35 q 551 6 578 14 q 503 -1 525 -1 q 472 20 482 -1 q 454 81 463 42 q 274 -8 381 -8 m 297 101 q 444 181 388 101 l 444 360 q 316 349 367 358 q 229 306 265 339 q 193 208 193 274 q 297 101 193 101 m 214 800 q 194 806 201 800 q 188 818 188 811 q 197 844 188 825 l 269 967 q 328 997 289 997 l 349 997 q 406 967 386 997 l 481 844 q 489 821 489 828 q 482 806 489 811 q 463 800 475 800 l 435 800 q 400 819 413 800 l 338 921 l 276 819 q 240 800 261 800 l 214 800 z "},"ấ":{"ha":618,"x_min":71,"x_max":624,"o":"m 449 1003 q 419 1017 419 1003 q 437 1064 419 1026 q 488 1171 454 1101 q 565 1207 504 1207 q 610 1203 596 1207 q 624 1189 624 1199 q 611 1163 624 1181 q 574 1108 599 1144 l 515 1028 q 449 1003 499 1003 m 193 800 q 174 806 181 800 q 167 818 167 811 q 174 844 167 831 l 240 967 q 299 997 258 997 l 321 997 q 376 967 360 997 l 443 844 q 453 821 453 831 q 445 806 453 811 q 425 800 438 800 l 399 800 q 379 805 389 800 q 364 818 369 810 l 308 921 l 254 818 q 240 803 249 807 q 218 800 232 800 l 193 800 m 274 -8 q 126 48 181 -8 q 71 207 71 104 q 125 367 71 311 q 260 441 179 422 q 444 461 340 460 l 444 526 q 415 604 444 574 q 324 635 386 635 q 238 623 275 635 q 175 598 201 611 q 144 585 149 585 q 113 612 131 585 q 96 653 96 639 q 128 690 96 671 q 215 722 161 710 q 325 735 268 735 q 499 679 436 735 q 561 525 561 624 l 561 206 q 569 74 561 114 q 578 31 578 35 q 551 6 578 14 q 503 -1 525 -1 q 472 20 482 -1 q 454 81 463 42 q 274 -8 381 -8 m 297 101 q 444 181 388 101 l 444 360 q 316 349 367 358 q 229 306 265 339 q 193 208 193 274 q 297 101 193 101 z "},"ậ":{"ha":668,"x_min":71,"x_max":578,"o":"m 274 -8 q 126 48 181 -8 q 71 207 71 104 q 125 367 71 311 q 260 441 179 422 q 444 461 340 460 l 444 526 q 415 604 444 574 q 324 635 386 635 q 238 623 275 635 q 175 598 201 611 q 144 585 149 585 q 113 612 131 585 q 96 653 96 639 q 128 690 96 671 q 215 722 161 710 q 325 735 268 735 q 499 679 436 735 q 561 525 561 624 l 561 206 q 569 74 561 114 q 578 31 578 35 q 551 6 578 14 q 503 -1 525 -1 q 472 20 482 -1 q 454 81 463 42 q 274 -8 381 -8 m 297 101 q 444 181 388 101 l 444 360 q 316 349 367 358 q 229 306 265 339 q 193 208 193 274 q 297 101 193 101 m 328 -243 q 267 -212 267 -243 l 267 -142 q 331 -111 267 -111 q 392 -142 392 -111 l 392 -212 q 328 -243 392 -243 m 214 800 q 194 806 201 800 q 188 818 188 811 q 197 844 188 825 l 269 967 q 328 997 289 997 l 349 997 q 406 967 386 997 l 481 844 q 489 821 489 828 q 482 806 489 811 q 463 800 475 800 l 435 800 q 400 819 413 800 l 338 921 l 276 819 q 240 800 261 800 l 214 800 z "},"ầ":{"ha":618,"x_min":71,"x_max":578,"o":"m 492 1003 q 426 1028 443 1003 q 333 1155 349 1132 q 317 1189 317 1178 q 331 1203 317 1199 q 375 1207 344 1207 q 454 1171 435 1207 l 482 1113 q 510 1049 500 1072 q 521 1017 521 1025 q 515 1006 521 1010 q 492 1003 508 1003 m 193 800 q 174 806 181 800 q 167 818 167 811 q 174 844 167 831 l 240 967 q 299 997 258 997 l 321 997 q 376 967 360 997 l 443 844 q 453 821 453 831 q 445 806 453 811 q 425 800 438 800 l 399 800 q 379 805 389 800 q 364 818 369 810 l 308 921 l 254 818 q 240 803 249 807 q 218 800 232 800 l 193 800 m 274 -8 q 126 48 181 -8 q 71 207 71 104 q 125 367 71 311 q 260 441 179 422 q 444 461 340 460 l 444 526 q 415 604 444 574 q 324 635 386 635 q 238 623 275 635 q 175 598 201 611 q 144 585 149 585 q 113 612 131 585 q 96 653 96 639 q 128 690 96 671 q 215 722 161 710 q 325 735 268 735 q 499 679 436 735 q 561 525 561 624 l 561 206 q 569 74 561 114 q 578 31 578 35 q 551 6 578 14 q 503 -1 525 -1 q 472 20 482 -1 q 454 81 463 42 q 274 -8 381 -8 m 297 101 q 444 181 388 101 l 444 360 q 316 349 367 358 q 229 306 265 339 q 193 208 193 274 q 297 101 193 101 z "},"ẩ":{"ha":618,"x_min":71,"x_max":594,"o":"m 468 972 q 440 980 457 972 q 422 996 422 988 q 430 1017 422 1008 q 457 1042 438 1025 q 494 1079 481 1061 q 508 1124 508 1097 q 494 1151 508 1142 q 457 1161 479 1161 q 412 1152 426 1161 q 393 1143 397 1143 q 372 1160 385 1143 q 360 1189 360 1178 q 396 1217 360 1203 q 468 1232 432 1232 q 554 1208 514 1232 q 594 1133 594 1185 q 569 1056 594 1092 q 511 996 543 1019 q 468 972 479 972 m 193 800 q 174 806 181 800 q 167 818 167 811 q 174 844 167 831 l 240 967 q 299 997 258 997 l 321 997 q 376 967 360 997 l 443 844 q 453 821 453 831 q 445 806 453 811 q 425 800 438 800 l 399 800 q 379 805 389 800 q 364 818 369 810 l 308 921 l 254 818 q 240 803 249 807 q 218 800 232 800 l 193 800 m 274 -8 q 126 48 181 -8 q 71 207 71 104 q 125 367 71 311 q 260 441 179 422 q 444 461 340 460 l 444 526 q 415 604 444 574 q 324 635 386 635 q 238 623 275 635 q 175 598 201 611 q 144 585 149 585 q 113 612 131 585 q 96 653 96 639 q 128 690 96 671 q 215 722 161 710 q 325 735 268 735 q 499 679 436 735 q 561 525 561 624 l 561 206 q 569 74 561 114 q 578 31 578 35 q 551 6 578 14 q 503 -1 525 -1 q 472 20 482 -1 q 454 81 463 42 q 274 -8 381 -8 m 297 101 q 444 181 388 101 l 444 360 q 316 349 367 358 q 229 306 265 339 q 193 208 193 274 q 297 101 193 101 z "},"ẫ":{"ha":618,"x_min":71,"x_max":578,"o":"m 147 1050 q 135 1067 135 1057 q 139 1085 135 1075 q 182 1158 157 1136 q 243 1181 207 1181 q 282 1173 261 1181 q 331 1150 303 1165 q 369 1133 350 1140 q 403 1125 389 1125 q 428 1133 418 1125 q 451 1161 439 1140 q 476 1182 463 1182 q 490 1178 482 1182 l 499 1174 q 510 1167 506 1171 q 514 1157 514 1163 q 508 1138 514 1149 q 465 1065 490 1088 q 406 1043 440 1043 q 363 1051 385 1043 q 313 1074 342 1058 q 274 1091 293 1083 q 240 1099 254 1099 q 217 1090 226 1099 q 196 1061 207 1082 q 174 1042 185 1042 q 160 1044 171 1042 l 147 1050 m 193 800 q 167 819 167 800 q 178 844 167 826 l 240 936 q 299 967 264 967 l 321 967 q 381 936 358 967 l 443 844 q 453 819 453 829 q 446 806 453 811 q 426 800 439 800 l 400 800 q 364 818 378 800 l 310 899 l 257 818 q 219 800 246 800 l 193 800 m 274 -8 q 126 48 181 -8 q 71 207 71 104 q 125 367 71 311 q 260 441 179 422 q 444 461 340 460 l 444 526 q 415 604 444 574 q 324 635 386 635 q 238 623 275 635 q 175 598 201 611 q 144 585 149 585 q 113 612 131 585 q 96 653 96 639 q 128 690 96 671 q 215 722 161 710 q 325 735 268 735 q 499 679 436 735 q 561 525 561 624 l 561 206 q 569 74 561 114 q 578 31 578 35 q 551 6 578 14 q 503 -1 525 -1 q 472 20 482 -1 q 454 81 463 42 q 274 -8 381 -8 m 297 101 q 444 181 388 101 l 444 360 q 316 349 367 358 q 229 306 265 339 q 193 208 193 274 q 297 101 193 101 z "},"ä":{"ha":668,"x_min":71,"x_max":578,"o":"m 274 -8 q 126 48 181 -8 q 71 207 71 104 q 125 367 71 311 q 260 441 179 422 q 444 461 340 460 l 444 526 q 415 604 444 574 q 324 635 386 635 q 238 623 275 635 q 175 598 201 611 q 144 585 149 585 q 113 612 131 585 q 96 653 96 639 q 128 690 96 671 q 215 722 161 710 q 325 735 268 735 q 499 679 436 735 q 561 525 561 624 l 561 206 q 569 74 561 114 q 578 31 578 35 q 551 6 578 14 q 503 -1 525 -1 q 472 20 482 -1 q 454 81 463 42 q 274 -8 381 -8 m 297 101 q 444 181 388 101 l 444 360 q 316 349 367 358 q 229 306 265 339 q 193 208 193 274 q 297 101 193 101 m 251 843 q 199 874 199 843 l 199 944 q 254 975 199 975 q 307 944 307 975 l 307 874 q 251 843 307 843 m 426 843 q 374 874 374 843 l 374 944 q 429 975 374 975 q 482 944 482 975 l 482 874 q 426 843 482 843 z "},"ạ":{"ha":668,"x_min":71,"x_max":578,"o":"m 274 -8 q 126 48 181 -8 q 71 207 71 104 q 125 367 71 311 q 260 441 179 422 q 444 461 340 460 l 444 526 q 415 604 444 574 q 324 635 386 635 q 238 623 275 635 q 175 598 201 611 q 144 585 149 585 q 113 612 131 585 q 96 653 96 639 q 128 690 96 671 q 215 722 161 710 q 325 735 268 735 q 499 679 436 735 q 561 525 561 624 l 561 206 q 569 74 561 114 q 578 31 578 35 q 551 6 578 14 q 503 -1 525 -1 q 472 20 482 -1 q 454 81 463 42 q 274 -8 381 -8 m 297 101 q 444 181 388 101 l 444 360 q 316 349 367 358 q 229 306 265 339 q 193 208 193 274 q 297 101 193 101 m 328 -243 q 267 -212 267 -243 l 267 -142 q 331 -111 267 -111 q 392 -142 392 -111 l 392 -212 q 328 -243 392 -243 z "},"à":{"ha":668,"x_min":71,"x_max":578,"o":"m 274 -8 q 126 48 181 -8 q 71 207 71 104 q 125 367 71 311 q 260 441 179 422 q 444 461 340 460 l 444 526 q 415 604 444 574 q 324 635 386 635 q 238 623 275 635 q 175 598 201 611 q 144 585 149 585 q 113 612 131 585 q 96 653 96 639 q 128 690 96 671 q 215 722 161 710 q 325 735 268 735 q 499 679 436 735 q 561 525 561 624 l 561 206 q 569 74 561 114 q 578 31 578 35 q 551 6 578 14 q 503 -1 525 -1 q 472 20 482 -1 q 454 81 463 42 q 274 -8 381 -8 m 297 101 q 444 181 388 101 l 444 360 q 316 349 367 358 q 229 306 265 339 q 193 208 193 274 q 297 101 193 101 m 372 813 q 307 838 324 813 q 213 965 229 942 q 197 999 197 988 q 211 1013 197 1008 q 256 1017 225 1017 q 335 981 315 1017 l 363 922 q 391 858 381 882 q 401 826 401 835 q 395 816 401 819 q 372 813 389 813 z "},"ả":{"ha":668,"x_min":71,"x_max":578,"o":"m 274 -8 q 126 48 181 -8 q 71 207 71 104 q 125 367 71 311 q 260 441 179 422 q 444 461 340 460 l 444 526 q 415 604 444 574 q 324 635 386 635 q 238 623 275 635 q 175 598 201 611 q 144 585 149 585 q 113 612 131 585 q 96 653 96 639 q 128 690 96 671 q 215 722 161 710 q 325 735 268 735 q 499 679 436 735 q 561 525 561 624 l 561 206 q 569 74 561 114 q 578 31 578 35 q 551 6 578 14 q 503 -1 525 -1 q 472 20 482 -1 q 454 81 463 42 q 274 -8 381 -8 m 297 101 q 444 181 388 101 l 444 360 q 316 349 367 358 q 229 306 265 339 q 193 208 193 274 q 297 101 193 101 m 349 782 q 320 790 338 782 q 303 806 303 797 q 310 826 303 818 q 338 851 318 835 q 375 889 361 871 q 389 933 389 907 q 374 961 389 951 q 338 971 360 971 q 292 962 307 971 q 274 953 278 953 q 253 970 265 953 q 240 999 240 988 q 276 1027 240 1013 q 349 1042 313 1042 q 435 1018 394 1042 q 475 943 475 994 q 449 865 475 901 q 392 806 424 829 q 349 782 360 782 z "},"ā":{"ha":668,"x_min":71,"x_max":578,"o":"m 274 -8 q 126 48 181 -8 q 71 207 71 104 q 125 367 71 311 q 260 441 179 422 q 444 461 340 460 l 444 526 q 415 604 444 574 q 324 635 386 635 q 238 623 275 635 q 175 598 201 611 q 144 585 149 585 q 113 612 131 585 q 96 653 96 639 q 128 690 96 671 q 215 722 161 710 q 325 735 268 735 q 499 679 436 735 q 561 525 561 624 l 561 206 q 569 74 561 114 q 578 31 578 35 q 551 6 578 14 q 503 -1 525 -1 q 472 20 482 -1 q 454 81 463 42 q 274 -8 381 -8 m 297 101 q 444 181 388 101 l 444 360 q 316 349 367 358 q 229 306 265 339 q 193 208 193 274 q 297 101 193 101 m 206 850 q 179 892 179 850 l 179 906 q 206 947 179 947 l 482 947 q 502 938 496 947 q 508 906 508 928 l 508 892 q 502 860 508 869 q 482 850 496 850 l 206 850 z "},"ą":{"ha":668,"x_min":71,"x_max":692,"o":"m 664 -135 q 692 -168 692 -135 q 674 -206 692 -193 q 582 -232 635 -232 q 481 -192 507 -232 q 454 -110 454 -153 q 485 6 454 -50 q 467 32 474 15 q 454 81 461 49 q 274 -8 381 -8 q 126 48 181 -8 q 71 207 71 104 q 125 367 71 311 q 260 441 179 422 q 444 461 340 460 l 444 526 q 415 604 444 574 q 324 635 386 635 q 238 623 275 635 q 175 598 201 611 q 144 585 149 585 q 113 612 131 585 q 96 653 96 639 q 128 690 96 671 q 215 722 161 710 q 325 735 268 735 q 499 679 436 735 q 561 525 561 624 l 561 206 q 569 74 561 114 q 578 31 578 35 q 567 13 578 21 q 539 -85 539 -39 q 608 -144 539 -144 q 639 -140 619 -144 q 664 -135 658 -135 m 444 360 q 316 349 367 358 q 229 306 265 339 q 193 208 193 274 q 297 101 193 101 q 444 181 388 101 l 444 360 z "},"å":{"ha":668,"x_min":71,"x_max":578,"o":"m 274 -8 q 126 48 181 -8 q 71 207 71 104 q 125 367 71 311 q 260 441 179 422 q 444 461 340 460 l 444 526 q 415 604 444 574 q 324 635 386 635 q 238 623 275 635 q 175 598 201 611 q 144 585 149 585 q 113 612 131 585 q 96 653 96 639 q 128 690 96 671 q 215 722 161 710 q 325 735 268 735 q 499 679 436 735 q 561 525 561 624 l 561 206 q 569 74 561 114 q 578 31 578 35 q 551 6 578 14 q 503 -1 525 -1 q 472 20 482 -1 q 454 81 463 42 q 274 -8 381 -8 m 297 101 q 444 181 388 101 l 444 360 q 316 349 367 358 q 229 306 265 339 q 193 208 193 274 q 297 101 193 101 m 336 783 q 253 815 285 783 q 221 900 221 847 q 253 985 221 953 q 336 1018 285 1018 q 421 985 389 1018 q 453 900 453 953 q 421 815 453 847 q 336 783 389 783 m 336 832 q 384 850 367 832 q 401 900 401 868 q 384 951 401 932 q 336 969 367 969 q 289 951 306 969 q 271 900 272 933 q 289 849 272 867 q 336 832 306 832 z "},"ǻ":{"ha":668,"x_min":71,"x_max":578,"o":"m 274 -8 q 126 48 181 -8 q 71 207 71 104 q 125 367 71 311 q 260 441 179 422 q 444 461 340 460 l 444 526 q 415 604 444 574 q 324 635 386 635 q 238 623 275 635 q 175 598 201 611 q 144 585 149 585 q 113 612 131 585 q 96 653 96 639 q 128 690 96 671 q 215 722 161 710 q 325 735 268 735 q 499 679 436 735 q 561 525 561 624 l 561 206 q 569 74 561 114 q 578 31 578 35 q 551 6 578 14 q 503 -1 525 -1 q 472 20 482 -1 q 454 81 463 42 q 274 -8 381 -8 m 297 101 q 444 181 388 101 l 444 360 q 316 349 367 358 q 229 306 265 339 q 193 208 193 274 q 297 101 193 101 m 336 783 q 253 815 285 783 q 221 900 221 847 q 253 985 221 953 q 336 1018 285 1018 q 421 985 389 1018 q 453 900 453 953 q 421 815 453 847 q 336 783 389 783 m 336 832 q 384 850 367 832 q 401 900 401 868 q 384 951 401 932 q 336 969 367 969 q 289 951 306 969 q 271 900 272 933 q 289 849 272 867 q 336 832 306 832 m 331 1058 q 301 1072 301 1058 q 319 1119 301 1082 q 369 1226 336 1157 q 447 1263 386 1263 q 492 1258 478 1263 q 506 1244 506 1254 q 493 1218 506 1236 q 456 1164 481 1200 l 397 1083 q 331 1058 381 1058 z "},"ã":{"ha":668,"x_min":71,"x_max":578,"o":"m 274 -8 q 126 48 181 -8 q 71 207 71 104 q 125 367 71 311 q 260 441 179 422 q 444 461 340 460 l 444 526 q 415 604 444 574 q 324 635 386 635 q 238 623 275 635 q 175 598 201 611 q 144 585 149 585 q 113 612 131 585 q 96 653 96 639 q 128 690 96 671 q 215 722 161 710 q 325 735 268 735 q 499 679 436 735 q 561 525 561 624 l 561 206 q 569 74 561 114 q 578 31 578 35 q 551 6 578 14 q 503 -1 525 -1 q 472 20 482 -1 q 454 81 463 42 q 274 -8 381 -8 m 297 101 q 444 181 388 101 l 444 360 q 316 349 367 358 q 229 306 265 339 q 193 208 193 274 q 297 101 193 101 m 149 828 q 135 844 135 833 q 139 863 135 853 q 187 936 160 914 q 254 958 214 958 q 295 951 275 958 q 350 929 315 944 q 431 903 406 903 q 458 910 446 903 q 483 939 469 918 q 510 960 494 960 q 525 956 517 960 l 535 951 q 548 944 544 947 q 551 935 551 940 q 546 915 551 926 q 498 842 525 864 q 432 821 471 821 q 386 828 410 821 q 331 851 363 836 q 288 869 310 861 q 251 876 267 876 q 226 868 238 876 q 201 839 215 860 q 178 819 190 819 q 163 822 174 819 l 149 828 z "},"æ":{"ha":922,"x_min":42,"x_max":882,"o":"m 249 -8 q 98 48 154 -8 q 42 208 42 104 q 133 394 42 343 q 372 451 224 444 q 397 561 378 513 q 292 635 378 635 q 210 624 244 635 q 149 600 175 613 q 119 588 124 588 q 89 614 106 588 q 72 654 72 640 q 103 691 72 672 q 186 722 135 710 q 293 735 238 735 q 467 674 406 735 q 640 735 535 735 q 821 644 760 735 q 882 381 882 554 q 865 346 882 368 q 836 324 849 324 l 492 324 q 536 147 499 201 q 656 92 574 92 q 738 106 706 92 q 792 135 771 119 q 818 150 814 150 q 849 122 832 150 q 867 81 867 94 q 838 42 867 64 q 761 6 810 21 q 657 -8 713 -8 q 444 74 514 -8 q 359 13 410 35 q 249 -8 308 -8 m 758 424 q 636 635 758 635 q 492 424 503 635 l 758 424 m 261 101 q 396 161 343 101 q 367 350 369 232 q 219 317 275 346 q 164 211 164 288 q 261 101 164 101 z "},"ǽ":{"ha":922,"x_min":42,"x_max":882,"o":"m 249 -8 q 98 48 154 -8 q 42 208 42 104 q 133 394 42 343 q 372 451 224 444 q 397 561 378 513 q 292 635 378 635 q 210 624 244 635 q 149 600 175 613 q 119 588 124 588 q 89 614 106 588 q 72 654 72 640 q 103 691 72 672 q 186 722 135 710 q 293 735 238 735 q 467 674 406 735 q 640 735 535 735 q 821 644 760 735 q 882 381 882 554 q 865 346 882 368 q 836 324 849 324 l 492 324 q 536 147 499 201 q 656 92 574 92 q 738 106 706 92 q 792 135 771 119 q 818 150 814 150 q 849 122 832 150 q 867 81 867 94 q 838 42 867 64 q 761 6 810 21 q 657 -8 713 -8 q 444 74 514 -8 q 359 13 410 35 q 249 -8 308 -8 m 758 424 q 636 635 758 635 q 492 424 503 635 l 758 424 m 261 101 q 396 161 343 101 q 367 350 369 232 q 219 317 275 346 q 164 211 164 288 q 261 101 164 101 m 465 813 q 436 826 436 813 q 453 874 436 836 q 504 981 471 911 q 582 1017 521 1017 q 626 1013 613 1017 q 640 999 640 1008 q 628 972 640 990 q 590 918 615 954 l 532 838 q 465 813 515 813 z "},"b":{"ha":669,"x_min":108,"x_max":604,"o":"m 386 -8 q 294 18 338 -8 q 219 96 251 44 l 206 14 q 163 -3 199 -3 l 154 -3 q 108 28 108 -3 l 108 1014 q 161 1044 108 1044 l 176 1044 q 228 1014 228 1044 l 228 664 q 292 717 258 699 q 375 735 326 735 q 542 638 479 735 q 604 368 604 542 q 577 172 604 257 q 501 39 550 86 q 386 -8 451 -8 m 357 93 q 448 165 417 93 q 479 369 479 238 q 346 632 479 632 q 228 569 276 632 l 228 189 q 288 118 254 143 q 357 93 322 93 z "},"c":{"ha":567,"x_min":64,"x_max":538,"o":"m 356 -8 q 135 81 207 -8 q 64 367 64 169 q 140 653 64 571 q 351 735 215 735 q 470 715 415 735 q 525 671 525 696 q 509 625 525 654 q 482 596 493 596 q 467 601 481 596 q 354 635 408 635 q 231 573 272 635 q 190 369 190 511 q 229 157 190 222 q 358 92 268 92 q 474 122 422 92 q 484 128 479 125 q 492 133 489 132 q 522 106 506 133 q 538 63 538 79 q 508 31 538 47 q 435 3 478 14 q 356 -8 392 -8 z "},"ć":{"ha":567,"x_min":64,"x_max":538,"o":"m 356 -8 q 135 81 207 -8 q 64 367 64 169 q 140 653 64 571 q 351 735 215 735 q 470 715 415 735 q 525 671 525 696 q 509 625 525 654 q 482 596 493 596 q 467 601 481 596 q 354 635 408 635 q 231 573 272 635 q 190 369 190 511 q 229 157 190 222 q 358 92 268 92 q 474 122 422 92 q 484 128 479 125 q 492 133 489 132 q 522 106 506 133 q 538 63 538 79 q 508 31 538 47 q 435 3 478 14 q 356 -8 392 -8 m 321 813 q 292 826 292 813 q 309 874 292 836 q 360 981 326 911 q 438 1017 376 1017 q 482 1013 468 1017 q 496 999 496 1008 q 483 972 496 990 q 446 918 471 954 l 388 838 q 321 813 371 813 z "},"č":{"ha":567,"x_min":64,"x_max":538,"o":"m 356 -8 q 135 81 207 -8 q 64 367 64 169 q 140 653 64 571 q 351 735 215 735 q 470 715 415 735 q 525 671 525 696 q 509 625 525 654 q 482 596 493 596 q 467 601 481 596 q 354 635 408 635 q 231 573 272 635 q 190 369 190 511 q 229 157 190 222 q 358 92 268 92 q 474 122 422 92 q 484 128 479 125 q 492 133 489 132 q 522 106 506 133 q 538 63 538 79 q 508 31 538 47 q 435 3 478 14 q 356 -8 392 -8 m 321 810 q 263 840 281 810 l 190 963 q 181 988 181 979 q 188 1001 181 996 q 207 1007 194 1007 l 233 1007 q 269 986 256 1007 l 331 886 l 393 986 q 428 1007 406 1007 l 456 1007 q 475 1001 468 1007 q 482 986 482 996 q 474 963 482 979 l 399 840 q 342 810 381 810 l 321 810 z "},"ç":{"ha":567,"x_min":64,"x_max":538,"o":"m 538 63 q 483 19 538 42 q 372 -8 429 -4 l 351 -83 q 422 -103 389 -83 q 454 -176 454 -124 q 321 -292 454 -292 q 233 -275 276 -292 q 190 -232 190 -258 q 199 -208 190 -219 q 217 -196 207 -196 q 249 -206 226 -196 q 313 -224 285 -224 q 347 -213 332 -224 q 363 -183 363 -203 q 351 -153 363 -162 q 317 -136 339 -143 q 294 -125 301 -131 q 286 -110 286 -119 q 292 -78 286 -100 q 315 -7 299 -56 q 126 93 188 4 q 64 367 64 182 q 140 653 64 571 q 351 735 215 735 q 470 715 415 735 q 525 671 525 696 q 509 625 525 654 q 482 596 493 596 q 467 601 481 596 q 354 635 408 635 q 231 573 272 635 q 190 369 190 511 q 229 157 190 222 q 358 92 268 92 q 474 122 422 92 q 484 128 479 125 q 492 133 489 132 q 522 106 506 133 q 538 63 538 79 z "},"ĉ":{"ha":567,"x_min":64,"x_max":538,"o":"m 356 -8 q 135 81 207 -8 q 64 367 64 169 q 140 653 64 571 q 351 735 215 735 q 470 715 415 735 q 525 671 525 696 q 509 625 525 654 q 482 596 493 596 q 467 601 481 596 q 354 635 408 635 q 231 573 272 635 q 190 369 190 511 q 229 157 190 222 q 358 92 268 92 q 474 122 422 92 q 484 128 479 125 q 492 133 489 132 q 522 106 506 133 q 538 63 538 79 q 508 31 538 47 q 435 3 478 14 q 356 -8 392 -8 m 206 800 q 186 806 193 800 q 179 818 179 811 q 189 844 179 825 l 261 967 q 319 997 281 997 l 340 997 q 397 967 378 997 l 472 844 q 481 821 481 828 q 474 806 481 811 q 454 800 467 800 l 426 800 q 392 819 404 800 l 329 921 l 268 819 q 232 800 253 800 l 206 800 z "},"ċ":{"ha":567,"x_min":64,"x_max":538,"o":"m 356 -8 q 135 81 207 -8 q 64 367 64 169 q 140 653 64 571 q 351 735 215 735 q 470 715 415 735 q 525 671 525 696 q 509 625 525 654 q 482 596 493 596 q 467 601 481 596 q 354 635 408 635 q 231 573 272 635 q 190 369 190 511 q 229 157 190 222 q 358 92 268 92 q 474 122 422 92 q 484 128 479 125 q 492 133 489 132 q 522 106 506 133 q 538 63 538 79 q 508 31 538 47 q 435 3 478 14 q 356 -8 392 -8 m 331 843 q 269 874 269 843 l 269 944 q 333 975 269 975 q 394 944 394 975 l 394 874 q 331 843 394 843 z "},"d":{"ha":668,"x_min":65,"x_max":575,"o":"m 283 -8 q 169 39 218 -8 q 92 171 119 86 q 65 367 65 256 q 128 638 65 540 q 294 735 190 735 q 377 717 343 735 q 442 664 411 699 l 442 1014 q 493 1044 442 1044 l 508 1044 q 561 1014 561 1044 l 561 206 q 568 76 561 118 q 575 29 575 35 q 545 6 575 14 q 494 -1 515 -1 q 466 18 474 -1 q 454 63 458 38 q 449 96 450 88 q 374 18 417 44 q 283 -8 332 -8 m 313 93 q 381 118 347 93 q 442 189 415 143 l 442 569 q 325 632 394 632 q 189 368 189 632 q 220 165 189 238 q 313 93 251 93 z "},"ð":{"ha":663,"x_min":65,"x_max":597,"o":"m 454 858 q 562 612 526 732 q 597 361 597 492 q 530 86 597 181 q 333 -8 463 -8 q 134 86 203 -8 q 65 360 65 181 q 135 635 65 539 q 333 731 204 731 q 407 721 374 731 q 344 843 386 776 l 225 826 q 200 841 211 826 q 189 871 189 856 q 210 889 189 885 l 310 903 q 284 942 294 924 q 274 969 274 960 q 296 989 274 985 q 333 992 315 992 q 369 975 356 992 q 415 917 397 942 q 524 932 518 932 q 549 915 540 932 q 558 888 558 899 q 538 869 558 872 l 454 858 m 331 92 q 440 158 404 92 q 475 363 475 224 q 440 565 475 499 q 331 631 404 631 q 222 565 257 631 q 188 363 188 500 q 222 158 188 224 q 331 92 257 92 z "},"ď":{"ha":668,"x_min":65,"x_max":753,"o":"m 283 -8 q 169 39 218 -8 q 92 171 119 86 q 65 367 65 256 q 128 638 65 540 q 294 735 190 735 q 377 717 343 735 q 442 664 411 699 l 442 1014 q 493 1044 442 1044 l 508 1044 q 561 1014 561 1044 l 561 206 q 568 76 561 118 q 575 29 575 35 q 545 6 575 14 q 494 -1 515 -1 q 466 18 474 -1 q 454 63 458 38 q 449 96 450 88 q 374 18 417 44 q 283 -8 332 -8 m 313 93 q 381 118 347 93 q 442 189 415 143 l 442 569 q 325 632 394 632 q 189 368 189 632 q 220 165 189 238 q 313 93 251 93 m 651 731 q 624 735 636 731 q 611 751 611 740 q 617 790 611 760 q 629 928 629 860 q 643 960 629 949 q 685 972 657 972 l 697 972 q 738 962 724 972 q 753 933 753 951 q 735 828 753 875 q 694 756 718 782 q 651 731 669 731 z "},"đ":{"ha":649,"x_min":65,"x_max":653,"o":"m 624 928 q 646 918 639 928 q 653 886 653 908 l 653 872 q 646 840 653 850 q 624 831 639 831 l 561 831 l 561 206 q 568 76 561 118 q 575 29 575 35 q 545 6 575 14 q 494 -1 515 -1 q 466 18 474 -1 q 454 63 458 38 q 449 96 450 88 q 374 18 417 44 q 283 -8 332 -8 q 169 39 218 -8 q 92 171 119 86 q 65 367 65 256 q 128 638 65 540 q 294 735 190 735 q 377 717 343 735 q 442 664 411 699 l 442 831 l 315 831 q 286 872 286 831 l 286 886 q 315 928 286 928 l 442 928 l 442 1014 q 493 1044 442 1044 l 508 1044 q 561 1014 561 1044 l 561 928 l 624 928 m 442 569 q 325 632 394 632 q 189 368 189 632 q 220 165 189 238 q 313 93 251 93 q 381 118 347 93 q 442 189 415 143 l 442 569 z "},"ḍ":{"ha":668,"x_min":65,"x_max":575,"o":"m 283 -8 q 169 39 218 -8 q 92 171 119 86 q 65 367 65 256 q 128 638 65 540 q 294 735 190 735 q 377 717 343 735 q 442 664 411 699 l 442 1014 q 493 1044 442 1044 l 508 1044 q 561 1014 561 1044 l 561 206 q 568 76 561 118 q 575 29 575 35 q 545 6 575 14 q 494 -1 515 -1 q 466 18 474 -1 q 454 63 458 38 q 449 96 450 88 q 374 18 417 44 q 283 -8 332 -8 m 313 93 q 381 118 347 93 q 442 189 415 143 l 442 569 q 325 632 394 632 q 189 368 189 632 q 220 165 189 238 q 313 93 251 93 m 325 -243 q 264 -212 264 -243 l 264 -142 q 328 -111 264 -111 q 389 -142 389 -111 l 389 -212 q 325 -243 389 -243 z "},"ǳ":{"ha":1231,"x_min":65,"x_max":1182,"o":"m 283 -8 q 169 39 218 -8 q 92 171 119 86 q 65 367 65 256 q 128 638 65 540 q 294 735 190 735 q 377 717 343 735 q 442 664 411 699 l 442 1014 q 493 1044 442 1044 l 508 1044 q 561 1014 561 1044 l 561 206 q 568 76 561 118 q 575 29 575 35 q 545 6 575 14 q 494 -1 515 -1 q 466 18 474 -1 q 454 63 458 38 q 449 96 450 88 q 374 18 417 44 q 283 -8 332 -8 m 313 93 q 381 118 347 93 q 442 189 415 143 l 442 569 q 325 632 394 632 q 189 368 189 632 q 220 165 189 238 q 313 93 251 93 m 743 0 q 725 25 735 0 q 715 71 715 50 q 718 86 715 78 l 1032 626 l 763 626 q 736 668 736 626 l 736 685 q 763 726 736 726 l 1154 726 q 1171 700 1163 726 q 1179 654 1179 674 q 1176 640 1179 646 l 864 100 l 1156 100 q 1182 58 1182 100 l 1182 42 q 1156 0 1182 0 l 743 0 z "},"ǆ":{"ha":1231,"x_min":65,"x_max":1182,"o":"m 283 -8 q 169 39 218 -8 q 92 171 119 86 q 65 367 65 256 q 128 638 65 540 q 294 735 190 735 q 377 717 343 735 q 442 664 411 699 l 442 1014 q 493 1044 442 1044 l 508 1044 q 561 1014 561 1044 l 561 206 q 568 76 561 118 q 575 29 575 35 q 545 6 575 14 q 494 -1 515 -1 q 466 18 474 -1 q 454 63 458 38 q 449 96 450 88 q 374 18 417 44 q 283 -8 332 -8 m 313 93 q 381 118 347 93 q 442 189 415 143 l 442 569 q 325 632 394 632 q 189 368 189 632 q 220 165 189 238 q 313 93 251 93 m 743 0 q 725 25 735 0 q 715 71 715 50 q 718 86 715 78 l 1032 626 l 763 626 q 736 668 736 626 l 736 685 q 763 726 736 726 l 1154 726 q 1171 700 1163 726 q 1179 654 1179 674 q 1176 640 1179 646 l 864 100 l 1156 100 q 1182 58 1182 100 l 1182 42 q 1156 0 1182 0 l 743 0 m 943 810 q 885 840 903 810 l 813 963 q 803 988 803 979 q 810 1001 803 996 q 829 1007 817 1007 l 856 1007 q 892 986 878 1007 l 953 886 l 1015 986 q 1050 1007 1028 1007 l 1078 1007 q 1097 1001 1090 1007 q 1104 986 1104 996 q 1096 963 1104 979 l 1021 840 q 964 810 1003 810 l 943 810 z "},"e":{"ha":631,"x_min":65,"x_max":582,"o":"m 356 -8 q 137 82 208 -8 q 65 358 65 172 q 135 639 65 543 q 339 735 204 735 q 521 642 460 735 q 582 372 582 550 q 565 338 582 360 q 536 315 549 315 l 190 315 q 235 144 197 197 q 354 92 272 92 q 438 106 404 92 q 492 135 471 119 q 517 150 513 150 q 548 122 531 150 q 565 81 565 94 q 537 42 565 64 q 460 6 508 21 q 356 -8 411 -8 m 458 415 q 335 635 458 635 q 190 415 201 635 l 458 415 z "},"é":{"ha":631,"x_min":65,"x_max":582,"o":"m 356 -8 q 137 82 208 -8 q 65 358 65 172 q 135 639 65 543 q 339 735 204 735 q 521 642 460 735 q 582 372 582 550 q 565 338 582 360 q 536 315 549 315 l 190 315 q 235 144 197 197 q 354 92 272 92 q 438 106 404 92 q 492 135 471 119 q 517 150 513 150 q 548 122 531 150 q 565 81 565 94 q 537 42 565 64 q 460 6 508 21 q 356 -8 411 -8 m 458 415 q 335 635 458 635 q 190 415 201 635 l 458 415 m 311 813 q 282 826 282 813 q 299 874 282 836 q 350 981 317 911 q 428 1017 367 1017 q 472 1013 458 1017 q 486 999 486 1008 q 474 972 486 990 q 436 918 461 954 l 378 838 q 311 813 361 813 z "},"ĕ":{"ha":631,"x_min":65,"x_max":582,"o":"m 356 -8 q 137 82 208 -8 q 65 358 65 172 q 135 639 65 543 q 339 735 204 735 q 521 642 460 735 q 582 372 582 550 q 565 338 582 360 q 536 315 549 315 l 190 315 q 235 144 197 197 q 354 92 272 92 q 438 106 404 92 q 492 135 471 119 q 517 150 513 150 q 548 122 531 150 q 565 81 565 94 q 537 42 565 64 q 460 6 508 21 q 356 -8 411 -8 m 458 415 q 335 635 458 635 q 190 415 201 635 l 458 415 m 321 813 q 205 854 251 813 q 158 972 158 896 q 183 993 158 993 q 198 988 193 993 q 206 974 203 983 q 213 958 210 964 q 321 904 233 904 q 429 958 408 904 q 435 974 431 963 q 444 989 439 985 q 457 993 449 993 q 482 972 482 993 q 435 854 482 896 q 321 813 389 813 z "},"ě":{"ha":631,"x_min":65,"x_max":582,"o":"m 356 -8 q 137 82 208 -8 q 65 358 65 172 q 135 639 65 543 q 339 735 204 735 q 521 642 460 735 q 582 372 582 550 q 565 338 582 360 q 536 315 549 315 l 190 315 q 235 144 197 197 q 354 92 272 92 q 438 106 404 92 q 492 135 471 119 q 517 150 513 150 q 548 122 531 150 q 565 81 565 94 q 537 42 565 64 q 460 6 508 21 q 356 -8 411 -8 m 458 415 q 335 635 458 635 q 190 415 201 635 l 458 415 m 311 810 q 253 840 271 810 l 181 963 q 171 988 171 979 q 178 1001 171 996 q 197 1007 185 1007 l 224 1007 q 260 986 246 1007 l 321 886 l 383 986 q 418 1007 396 1007 l 446 1007 q 465 1001 458 1007 q 472 986 472 996 q 464 963 472 979 l 389 840 q 332 810 371 810 l 311 810 z "},"ê":{"ha":631,"x_min":65,"x_max":582,"o":"m 356 -8 q 137 82 208 -8 q 65 358 65 172 q 135 639 65 543 q 339 735 204 735 q 521 642 460 735 q 582 372 582 550 q 565 338 582 360 q 536 315 549 315 l 190 315 q 235 144 197 197 q 354 92 272 92 q 438 106 404 92 q 492 135 471 119 q 517 150 513 150 q 548 122 531 150 q 565 81 565 94 q 537 42 565 64 q 460 6 508 21 q 356 -8 411 -8 m 458 415 q 335 635 458 635 q 190 415 201 635 l 458 415 m 196 800 q 176 806 183 800 q 169 818 169 811 q 179 844 169 825 l 251 967 q 310 997 271 997 l 331 997 q 388 967 368 997 l 463 844 q 471 821 471 828 q 464 806 471 811 q 444 800 457 800 l 417 800 q 382 819 394 800 l 319 921 l 258 819 q 222 800 243 800 l 196 800 z "},"ế":{"ha":611,"x_min":65,"x_max":626,"o":"m 451 1003 q 422 1017 422 1003 q 440 1064 422 1026 q 490 1171 457 1101 q 568 1207 507 1207 q 613 1203 599 1207 q 626 1189 626 1199 q 614 1163 626 1181 q 576 1108 601 1144 l 518 1028 q 451 1003 501 1003 m 194 800 q 175 806 182 800 q 168 818 168 811 q 175 844 168 824 l 242 967 q 300 997 260 997 l 322 997 q 379 967 361 997 l 444 844 q 454 821 454 831 q 447 806 454 811 q 428 800 440 800 l 400 800 q 381 805 390 800 q 365 818 371 810 l 310 921 l 257 818 q 242 803 250 807 q 221 800 233 800 l 194 800 m 356 -8 q 137 82 208 -8 q 65 358 65 172 q 135 639 65 543 q 339 735 204 735 q 521 642 460 735 q 582 372 582 550 q 565 338 582 360 q 536 315 549 315 l 190 315 q 235 144 197 197 q 354 92 272 92 q 438 106 404 92 q 492 135 471 119 q 517 150 513 150 q 548 122 531 150 q 565 81 565 94 q 537 42 565 64 q 460 6 508 21 q 356 -8 411 -8 m 458 415 q 335 635 458 635 q 190 415 201 635 l 458 415 z "},"ệ":{"ha":631,"x_min":65,"x_max":582,"o":"m 356 -8 q 137 82 208 -8 q 65 358 65 172 q 135 639 65 543 q 339 735 204 735 q 521 642 460 735 q 582 372 582 550 q 565 338 582 360 q 536 315 549 315 l 190 315 q 235 144 197 197 q 354 92 272 92 q 438 106 404 92 q 492 135 471 119 q 517 150 513 150 q 548 122 531 150 q 565 81 565 94 q 537 42 565 64 q 460 6 508 21 q 356 -8 411 -8 m 458 415 q 335 635 458 635 q 190 415 201 635 l 458 415 m 324 -243 q 263 -212 263 -243 l 263 -142 q 326 -111 263 -111 q 388 -142 388 -111 l 388 -212 q 324 -243 388 -243 m 196 800 q 176 806 183 800 q 169 818 169 811 q 179 844 169 825 l 251 967 q 310 997 271 997 l 331 997 q 388 967 368 997 l 463 844 q 471 821 471 828 q 464 806 471 811 q 444 800 457 800 l 417 800 q 382 819 394 800 l 319 921 l 258 819 q 222 800 243 800 l 196 800 z "},"ề":{"ha":611,"x_min":65,"x_max":582,"o":"m 493 1003 q 428 1028 444 1003 q 334 1155 350 1132 q 318 1189 318 1178 q 332 1203 318 1199 q 376 1207 346 1207 q 456 1171 436 1207 l 483 1113 q 512 1049 501 1072 q 522 1017 522 1025 q 516 1006 522 1010 q 493 1003 510 1003 m 194 800 q 175 806 182 800 q 168 818 168 811 q 175 844 168 824 l 242 967 q 300 997 260 997 l 322 997 q 379 967 361 997 l 444 844 q 454 821 454 831 q 447 806 454 811 q 428 800 440 800 l 400 800 q 381 805 390 800 q 365 818 371 810 l 310 921 l 257 818 q 242 803 250 807 q 221 800 233 800 l 194 800 m 356 -8 q 137 82 208 -8 q 65 358 65 172 q 135 639 65 543 q 339 735 204 735 q 521 642 460 735 q 582 372 582 550 q 565 338 582 360 q 536 315 549 315 l 190 315 q 235 144 197 197 q 354 92 272 92 q 438 106 404 92 q 492 135 471 119 q 517 150 513 150 q 548 122 531 150 q 565 81 565 94 q 537 42 565 64 q 460 6 508 21 q 356 -8 411 -8 m 458 415 q 335 635 458 635 q 190 415 201 635 l 458 415 z "},"ể":{"ha":611,"x_min":65,"x_max":596,"o":"m 469 972 q 441 980 458 972 q 424 996 424 988 q 431 1017 424 1008 q 458 1042 439 1025 q 496 1079 482 1061 q 510 1124 510 1097 q 495 1151 510 1142 q 458 1161 481 1161 q 413 1152 428 1161 q 394 1143 399 1143 q 374 1160 386 1143 q 361 1189 361 1178 q 397 1217 361 1203 q 469 1232 433 1232 q 556 1208 515 1232 q 596 1133 596 1185 q 570 1056 596 1092 q 513 996 544 1019 q 469 972 481 972 m 194 800 q 175 806 182 800 q 168 818 168 811 q 175 844 168 824 l 242 967 q 300 997 260 997 l 322 997 q 379 967 361 997 l 444 844 q 454 821 454 831 q 447 806 454 811 q 428 800 440 800 l 400 800 q 381 805 390 800 q 365 818 371 810 l 310 921 l 257 818 q 242 803 250 807 q 221 800 233 800 l 194 800 m 356 -8 q 137 82 208 -8 q 65 358 65 172 q 135 639 65 543 q 339 735 204 735 q 521 642 460 735 q 582 372 582 550 q 565 338 582 360 q 536 315 549 315 l 190 315 q 235 144 197 197 q 354 92 272 92 q 438 106 404 92 q 492 135 471 119 q 517 150 513 150 q 548 122 531 150 q 565 81 565 94 q 537 42 565 64 q 460 6 508 21 q 356 -8 411 -8 m 458 415 q 335 635 458 635 q 190 415 201 635 l 458 415 z "},"ễ":{"ha":611,"x_min":65,"x_max":582,"o":"m 151 1050 q 139 1067 139 1057 q 143 1085 139 1075 q 185 1158 160 1136 q 247 1181 211 1181 q 286 1173 265 1181 q 335 1150 307 1165 q 374 1133 354 1140 q 407 1125 393 1125 q 433 1133 422 1125 q 456 1161 443 1140 q 481 1182 467 1182 q 494 1178 486 1182 l 503 1174 q 514 1167 510 1171 q 518 1157 518 1163 q 513 1138 518 1149 q 469 1065 493 1086 q 410 1043 444 1043 q 367 1051 389 1043 q 317 1074 346 1058 q 278 1091 297 1083 q 244 1099 258 1099 q 221 1090 231 1099 q 200 1061 211 1082 q 178 1042 189 1042 q 164 1044 175 1042 l 151 1050 m 196 800 q 169 819 169 800 q 179 844 169 829 l 242 936 q 300 967 265 967 l 322 967 q 382 936 360 967 l 444 844 q 456 819 456 826 q 448 806 456 811 q 428 800 440 800 l 401 800 q 365 818 379 800 l 311 899 l 258 818 q 221 800 247 800 l 196 800 m 356 -8 q 137 82 208 -8 q 65 358 65 172 q 135 639 65 543 q 339 735 204 735 q 521 642 460 735 q 582 372 582 550 q 565 338 582 360 q 536 315 549 315 l 190 315 q 235 144 197 197 q 354 92 272 92 q 438 106 404 92 q 492 135 471 119 q 517 150 513 150 q 548 122 531 150 q 565 81 565 94 q 537 42 565 64 q 460 6 508 21 q 356 -8 411 -8 m 458 415 q 335 635 458 635 q 190 415 201 635 l 458 415 z "},"ë":{"ha":631,"x_min":65,"x_max":582,"o":"m 356 -8 q 137 82 208 -8 q 65 358 65 172 q 135 639 65 543 q 339 735 204 735 q 521 642 460 735 q 582 372 582 550 q 565 338 582 360 q 536 315 549 315 l 190 315 q 235 144 197 197 q 354 92 272 92 q 438 106 404 92 q 492 135 471 119 q 517 150 513 150 q 548 122 531 150 q 565 81 565 94 q 537 42 565 64 q 460 6 508 21 q 356 -8 411 -8 m 458 415 q 335 635 458 635 q 190 415 201 635 l 458 415 m 233 843 q 181 874 181 843 l 181 944 q 236 975 181 975 q 289 944 289 975 l 289 874 q 233 843 289 843 m 408 843 q 356 874 356 843 l 356 944 q 411 975 356 975 q 464 944 464 975 l 464 874 q 408 843 464 843 z "},"ė":{"ha":631,"x_min":65,"x_max":582,"o":"m 356 -8 q 137 82 208 -8 q 65 358 65 172 q 135 639 65 543 q 339 735 204 735 q 521 642 460 735 q 582 372 582 550 q 565 338 582 360 q 536 315 549 315 l 190 315 q 235 144 197 197 q 354 92 272 92 q 438 106 404 92 q 492 135 471 119 q 517 150 513 150 q 548 122 531 150 q 565 81 565 94 q 537 42 565 64 q 460 6 508 21 q 356 -8 411 -8 m 458 415 q 335 635 458 635 q 190 415 201 635 l 458 415 m 321 843 q 260 874 260 843 l 260 944 q 324 975 260 975 q 385 944 385 975 l 385 874 q 321 843 385 843 z "},"ẹ":{"ha":631,"x_min":65,"x_max":582,"o":"m 356 -8 q 137 82 208 -8 q 65 358 65 172 q 135 639 65 543 q 339 735 204 735 q 521 642 460 735 q 582 372 582 550 q 565 338 582 360 q 536 315 549 315 l 190 315 q 235 144 197 197 q 354 92 272 92 q 438 106 404 92 q 492 135 471 119 q 517 150 513 150 q 548 122 531 150 q 565 81 565 94 q 537 42 565 64 q 460 6 508 21 q 356 -8 411 -8 m 458 415 q 335 635 458 635 q 190 415 201 635 l 458 415 m 324 -243 q 263 -212 263 -243 l 263 -142 q 326 -111 263 -111 q 388 -142 388 -111 l 388 -212 q 324 -243 388 -243 z "},"è":{"ha":631,"x_min":65,"x_max":582,"o":"m 356 -8 q 137 82 208 -8 q 65 358 65 172 q 135 639 65 543 q 339 735 204 735 q 521 642 460 735 q 582 372 582 550 q 565 338 582 360 q 536 315 549 315 l 190 315 q 235 144 197 197 q 354 92 272 92 q 438 106 404 92 q 492 135 471 119 q 517 150 513 150 q 548 122 531 150 q 565 81 565 94 q 537 42 565 64 q 460 6 508 21 q 356 -8 411 -8 m 458 415 q 335 635 458 635 q 190 415 201 635 l 458 415 m 354 813 q 289 838 306 813 q 195 965 211 942 q 179 999 179 988 q 193 1013 179 1008 q 238 1017 207 1017 q 317 981 297 1017 l 344 922 q 373 858 363 882 q 383 826 383 835 q 377 816 383 819 q 354 813 371 813 z "},"ẻ":{"ha":631,"x_min":65,"x_max":582,"o":"m 356 -8 q 137 82 208 -8 q 65 358 65 172 q 135 639 65 543 q 339 735 204 735 q 521 642 460 735 q 582 372 582 550 q 565 338 582 360 q 536 315 549 315 l 190 315 q 235 144 197 197 q 354 92 272 92 q 438 106 404 92 q 492 135 471 119 q 517 150 513 150 q 548 122 531 150 q 565 81 565 94 q 537 42 565 64 q 460 6 508 21 q 356 -8 411 -8 m 458 415 q 335 635 458 635 q 190 415 201 635 l 458 415 m 331 782 q 302 790 319 782 q 285 806 285 797 q 292 826 285 818 q 319 851 300 835 q 357 889 343 871 q 371 933 371 907 q 356 961 371 951 q 319 971 342 971 q 274 962 289 971 q 256 953 260 953 q 235 970 247 953 q 222 999 222 988 q 258 1027 222 1013 q 331 1042 294 1042 q 417 1018 376 1042 q 457 943 457 994 q 431 865 457 901 q 374 806 406 829 q 331 782 342 782 z "},"ē":{"ha":631,"x_min":65,"x_max":582,"o":"m 356 -8 q 137 82 208 -8 q 65 358 65 172 q 135 639 65 543 q 339 735 204 735 q 521 642 460 735 q 582 372 582 550 q 565 338 582 360 q 536 315 549 315 l 190 315 q 235 144 197 197 q 354 92 272 92 q 438 106 404 92 q 492 135 471 119 q 517 150 513 150 q 548 122 531 150 q 565 81 565 94 q 537 42 565 64 q 460 6 508 21 q 356 -8 411 -8 m 458 415 q 335 635 458 635 q 190 415 201 635 l 458 415 m 188 850 q 161 892 161 850 l 161 906 q 188 947 161 947 l 464 947 q 484 938 478 947 q 490 906 490 928 l 490 892 q 484 860 490 869 q 464 850 478 850 l 188 850 z "},"ę":{"ha":631,"x_min":65,"x_max":619,"o":"m 592 -139 q 619 -172 619 -139 q 601 -210 619 -197 q 510 -236 563 -236 q 408 -197 435 -236 q 382 -114 382 -157 q 410 -4 382 -60 q 356 -8 385 -8 q 137 82 208 -8 q 65 358 65 172 q 135 639 65 543 q 339 735 204 735 q 521 642 460 735 q 582 372 582 550 q 565 338 582 360 q 536 315 549 315 l 190 315 q 235 144 197 197 q 354 92 272 92 q 438 106 404 92 q 492 135 471 119 q 517 150 513 150 q 548 122 531 150 q 565 81 565 94 q 548 52 565 68 q 501 22 531 36 q 476 -37 485 -8 q 467 -89 467 -67 q 536 -149 467 -149 q 567 -144 547 -149 q 592 -139 586 -139 m 335 635 q 190 415 201 635 l 458 415 q 335 635 458 635 z "},"ẽ":{"ha":631,"x_min":65,"x_max":582,"o":"m 356 -8 q 137 82 208 -8 q 65 358 65 172 q 135 639 65 543 q 339 735 204 735 q 521 642 460 735 q 582 372 582 550 q 565 338 582 360 q 536 315 549 315 l 190 315 q 235 144 197 197 q 354 92 272 92 q 438 106 404 92 q 492 135 471 119 q 517 150 513 150 q 548 122 531 150 q 565 81 565 94 q 537 42 565 64 q 460 6 508 21 q 356 -8 411 -8 m 458 415 q 335 635 458 635 q 190 415 201 635 l 458 415 m 131 828 q 117 844 117 833 q 121 863 117 853 q 169 936 142 914 q 236 958 196 958 q 277 951 257 958 q 332 929 297 944 q 413 903 388 903 q 440 910 428 903 q 465 939 451 918 q 492 960 476 960 q 507 956 499 960 l 517 951 q 530 944 526 947 q 533 935 533 940 q 528 915 533 926 q 480 842 507 864 q 414 821 453 821 q 368 828 392 821 q 313 851 344 836 q 270 869 292 861 q 233 876 249 876 q 208 868 219 876 q 183 839 197 860 q 160 819 172 819 q 144 822 156 819 l 131 828 z "},"f":{"ha":397,"x_min":67,"x_max":389,"o":"m 190 -3 q 135 28 135 -3 l 135 626 l 94 626 q 74 636 81 626 q 67 668 67 646 l 67 685 q 74 717 67 707 q 94 726 81 726 l 135 726 l 135 874 q 183 1013 135 975 q 293 1050 232 1050 q 359 1039 329 1050 q 389 1007 389 1028 q 381 967 389 992 q 358 942 372 942 q 341 946 354 942 q 308 950 328 950 q 266 933 281 950 q 251 863 251 915 l 251 726 l 344 726 q 366 717 360 726 q 372 685 372 707 l 372 668 q 366 636 372 646 q 344 626 360 626 l 251 626 l 251 28 q 196 -3 251 -3 l 190 -3 z "},"g":{"ha":654,"x_min":61,"x_max":618,"o":"m 306 -294 q 126 -253 192 -294 q 61 -122 61 -212 q 90 -18 61 -62 q 169 53 118 26 l 169 56 q 137 99 149 72 q 125 157 125 125 q 190 288 125 238 q 114 371 140 317 q 88 496 88 425 q 147 669 88 604 q 317 735 206 735 q 382 726 351 735 l 590 726 q 618 686 618 726 l 618 669 q 612 640 618 649 q 590 631 606 631 q 514 633 535 631 l 511 631 q 543 497 543 574 q 487 328 543 393 q 328 258 431 263 q 248 233 278 256 q 218 168 218 211 q 251 111 218 126 q 354 86 285 96 l 390 81 q 526 29 479 67 q 574 -89 574 -8 q 506 -242 574 -189 q 306 -294 438 -294 m 315 347 q 408 379 374 347 q 442 494 442 411 q 408 612 442 579 q 315 644 374 644 q 223 613 256 644 q 190 494 190 581 q 223 379 190 411 q 315 347 256 347 m 315 -204 q 468 -101 468 -204 q 448 -47 468 -65 q 398 -20 428 -28 q 318 -6 368 -12 q 232 11 257 3 q 160 -100 160 -26 q 315 -204 160 -204 z "},"ğ":{"ha":654,"x_min":61,"x_max":618,"o":"m 306 -294 q 126 -253 192 -294 q 61 -122 61 -212 q 90 -18 61 -62 q 169 53 118 26 l 169 56 q 137 99 149 72 q 125 157 125 125 q 190 288 125 238 q 114 371 140 317 q 88 496 88 425 q 147 669 88 604 q 317 735 206 735 q 382 726 351 735 l 590 726 q 618 686 618 726 l 618 669 q 612 640 618 649 q 590 631 606 631 q 514 633 535 631 l 511 631 q 543 497 543 574 q 487 328 543 393 q 328 258 431 263 q 248 233 278 256 q 218 168 218 211 q 251 111 218 126 q 354 86 285 96 l 390 81 q 526 29 479 67 q 574 -89 574 -8 q 506 -242 574 -189 q 306 -294 438 -294 m 315 347 q 408 379 374 347 q 442 494 442 411 q 408 612 442 579 q 315 644 374 644 q 223 613 256 644 q 190 494 190 581 q 223 379 190 411 q 315 347 256 347 m 315 -204 q 468 -101 468 -204 q 448 -47 468 -65 q 398 -20 428 -28 q 318 -6 368 -12 q 232 11 257 3 q 160 -100 160 -26 q 315 -204 160 -204 m 321 813 q 205 854 251 813 q 158 972 158 896 q 183 993 158 993 q 198 988 193 993 q 206 974 203 983 q 213 958 210 964 q 321 904 233 904 q 429 958 408 904 q 435 974 431 963 q 444 989 439 985 q 457 993 449 993 q 482 972 482 993 q 435 854 482 896 q 321 813 389 813 z "},"ĝ":{"ha":654,"x_min":61,"x_max":618,"o":"m 306 -294 q 126 -253 192 -294 q 61 -122 61 -212 q 90 -18 61 -62 q 169 53 118 26 l 169 56 q 137 99 149 72 q 125 157 125 125 q 190 288 125 238 q 114 371 140 317 q 88 496 88 425 q 147 669 88 604 q 317 735 206 735 q 382 726 351 735 l 590 726 q 618 686 618 726 l 618 669 q 612 640 618 649 q 590 631 606 631 q 514 633 535 631 l 511 631 q 543 497 543 574 q 487 328 543 393 q 328 258 431 263 q 248 233 278 256 q 218 168 218 211 q 251 111 218 126 q 354 86 285 96 l 390 81 q 526 29 479 67 q 574 -89 574 -8 q 506 -242 574 -189 q 306 -294 438 -294 m 315 347 q 408 379 374 347 q 442 494 442 411 q 408 612 442 579 q 315 644 374 644 q 223 613 256 644 q 190 494 190 581 q 223 379 190 411 q 315 347 256 347 m 315 -204 q 468 -101 468 -204 q 448 -47 468 -65 q 398 -20 428 -28 q 318 -6 368 -12 q 232 11 257 3 q 160 -100 160 -26 q 315 -204 160 -204 m 196 800 q 176 806 183 800 q 169 818 169 811 q 179 844 169 825 l 251 967 q 310 997 271 997 l 331 997 q 388 967 368 997 l 463 844 q 471 821 471 828 q 464 806 471 811 q 444 800 457 800 l 417 800 q 382 819 394 800 l 319 921 l 258 819 q 222 800 243 800 l 196 800 z "},"ģ":{"ha":607,"x_min":61,"x_max":618,"o":"m 367 1068 q 394 1063 382 1068 q 406 1047 406 1058 q 401 1024 406 1039 q 394 1004 396 1010 q 373 935 381 968 q 365 857 365 901 q 352 824 365 836 q 313 813 339 813 l 299 813 q 263 823 275 813 q 250 851 250 833 q 270 963 250 914 q 318 1040 290 1013 q 367 1068 346 1068 m 306 -294 q 126 -253 192 -294 q 61 -122 61 -212 q 90 -18 61 -62 q 169 53 118 26 l 169 56 q 137 99 149 72 q 125 157 125 125 q 190 288 125 238 q 114 371 140 317 q 88 496 88 425 q 147 669 88 604 q 317 735 206 735 q 382 726 351 735 l 590 726 q 618 686 618 726 l 618 669 q 612 640 618 649 q 590 631 606 631 q 514 633 535 631 l 511 631 q 543 497 543 574 q 487 328 543 393 q 328 258 431 263 q 248 233 278 256 q 218 168 218 211 q 251 111 218 126 q 354 86 285 96 l 390 81 q 526 29 479 67 q 574 -89 574 -8 q 506 -242 574 -189 q 306 -294 438 -294 m 315 347 q 408 379 374 347 q 442 494 442 411 q 408 612 442 579 q 315 644 374 644 q 223 613 256 644 q 190 494 190 581 q 223 379 190 411 q 315 347 256 347 m 315 -204 q 468 -101 468 -204 q 448 -47 468 -65 q 398 -20 428 -28 q 318 -6 368 -12 q 232 11 257 3 q 160 -100 160 -26 q 315 -204 160 -204 z "},"ġ":{"ha":654,"x_min":61,"x_max":618,"o":"m 306 -294 q 126 -253 192 -294 q 61 -122 61 -212 q 90 -18 61 -62 q 169 53 118 26 l 169 56 q 137 99 149 72 q 125 157 125 125 q 190 288 125 238 q 114 371 140 317 q 88 496 88 425 q 147 669 88 604 q 317 735 206 735 q 382 726 351 735 l 590 726 q 618 686 618 726 l 618 669 q 612 640 618 649 q 590 631 606 631 q 514 633 535 631 l 511 631 q 543 497 543 574 q 487 328 543 393 q 328 258 431 263 q 248 233 278 256 q 218 168 218 211 q 251 111 218 126 q 354 86 285 96 l 390 81 q 526 29 479 67 q 574 -89 574 -8 q 506 -242 574 -189 q 306 -294 438 -294 m 315 347 q 408 379 374 347 q 442 494 442 411 q 408 612 442 579 q 315 644 374 644 q 223 613 256 644 q 190 494 190 581 q 223 379 190 411 q 315 347 256 347 m 315 -204 q 468 -101 468 -204 q 448 -47 468 -65 q 398 -20 428 -28 q 318 -6 368 -12 q 232 11 257 3 q 160 -100 160 -26 q 315 -204 160 -204 m 321 843 q 260 874 260 843 l 260 944 q 324 975 260 975 q 385 944 385 975 l 385 874 q 321 843 385 843 z "},"h":{"ha":674,"x_min":113,"x_max":579,"o":"m 165 -3 q 113 28 113 -3 l 113 1014 q 165 1044 113 1044 l 181 1044 q 232 1014 232 1044 l 232 642 q 305 710 261 685 q 401 735 349 735 q 528 681 478 735 q 579 518 579 628 l 579 28 q 526 -3 579 -3 l 513 -3 q 460 28 460 -3 l 460 507 q 435 601 460 568 q 361 633 410 633 q 278 600 314 633 q 232 536 242 567 l 232 28 q 179 -3 232 -3 l 165 -3 z "},"ħ":{"ha":654,"x_min":14,"x_max":579,"o":"m 401 735 q 528 681 478 735 q 579 518 579 628 l 579 28 q 526 -3 579 -3 l 513 -3 q 460 28 460 -3 l 460 507 q 435 601 460 568 q 361 633 410 633 q 278 600 314 633 q 232 536 242 567 l 232 28 q 179 -3 232 -3 l 165 -3 q 113 28 113 -3 l 113 831 l 43 831 q 14 872 14 831 l 14 886 q 43 928 14 928 l 113 928 l 113 1014 q 165 1044 113 1044 l 181 1044 q 232 1014 232 1044 l 232 928 l 351 928 q 374 918 367 928 q 381 886 381 908 l 381 872 q 374 840 381 850 q 351 831 367 831 l 232 831 l 232 642 q 305 710 261 685 q 401 735 349 735 z "},"ĥ":{"ha":674,"x_min":21,"x_max":579,"o":"m 165 -3 q 113 28 113 -3 l 113 1014 q 165 1044 113 1044 l 181 1044 q 232 1014 232 1044 l 232 642 q 305 710 261 685 q 401 735 349 735 q 528 681 478 735 q 579 518 579 628 l 579 28 q 526 -3 579 -3 l 513 -3 q 460 28 460 -3 l 460 507 q 435 601 460 568 q 361 633 410 633 q 278 600 314 633 q 232 536 242 567 l 232 28 q 179 -3 232 -3 l 165 -3 m 47 1088 q 28 1093 35 1088 q 21 1106 21 1099 q 31 1132 21 1113 l 103 1254 q 161 1285 122 1285 l 182 1285 q 239 1254 219 1285 l 314 1132 q 322 1108 322 1115 q 315 1093 322 1099 q 296 1088 308 1088 l 268 1088 q 233 1107 246 1088 l 171 1208 l 110 1107 q 74 1088 94 1088 l 47 1088 z "},"ḥ":{"ha":674,"x_min":113,"x_max":579,"o":"m 165 -3 q 113 28 113 -3 l 113 1014 q 165 1044 113 1044 l 181 1044 q 232 1014 232 1044 l 232 642 q 305 710 261 685 q 401 735 349 735 q 528 681 478 735 q 579 518 579 628 l 579 28 q 526 -3 579 -3 l 513 -3 q 460 28 460 -3 l 460 507 q 435 601 460 568 q 361 633 410 633 q 278 600 314 633 q 232 536 242 567 l 232 28 q 179 -3 232 -3 l 165 -3 m 344 -243 q 283 -212 283 -243 l 283 -142 q 347 -111 283 -111 q 408 -142 408 -111 l 408 -212 q 344 -243 408 -243 z "},"i":{"ha":353,"x_min":115,"x_max":240,"o":"m 174 -3 q 118 28 118 -3 l 118 699 q 174 729 118 729 l 179 729 q 235 699 235 729 l 235 28 q 179 -3 235 -3 l 174 -3 m 176 843 q 115 874 115 843 l 115 944 q 179 975 115 975 q 240 944 240 975 l 240 874 q 176 843 240 843 z "},"ı":{"ha":353,"x_min":118,"x_max":235,"o":"m 174 -3 q 118 28 118 -3 l 118 699 q 174 729 118 729 l 179 729 q 235 699 235 729 l 235 28 q 179 -3 235 -3 l 174 -3 z "},"í":{"ha":353,"x_min":118,"x_max":342,"o":"m 174 -3 q 118 28 118 -3 l 118 699 q 174 729 118 729 l 179 729 q 235 699 235 729 l 235 28 q 179 -3 235 -3 l 174 -3 m 167 813 q 138 826 138 813 q 155 874 138 836 q 206 981 172 911 q 283 1017 222 1017 q 328 1013 314 1017 q 342 999 342 1008 q 329 972 342 990 q 292 918 317 954 l 233 838 q 167 813 217 813 z "},"ĭ":{"ha":353,"x_min":14,"x_max":338,"o":"m 174 -3 q 118 28 118 -3 l 118 699 q 174 729 118 729 l 179 729 q 235 699 235 729 l 235 28 q 179 -3 235 -3 l 174 -3 m 176 813 q 60 854 107 813 q 14 972 14 896 q 39 993 14 993 q 53 988 49 993 q 62 974 58 983 q 68 958 65 964 q 176 904 89 904 q 285 958 264 904 q 290 974 286 963 q 299 989 294 985 q 313 993 304 993 q 338 972 338 993 q 291 854 338 896 q 176 813 244 813 z "},"î":{"ha":353,"x_min":25,"x_max":326,"o":"m 174 -3 q 118 28 118 -3 l 118 699 q 174 729 118 729 l 179 729 q 235 699 235 729 l 235 28 q 179 -3 235 -3 l 174 -3 m 51 800 q 32 806 39 800 q 25 818 25 811 q 35 844 25 825 l 107 967 q 165 997 126 997 l 186 997 q 243 967 224 997 l 318 844 q 326 821 326 828 q 319 806 326 811 q 300 800 313 800 l 272 800 q 238 819 250 800 l 175 921 l 114 819 q 78 800 99 800 l 51 800 z "},"ï":{"ha":353,"x_min":36,"x_max":319,"o":"m 174 -3 q 118 28 118 -3 l 118 699 q 174 729 118 729 l 179 729 q 235 699 235 729 l 235 28 q 179 -3 235 -3 l 174 -3 m 89 843 q 36 874 36 843 l 36 944 q 92 975 36 975 q 144 944 144 975 l 144 874 q 89 843 144 843 m 264 843 q 211 874 211 843 l 211 944 q 267 975 211 975 q 319 944 319 975 l 319 874 q 264 843 319 843 z "},"ị":{"ha":353,"x_min":100,"x_max":240,"o":"m 174 -3 q 118 28 118 -3 l 118 699 q 174 729 118 729 l 179 729 q 235 699 235 729 l 235 28 q 179 -3 235 -3 l 174 -3 m 176 843 q 115 874 115 843 l 115 944 q 179 975 115 975 q 240 944 240 975 l 240 874 q 176 843 240 843 m 161 -243 q 100 -212 100 -243 l 100 -142 q 164 -111 100 -111 q 225 -142 225 -111 l 225 -212 q 161 -243 225 -243 z "},"ì":{"ha":353,"x_min":35,"x_max":239,"o":"m 174 -3 q 118 28 118 -3 l 118 699 q 174 729 118 729 l 179 729 q 235 699 235 729 l 235 28 q 179 -3 235 -3 l 174 -3 m 210 813 q 144 838 161 813 q 51 965 67 942 q 35 999 35 988 q 49 1013 35 1008 q 93 1017 63 1017 q 172 981 153 1017 l 200 922 q 228 858 218 882 q 239 826 239 835 q 233 816 239 819 q 210 813 226 813 z "},"ỉ":{"ha":353,"x_min":78,"x_max":313,"o":"m 174 -3 q 118 28 118 -3 l 118 699 q 174 729 118 729 l 179 729 q 235 699 235 729 l 235 28 q 179 -3 235 -3 l 174 -3 m 186 782 q 158 790 175 782 q 140 806 140 797 q 148 826 140 818 q 175 851 156 835 q 213 889 199 871 q 226 933 226 907 q 212 961 226 951 q 175 971 197 971 q 130 962 144 971 q 111 953 115 953 q 90 970 103 953 q 78 999 78 988 q 114 1027 78 1013 q 186 1042 150 1042 q 272 1018 232 1042 q 313 943 313 994 q 287 865 313 901 q 229 806 261 829 q 186 782 197 782 z "},"ĳ":{"ha":699,"x_min":115,"x_max":593,"o":"m 174 -3 q 118 28 118 -3 l 118 699 q 174 729 118 729 l 179 729 q 235 699 235 729 l 235 28 q 179 -3 235 -3 l 174 -3 m 176 843 q 115 874 115 843 l 115 944 q 179 975 115 975 q 240 944 240 975 l 240 874 q 176 843 240 843 m 436 -294 q 339 -253 339 -294 q 347 -213 339 -239 q 368 -187 356 -187 q 385 -191 374 -187 q 418 -194 396 -194 q 471 -100 471 -194 l 471 699 q 526 729 471 729 l 532 729 q 588 699 588 729 l 588 -111 q 541 -254 588 -214 q 436 -294 494 -294 m 529 843 q 468 874 468 843 l 468 944 q 532 975 468 975 q 593 944 593 975 l 593 874 q 529 843 593 843 z "},"ī":{"ha":353,"x_min":17,"x_max":346,"o":"m 174 -3 q 118 28 118 -3 l 118 699 q 174 729 118 729 l 179 729 q 235 699 235 729 l 235 28 q 179 -3 235 -3 l 174 -3 m 43 850 q 17 892 17 850 l 17 906 q 43 947 17 947 l 319 947 q 340 938 333 947 q 346 906 346 928 l 346 892 q 340 860 346 869 q 319 850 333 850 l 43 850 z "},"į":{"ha":353,"x_min":100,"x_max":338,"o":"m 176 843 q 115 874 115 843 l 115 944 q 179 975 115 975 q 240 944 240 975 l 240 874 q 176 843 240 843 m 310 -154 q 338 -187 338 -154 q 319 -225 338 -212 q 228 -251 281 -251 q 126 -212 153 -251 q 100 -129 100 -172 q 110 -67 100 -103 q 139 1 119 -31 q 118 28 118 10 l 118 699 q 174 729 118 729 l 179 729 q 235 699 235 729 l 235 28 q 218 3 235 11 q 193 -53 201 -25 q 185 -104 185 -82 q 254 -164 185 -164 q 285 -159 265 -164 q 310 -154 304 -154 z "},"ĩ":{"ha":317,"x_min":-26,"x_max":353,"o":"m -14 828 q -26 844 -26 835 q -22 863 -26 853 q 21 936 -4 914 q 82 958 46 958 q 120 951 100 958 q 171 929 140 943 q 243 903 221 903 q 269 910 258 903 q 290 939 279 918 q 315 960 301 960 q 329 956 321 960 l 338 951 q 349 944 344 949 q 353 935 353 940 q 349 915 353 928 q 304 843 329 865 q 244 821 279 821 q 202 828 224 821 q 151 851 181 836 q 113 869 132 861 q 81 876 93 876 q 57 868 67 876 q 35 839 47 860 q 13 819 24 819 q -1 822 10 819 l -14 828 m 174 -3 q 118 28 118 -3 l 118 699 q 174 729 118 729 l 179 729 q 235 699 235 729 l 235 28 q 179 -3 235 -3 l 174 -3 z "},"j":{"ha":346,"x_min":-14,"x_max":240,"o":"m 83 -294 q -14 -253 -14 -294 q -6 -213 -14 -239 q 15 -187 3 -187 q 32 -191 21 -187 q 65 -194 43 -194 q 118 -100 118 -194 l 118 699 q 174 729 118 729 l 179 729 q 235 699 235 729 l 235 -111 q 188 -254 235 -214 q 83 -294 142 -294 m 176 843 q 115 874 115 843 l 115 944 q 179 975 115 975 q 240 944 240 975 l 240 874 q 176 843 240 843 z "},"ȷ":{"ha":346,"x_min":-14,"x_max":235,"o":"m 83 -294 q -14 -253 -14 -294 q -6 -213 -14 -239 q 15 -187 3 -187 q 32 -191 21 -187 q 65 -194 43 -194 q 118 -100 118 -194 l 118 699 q 174 729 118 729 l 179 729 q 235 699 235 729 l 235 -111 q 188 -254 235 -214 q 83 -294 142 -294 z "},"ĵ":{"ha":346,"x_min":-14,"x_max":326,"o":"m 83 -294 q -14 -253 -14 -294 q -6 -213 -14 -239 q 15 -187 3 -187 q 32 -191 21 -187 q 65 -194 43 -194 q 118 -100 118 -194 l 118 699 q 174 729 118 729 l 179 729 q 235 699 235 729 l 235 -111 q 188 -254 235 -214 q 83 -294 142 -294 m 51 800 q 32 806 39 800 q 25 818 25 811 q 35 844 25 825 l 107 967 q 165 997 126 997 l 186 997 q 243 967 224 997 l 318 844 q 326 821 326 828 q 319 806 326 811 q 300 800 313 800 l 272 800 q 238 819 250 800 l 175 921 l 114 819 q 78 800 99 800 l 51 800 z "},"k":{"ha":628,"x_min":119,"x_max":593,"o":"m 583 39 q 593 17 593 24 q 581 1 593 6 q 539 -3 568 -3 l 511 -3 q 481 0 489 -3 q 464 15 472 3 l 247 358 l 239 358 l 239 28 q 188 -3 239 -3 l 172 -3 q 119 28 119 -3 l 119 1014 q 172 1044 119 1044 l 188 1044 q 239 1014 239 1044 l 239 393 l 246 393 l 447 710 q 507 729 458 729 l 535 729 q 569 724 557 729 q 581 711 581 719 q 569 682 581 700 l 368 376 l 583 39 z "},"ķ":{"ha":628,"x_min":119,"x_max":593,"o":"m 583 39 q 593 17 593 24 q 581 1 593 6 q 539 -3 568 -3 l 511 -3 q 481 0 489 -3 q 464 15 472 3 l 247 358 l 239 358 l 239 28 q 188 -3 239 -3 l 172 -3 q 119 28 119 -3 l 119 1014 q 172 1044 119 1044 l 188 1044 q 239 1014 239 1044 l 239 393 l 246 393 l 447 710 q 507 729 458 729 l 535 729 q 569 724 557 729 q 581 711 581 719 q 569 682 581 700 l 368 376 l 583 39 m 269 -326 q 242 -322 254 -326 q 231 -306 231 -317 q 235 -283 231 -297 q 242 -262 240 -268 q 263 -193 256 -226 q 271 -115 271 -160 q 284 -83 271 -94 q 324 -71 297 -71 l 338 -71 q 374 -81 361 -71 q 386 -110 386 -92 q 366 -222 386 -172 q 318 -299 346 -271 q 269 -326 290 -326 z "},"ĸ":{"ha":628,"x_min":119,"x_max":593,"o":"m 172 -3 q 119 28 119 -3 l 119 699 q 172 729 119 729 l 188 729 q 239 699 239 729 l 239 393 l 246 393 l 447 710 q 507 729 458 729 l 526 729 q 560 724 549 729 q 572 711 572 719 q 558 676 572 699 l 360 378 l 583 39 q 593 17 593 24 q 581 1 593 6 q 539 -3 568 -3 l 518 -3 q 478 0 492 -3 q 457 15 464 3 l 247 344 l 239 344 l 239 28 q 188 -3 239 -3 l 172 -3 z "},"l":{"ha":375,"x_min":106,"x_max":347,"o":"m 253 -8 q 151 28 196 -8 q 106 160 106 65 l 106 1014 q 161 1044 106 1044 l 167 1044 q 222 1014 222 1044 l 222 171 q 274 92 222 92 q 301 95 290 92 q 318 99 313 99 q 339 73 331 99 q 347 33 347 47 q 317 2 347 13 q 253 -8 286 -8 z "},"ĺ":{"ha":375,"x_min":106,"x_max":347,"o":"m 253 -8 q 151 28 196 -8 q 106 160 106 65 l 106 1014 q 161 1044 106 1044 l 167 1044 q 222 1014 222 1044 l 222 171 q 274 92 222 92 q 301 95 290 92 q 318 99 313 99 q 339 73 331 99 q 347 33 347 47 q 317 2 347 13 q 253 -8 286 -8 m 156 1086 q 126 1100 126 1086 q 144 1147 126 1110 q 194 1254 161 1185 q 272 1290 211 1290 q 317 1286 303 1290 q 331 1272 331 1282 q 318 1246 331 1264 q 281 1192 306 1228 l 222 1111 q 156 1086 206 1086 z "},"ľ":{"ha":375,"x_min":106,"x_max":447,"o":"m 253 -8 q 151 28 196 -8 q 106 160 106 65 l 106 1014 q 161 1044 106 1044 l 167 1044 q 222 1014 222 1044 l 222 171 q 274 92 222 92 q 301 95 290 92 q 318 99 313 99 q 339 73 331 99 q 347 33 347 47 q 317 2 347 13 q 253 -8 286 -8 m 346 733 q 318 738 331 733 q 306 754 306 743 q 311 793 306 763 q 324 931 324 863 q 338 963 324 951 q 379 975 351 975 l 392 975 q 433 965 418 975 q 447 936 447 954 q 430 831 447 878 q 388 759 413 785 q 346 733 364 733 z "},"ļ":{"ha":375,"x_min":106,"x_max":347,"o":"m 253 -8 q 151 28 196 -8 q 106 160 106 65 l 106 1014 q 161 1044 106 1044 l 167 1044 q 222 1014 222 1044 l 222 171 q 274 92 222 92 q 301 95 290 92 q 318 99 313 99 q 339 73 331 99 q 347 33 347 47 q 317 2 347 13 q 253 -8 286 -8 m 154 -326 q 127 -322 139 -326 q 115 -306 115 -317 q 120 -283 115 -297 q 126 -262 125 -268 q 148 -193 140 -226 q 156 -115 156 -160 q 169 -83 156 -94 q 208 -71 182 -71 l 222 -71 q 258 -81 246 -71 q 271 -110 271 -92 q 251 -222 271 -172 q 203 -299 231 -271 q 154 -326 175 -326 z "},"ŀ":{"ha":429,"x_min":106,"x_max":438,"o":"m 253 -8 q 151 28 196 -8 q 106 160 106 65 l 106 1014 q 161 1044 106 1044 l 167 1044 q 222 1014 222 1044 l 222 171 q 274 92 222 92 q 301 95 290 92 q 318 99 313 99 q 339 73 331 99 q 347 33 347 47 q 317 2 347 13 q 253 -8 286 -8 m 368 429 q 319 449 339 429 q 300 500 300 468 q 319 553 300 533 q 368 572 339 572 q 418 553 399 572 q 438 500 438 533 q 418 449 438 468 q 368 429 399 429 z "},"ǉ":{"ha":721,"x_min":106,"x_max":615,"o":"m 253 -8 q 151 28 196 -8 q 106 160 106 65 l 106 1014 q 161 1044 106 1044 l 167 1044 q 222 1014 222 1044 l 222 171 q 274 92 222 92 q 301 95 290 92 q 318 99 313 99 q 339 73 331 99 q 347 33 347 47 q 317 2 347 13 q 253 -8 286 -8 m 458 -294 q 361 -253 361 -294 q 369 -213 361 -239 q 390 -187 378 -187 q 407 -191 396 -187 q 440 -194 418 -194 q 493 -100 493 -194 l 493 699 q 549 729 493 729 l 554 729 q 610 699 610 729 l 610 -111 q 563 -254 610 -214 q 458 -294 517 -294 m 551 843 q 490 874 490 843 l 490 944 q 554 975 490 975 q 615 944 615 975 l 615 874 q 551 843 615 843 z "},"ł":{"ha":383,"x_min":50,"x_max":356,"o":"m 326 99 q 347 73 339 99 q 356 33 356 47 q 325 2 356 13 q 261 -8 294 -8 q 159 28 204 -8 q 114 160 114 65 l 114 478 l 76 456 q 63 450 65 450 q 53 455 57 450 q 50 469 50 460 l 50 478 q 76 519 50 504 l 114 542 l 114 1014 q 169 1044 114 1044 l 175 1044 q 231 1014 231 1044 l 231 611 l 290 646 q 304 651 301 651 q 313 647 310 651 q 317 632 317 642 l 317 624 q 290 582 317 597 l 231 547 l 231 171 q 282 92 231 92 q 310 95 299 92 q 326 99 321 99 z "},"m":{"ha":1000,"x_min":94,"x_max":906,"o":"m 729 735 q 856 678 806 735 q 906 510 906 622 l 906 28 q 853 -3 906 -3 l 839 -3 q 786 28 786 -3 l 786 499 q 763 599 786 564 q 692 633 739 633 q 615 602 649 633 q 567 532 581 571 l 567 510 l 567 28 q 515 -3 567 -3 l 500 -3 q 447 28 447 -3 l 447 499 q 424 599 447 564 q 351 633 400 633 q 271 600 306 633 q 228 536 236 567 l 228 28 q 175 -3 228 -3 l 160 -3 q 108 28 108 -3 l 108 518 q 101 649 108 608 q 94 693 94 689 q 124 717 94 710 q 175 725 154 725 q 202 707 194 725 q 214 665 210 689 q 219 631 218 642 q 292 706 247 678 q 390 735 338 735 q 485 709 443 735 q 549 628 528 683 q 629 706 582 676 q 729 735 676 735 z "},"n":{"ha":669,"x_min":94,"x_max":575,"o":"m 160 -3 q 108 28 108 -3 l 108 518 q 101 649 108 608 q 94 693 94 689 q 124 717 94 710 q 175 725 154 725 q 202 707 194 725 q 214 665 210 689 q 219 631 218 642 q 297 707 251 679 q 394 735 343 735 q 528 677 481 735 q 575 518 575 619 l 575 28 q 522 -3 575 -3 l 508 -3 q 454 28 454 -3 l 454 507 q 429 601 454 568 q 356 633 404 633 q 283 606 318 633 q 228 536 249 579 l 228 28 q 175 -3 228 -3 l 160 -3 z "},"ń":{"ha":669,"x_min":94,"x_max":575,"o":"m 160 -3 q 108 28 108 -3 l 108 518 q 101 649 108 608 q 94 693 94 689 q 124 717 94 710 q 175 725 154 725 q 202 707 194 725 q 214 665 210 689 q 219 631 218 642 q 297 707 251 679 q 394 735 343 735 q 528 677 481 735 q 575 518 575 619 l 575 28 q 522 -3 575 -3 l 508 -3 q 454 28 454 -3 l 454 507 q 429 601 454 568 q 356 633 404 633 q 283 606 318 633 q 228 536 249 579 l 228 28 q 175 -3 228 -3 l 160 -3 m 329 813 q 300 826 300 813 q 317 874 300 836 q 368 981 335 911 q 446 1017 385 1017 q 490 1013 476 1017 q 504 999 504 1008 q 492 972 504 990 q 454 918 479 954 l 396 838 q 329 813 379 813 z "},"ŉ":{"ha":669,"x_min":-11,"x_max":575,"o":"m 28 746 q 1 751 13 746 q -11 767 -11 756 q -6 790 -11 775 q 0 810 -1 804 q 22 879 14 846 q 29 957 29 913 q 42 990 29 978 q 82 1001 56 1001 l 96 1001 q 132 991 119 1001 q 144 963 144 981 q 124 851 144 900 q 76 774 104 801 q 28 746 49 746 m 160 -3 q 108 28 108 -3 l 108 518 q 101 649 108 608 q 94 693 94 689 q 124 717 94 710 q 175 725 154 725 q 202 707 194 725 q 214 665 210 689 q 219 631 218 642 q 297 707 251 679 q 394 735 343 735 q 528 677 481 735 q 575 518 575 619 l 575 28 q 522 -3 575 -3 l 508 -3 q 454 28 454 -3 l 454 507 q 429 601 454 568 q 356 633 404 633 q 283 606 318 633 q 228 536 249 579 l 228 28 q 175 -3 228 -3 l 160 -3 z "},"ň":{"ha":669,"x_min":94,"x_max":575,"o":"m 160 -3 q 108 28 108 -3 l 108 518 q 101 649 108 608 q 94 693 94 689 q 124 717 94 710 q 175 725 154 725 q 202 707 194 725 q 214 665 210 689 q 219 631 218 642 q 297 707 251 679 q 394 735 343 735 q 528 677 481 735 q 575 518 575 619 l 575 28 q 522 -3 575 -3 l 508 -3 q 454 28 454 -3 l 454 507 q 429 601 454 568 q 356 633 404 633 q 283 606 318 633 q 228 536 249 579 l 228 28 q 175 -3 228 -3 l 160 -3 m 329 810 q 271 840 289 810 l 199 963 q 189 988 189 979 q 196 1001 189 996 q 215 1007 203 1007 l 242 1007 q 278 986 264 1007 l 339 886 l 401 986 q 436 1007 414 1007 l 464 1007 q 483 1001 476 1007 q 490 986 490 996 q 482 963 490 979 l 407 840 q 350 810 389 810 l 329 810 z "},"ņ":{"ha":669,"x_min":94,"x_max":575,"o":"m 160 -3 q 108 28 108 -3 l 108 518 q 101 649 108 608 q 94 693 94 689 q 124 717 94 710 q 175 725 154 725 q 202 707 194 725 q 214 665 210 689 q 219 631 218 642 q 297 707 251 679 q 394 735 343 735 q 528 677 481 735 q 575 518 575 619 l 575 28 q 522 -3 575 -3 l 508 -3 q 454 28 454 -3 l 454 507 q 429 601 454 568 q 356 633 404 633 q 283 606 318 633 q 228 536 249 579 l 228 28 q 175 -3 228 -3 l 160 -3 m 278 -326 q 251 -322 263 -326 q 239 -306 239 -317 q 244 -283 239 -297 q 250 -262 249 -268 q 272 -193 264 -226 q 279 -115 279 -160 q 292 -83 279 -94 q 332 -71 306 -71 l 346 -71 q 382 -81 369 -71 q 394 -110 394 -92 q 374 -222 394 -172 q 326 -299 354 -271 q 278 -326 299 -326 z "},"ṅ":{"ha":669,"x_min":94,"x_max":575,"o":"m 160 -3 q 108 28 108 -3 l 108 518 q 101 649 108 608 q 94 693 94 689 q 124 717 94 710 q 175 725 154 725 q 202 707 194 725 q 214 665 210 689 q 219 631 218 642 q 297 707 251 679 q 394 735 343 735 q 528 677 481 735 q 575 518 575 619 l 575 28 q 522 -3 575 -3 l 508 -3 q 454 28 454 -3 l 454 507 q 429 601 454 568 q 356 633 404 633 q 283 606 318 633 q 228 536 249 579 l 228 28 q 175 -3 228 -3 l 160 -3 m 339 843 q 278 874 278 843 l 278 944 q 342 975 278 975 q 403 944 403 975 l 403 874 q 339 843 403 843 z "},"ŋ":{"ha":669,"x_min":94,"x_max":575,"o":"m 421 -294 q 324 -253 324 -294 q 332 -213 324 -239 q 353 -187 340 -187 q 369 -191 358 -187 q 403 -194 381 -194 q 454 -100 454 -194 l 454 507 q 429 601 454 568 q 356 633 404 633 q 283 606 318 633 q 228 536 249 579 l 228 28 q 175 -3 228 -3 l 160 -3 q 108 28 108 -3 l 108 518 q 101 649 108 608 q 94 693 94 689 q 124 717 94 710 q 175 725 154 725 q 202 707 194 725 q 214 665 210 689 q 219 631 218 642 q 297 707 251 679 q 394 735 343 735 q 528 677 481 735 q 575 518 575 619 l 575 -111 q 528 -254 575 -214 q 421 -294 481 -294 z "},"ǌ":{"ha":1015,"x_min":94,"x_max":910,"o":"m 160 -3 q 108 28 108 -3 l 108 518 q 101 649 108 608 q 94 693 94 689 q 124 717 94 710 q 175 725 154 725 q 202 707 194 725 q 214 665 210 689 q 219 631 218 642 q 297 707 251 679 q 394 735 343 735 q 528 677 481 735 q 575 518 575 619 l 575 28 q 522 -3 575 -3 l 508 -3 q 454 28 454 -3 l 454 507 q 429 601 454 568 q 356 633 404 633 q 283 606 318 633 q 228 536 249 579 l 228 28 q 175 -3 228 -3 l 160 -3 m 753 -294 q 656 -253 656 -294 q 664 -213 656 -239 q 685 -187 672 -187 q 701 -191 690 -187 q 735 -194 713 -194 q 788 -100 788 -194 l 788 699 q 843 729 788 729 l 849 729 q 904 699 904 729 l 904 -111 q 858 -254 904 -214 q 753 -294 811 -294 m 846 843 q 785 874 785 843 l 785 944 q 849 975 785 975 q 910 944 910 975 l 910 874 q 846 843 910 843 z "},"ñ":{"ha":669,"x_min":94,"x_max":575,"o":"m 160 -3 q 108 28 108 -3 l 108 518 q 101 649 108 608 q 94 693 94 689 q 124 717 94 710 q 175 725 154 725 q 202 707 194 725 q 214 665 210 689 q 219 631 218 642 q 297 707 251 679 q 394 735 343 735 q 528 677 481 735 q 575 518 575 619 l 575 28 q 522 -3 575 -3 l 508 -3 q 454 28 454 -3 l 454 507 q 429 601 454 568 q 356 633 404 633 q 283 606 318 633 q 228 536 249 579 l 228 28 q 175 -3 228 -3 l 160 -3 m 149 828 q 135 844 135 833 q 139 863 135 853 q 187 936 160 914 q 254 958 214 958 q 295 951 275 958 q 350 929 315 944 q 431 903 406 903 q 458 910 446 903 q 483 939 469 918 q 510 960 494 960 q 525 956 517 960 l 535 951 q 548 944 544 947 q 551 935 551 940 q 546 915 551 926 q 498 842 525 864 q 432 821 471 821 q 386 828 410 821 q 331 851 363 836 q 288 869 310 861 q 251 876 267 876 q 226 868 238 876 q 201 839 215 860 q 178 819 190 819 q 163 822 174 819 l 149 828 z "},"o":{"ha":663,"x_min":65,"x_max":597,"o":"m 333 -8 q 134 86 203 -8 q 65 360 65 181 q 134 638 65 540 q 333 735 203 735 q 530 638 463 735 q 597 360 597 542 q 531 85 597 179 q 333 -8 464 -8 m 331 92 q 440 158 404 92 q 475 363 475 224 q 440 568 475 501 q 331 635 404 635 q 223 569 257 635 q 189 363 189 503 q 223 158 189 224 q 331 92 257 92 z "},"ó":{"ha":663,"x_min":65,"x_max":597,"o":"m 333 -8 q 134 86 203 -8 q 65 360 65 181 q 134 638 65 540 q 333 735 203 735 q 530 638 463 735 q 597 360 597 542 q 531 85 597 179 q 333 -8 464 -8 m 331 92 q 440 158 404 92 q 475 363 475 224 q 440 568 475 501 q 331 635 404 635 q 223 569 257 635 q 189 363 189 503 q 223 158 189 224 q 331 92 257 92 m 322 813 q 293 826 293 813 q 310 874 293 836 q 361 981 328 911 q 439 1017 378 1017 q 483 1013 469 1017 q 497 999 497 1008 q 485 972 497 990 q 447 918 472 954 l 389 838 q 322 813 372 813 z "},"ŏ":{"ha":663,"x_min":65,"x_max":597,"o":"m 333 -8 q 134 86 203 -8 q 65 360 65 181 q 134 638 65 540 q 333 735 203 735 q 530 638 463 735 q 597 360 597 542 q 531 85 597 179 q 333 -8 464 -8 m 331 92 q 440 158 404 92 q 475 363 475 224 q 440 568 475 501 q 331 635 404 635 q 223 569 257 635 q 189 363 189 503 q 223 158 189 224 q 331 92 257 92 m 332 813 q 216 854 263 813 q 169 972 169 896 q 194 993 169 993 q 209 988 204 993 q 217 974 214 983 q 224 958 221 964 q 332 904 244 904 q 440 958 419 904 q 446 974 442 963 q 455 989 450 985 q 468 993 460 993 q 493 972 493 993 q 447 854 493 896 q 332 813 400 813 z "},"ô":{"ha":663,"x_min":65,"x_max":597,"o":"m 333 -8 q 134 86 203 -8 q 65 360 65 181 q 134 638 65 540 q 333 735 203 735 q 530 638 463 735 q 597 360 597 542 q 531 85 597 179 q 333 -8 464 -8 m 331 92 q 440 158 404 92 q 475 363 475 224 q 440 568 475 501 q 331 635 404 635 q 223 569 257 635 q 189 363 189 503 q 223 158 189 224 q 331 92 257 92 m 207 800 q 188 806 194 800 q 181 818 181 811 q 190 844 181 825 l 263 967 q 321 997 282 997 l 342 997 q 399 967 379 997 l 474 844 q 482 821 482 828 q 475 806 482 811 q 456 800 468 800 l 428 800 q 393 819 406 800 l 331 921 l 269 819 q 233 800 254 800 l 207 800 z "},"ố":{"ha":643,"x_min":65,"x_max":636,"o":"m 461 1003 q 432 1017 432 1003 q 449 1064 432 1026 q 500 1171 467 1101 q 578 1207 517 1207 q 622 1203 608 1207 q 636 1189 636 1199 q 624 1163 636 1181 q 586 1108 611 1144 l 528 1028 q 461 1003 511 1003 m 206 800 q 186 805 193 800 q 179 818 179 810 q 186 844 179 831 l 253 967 q 310 997 269 997 l 332 997 q 389 967 372 997 l 456 844 q 461 834 457 842 q 465 821 465 826 q 458 806 465 811 q 438 800 450 800 l 411 800 q 375 818 388 800 l 321 921 l 267 818 q 253 803 261 807 q 231 800 244 800 l 206 800 m 333 -8 q 134 86 203 -8 q 65 360 65 181 q 134 638 65 540 q 333 735 203 735 q 530 638 463 735 q 597 360 597 542 q 531 85 597 179 q 333 -8 464 -8 m 331 92 q 440 158 404 92 q 475 363 475 224 q 440 568 475 501 q 331 635 404 635 q 223 569 257 635 q 189 363 189 503 q 223 158 189 224 q 331 92 257 92 z "},"ộ":{"ha":663,"x_min":65,"x_max":597,"o":"m 333 -8 q 134 86 203 -8 q 65 360 65 181 q 134 638 65 540 q 333 735 203 735 q 530 638 463 735 q 597 360 597 542 q 531 85 597 179 q 333 -8 464 -8 m 331 92 q 440 158 404 92 q 475 363 475 224 q 440 568 475 501 q 331 635 404 635 q 223 569 257 635 q 189 363 189 503 q 223 158 189 224 q 331 92 257 92 m 338 -243 q 276 -212 276 -243 l 276 -142 q 340 -111 276 -111 q 401 -142 401 -111 l 401 -212 q 338 -243 401 -243 m 207 800 q 188 806 194 800 q 181 818 181 811 q 190 844 181 825 l 263 967 q 321 997 282 997 l 342 997 q 399 967 379 997 l 474 844 q 482 821 482 828 q 475 806 482 811 q 456 800 468 800 l 428 800 q 393 819 406 800 l 331 921 l 269 819 q 233 800 254 800 l 207 800 z "}}}
